<?xml version="1.0" encoding="utf-8"?>
<!-- Generator: Adobe Illustrator 15.1.0, SVG Export Plug-In . SVG Version: 6.00 Build 0)  -->
<!DOCTYPE svg PUBLIC "-//W3C//DTD SVG 1.1//EN" "http://www.w3.org/Graphics/SVG/1.1/DTD/svg11.dtd">
<svg version="1.1" id="Layer_1" xmlns="http://www.w3.org/2000/svg" xmlns:xlink="http://www.w3.org/1999/xlink" x="0px" y="0px"
	 width="15px" height="15px" viewBox="0 0 15 15" enable-background="new 0 0 15 15" xml:space="preserve">
<g>
	<path fill="#FFFFFF" d="M9.713,1.595c-2.08,0-3.762,1.682-3.762,3.761c0,0.443,0.088,0.885,0.222,1.328l-4.646,4.646v2.212h2.212
		v-1.327h1.328v-1.328h1.327l1.991-1.991c0.398,0.133,0.841,0.221,1.328,0.221c2.078,0,3.76-1.68,3.76-3.76
		C13.473,3.276,11.791,1.595,9.713,1.595z M10.819,5.577c-0.753,0-1.327-0.575-1.327-1.328c0-0.752,0.574-1.328,1.327-1.328
		c0.752,0,1.327,0.576,1.327,1.328C12.146,5.002,11.571,5.577,10.819,5.577z"/>
</g>
</svg>
