<?xml version="1.0" encoding="utf-8"?>
<!-- Generator: Adobe Illustrator 15.1.0, SVG Export Plug-In . SVG Version: 6.00 Build 0)  -->
<!DOCTYPE svg PUBLIC "-//W3C//DTD SVG 1.1//EN" "http://www.w3.org/Graphics/SVG/1.1/DTD/svg11.dtd">
<svg version="1.1" id="Layer_1" xmlns="http://www.w3.org/2000/svg" xmlns:xlink="http://www.w3.org/1999/xlink" x="0px" y="0px"
	 width="500px" height="500px" viewBox="0 0 500 500" enable-background="new 0 0 500 500" xml:space="preserve">
<g>
	<g>
		<polygon fill="#2D7AC3" points="53.965,136.821 249.999,23.641 446.034,136.821 446.034,363.18 249.999,476.36 53.965,363.18 		
			"/>
		<path fill="#4E8FCF" d="M446.034,136.821c0,0-251.565,95.216-305.684,276.234L250,476.36l196.034-113.18"/>
		<path fill="#77ACDE" d="M53.965,136.821c0,0,251.565,95.216,305.684,276.234L249.999,476.36L53.965,363.18"/>
	</g>
	<g>
		<path fill="#FFFFFF" d="M215.151,306.948l-6.152-16.172h-52.383l-6.152,16.523c-2.403,6.446-4.454,10.797-6.152,13.052
			c-1.7,2.255-4.482,3.384-8.35,3.384c-3.282,0-6.183-1.202-8.701-3.604c-2.52-2.402-3.779-5.126-3.779-8.174
			c0-1.758,0.292-3.573,0.879-5.449c0.585-1.875,1.552-4.482,2.9-7.822l32.959-83.672c0.937-2.402,2.065-5.287,3.384-8.657
			c1.318-3.369,2.725-6.166,4.219-8.394c1.494-2.226,3.457-4.028,5.889-5.405c2.431-1.376,5.434-2.065,9.009-2.065
			c3.632,0,6.665,0.689,9.097,2.065c2.431,1.377,4.395,3.15,5.889,5.317c1.494,2.168,2.753,4.498,3.779,6.987
			c1.024,2.491,2.329,5.816,3.911,9.976l33.662,83.145c2.637,6.328,3.955,10.929,3.955,13.799c0,2.988-1.246,5.728-3.735,8.218
			c-2.491,2.49-5.493,3.735-9.009,3.735c-2.052,0-3.81-0.367-5.273-1.099c-1.465-0.733-2.696-1.728-3.691-2.988
			c-0.997-1.259-2.065-3.193-3.208-5.801C216.953,311.241,215.971,308.941,215.151,306.948z M163.471,271.177h38.496l-19.424-53.174
			L163.471,271.177z"/>
		<path fill="#FFFFFF" d="M278.344,192.69h34.014c8.847,0,16.436,0.821,22.764,2.461c6.328,1.641,12.07,4.717,17.227,9.229
			c13.417,11.485,20.127,28.946,20.127,52.383c0,7.734-0.674,14.796-2.021,21.182c-1.349,6.387-3.428,12.144-6.24,17.271
			c-2.813,5.128-6.416,9.712-10.811,13.755c-3.458,3.106-7.237,5.596-11.338,7.471c-4.102,1.876-8.512,3.194-13.228,3.955
			c-4.717,0.762-10.035,1.143-15.952,1.143h-34.014c-4.746,0-8.321-0.717-10.723-2.153c-2.403-1.435-3.97-3.457-4.702-6.064
			c-0.733-2.606-1.099-5.99-1.099-10.151v-94.482c0-5.625,1.259-9.697,3.779-12.217C268.646,193.951,272.719,192.69,278.344,192.69z
			 M288.452,213.345v87.451h19.775c4.335,0,7.734-0.117,10.195-0.352c2.461-0.233,5.01-0.82,7.646-1.758
			c2.637-0.937,4.922-2.255,6.855-3.955c8.73-7.383,13.096-20.097,13.096-38.145c0-12.714-1.92-22.236-5.757-28.564
			c-3.838-6.328-8.569-10.356-14.194-12.085c-5.625-1.728-12.423-2.593-20.391-2.593H288.452z"/>
	</g>
</g>
</svg>
