<?xml version="1.0" encoding="utf-8"?>
<!-- Generator: Adobe Illustrator 15.1.0, SVG Export Plug-In . SVG Version: 6.00 Build 0)  -->
<!DOCTYPE svg PUBLIC "-//W3C//DTD SVG 1.1//EN" "http://www.w3.org/Graphics/SVG/1.1/DTD/svg11.dtd">
<svg version="1.1" id="Layer_1" xmlns="http://www.w3.org/2000/svg" xmlns:xlink="http://www.w3.org/1999/xlink" x="0px" y="0px"
	 width="500px" height="500px" viewBox="0 0 500 500" enable-background="new 0 0 500 500" xml:space="preserve">
<g>
	<g>
		<polygon fill="#2D7AC3" points="53.965,136.821 250,23.641 446.035,136.821 446.035,363.18 250,476.36 53.965,363.18 		"/>
		<path fill="#4E8FCF" d="M446.035,136.821c0,0-251.565,95.216-305.684,276.234L250,476.36l196.034-113.18"/>
		<path fill="#77ACDE" d="M53.965,136.821c0,0,251.565,95.216,305.684,276.234L250,476.36L53.965,363.18"/>
	</g>
	<g>
		<path fill="#FFFFFF" d="M217.173,306.949l-6.152-16.172h-52.383l-6.152,16.523c-2.403,6.446-4.454,10.797-6.152,13.052
			c-1.7,2.255-4.482,3.384-8.35,3.384c-3.282,0-6.183-1.202-8.701-3.604c-2.52-2.402-3.779-5.126-3.779-8.174
			c0-1.758,0.292-3.573,0.879-5.449c0.585-1.875,1.552-4.482,2.9-7.822l32.959-83.672c0.937-2.402,2.065-5.287,3.384-8.657
			c1.318-3.369,2.725-6.166,4.219-8.394c1.494-2.226,3.457-4.028,5.889-5.405c2.431-1.376,5.434-2.065,9.009-2.065
			c3.632,0,6.665,0.689,9.097,2.065c2.431,1.377,4.395,3.15,5.889,5.317c1.494,2.168,2.753,4.498,3.779,6.987
			c1.024,2.491,2.329,5.816,3.911,9.976l33.662,83.145c2.637,6.328,3.955,10.929,3.955,13.799c0,2.988-1.246,5.728-3.735,8.218
			c-2.491,2.49-5.493,3.735-9.009,3.735c-2.052,0-3.81-0.367-5.273-1.099c-1.465-0.733-2.696-1.728-3.691-2.988
			c-0.997-1.259-2.065-3.193-3.208-5.801C218.975,311.242,217.993,308.941,217.173,306.949z M165.493,271.177h38.496l-19.424-53.174
			L165.493,271.177z"/>
		<path fill="#FFFFFF" d="M362.104,282.867c0,7.793-2.008,14.796-6.021,21.006c-4.014,6.211-9.888,11.074-17.622,14.59
			s-16.905,5.273-27.51,5.273c-12.715,0-23.203-2.402-31.465-7.207c-5.86-3.457-10.621-8.071-14.282-13.843
			c-3.663-5.771-5.493-11.382-5.493-16.831c0-3.164,1.099-5.874,3.296-8.13c2.197-2.255,4.995-3.384,8.394-3.384
			c2.753,0,5.083,0.879,6.987,2.637c1.903,1.758,3.529,4.366,4.878,7.822c1.64,4.102,3.413,7.53,5.317,10.283
			c1.903,2.755,4.584,5.025,8.042,6.812c3.457,1.788,7.998,2.681,13.623,2.681c7.734,0,14.019-1.802,18.853-5.405
			s7.251-8.1,7.251-13.491c0-4.276-1.305-7.748-3.911-10.415c-2.608-2.666-5.977-4.702-10.107-6.108s-9.654-2.9-16.567-4.482
			c-9.259-2.167-17.007-4.702-23.247-7.603s-11.192-6.855-14.854-11.865c-3.663-5.01-5.493-11.235-5.493-18.677
			c0-7.089,1.934-13.388,5.801-18.896c3.867-5.507,9.462-9.741,16.787-12.7c7.324-2.958,15.937-4.438,25.84-4.438
			c7.91,0,14.75,0.982,20.522,2.944c5.771,1.964,10.561,4.57,14.37,7.822c3.808,3.252,6.592,6.666,8.35,10.239
			c1.758,3.575,2.637,7.062,2.637,10.459c0,3.106-1.099,5.904-3.296,8.394c-2.197,2.491-4.937,3.735-8.218,3.735
			c-2.988,0-5.26-0.747-6.812-2.241c-1.553-1.494-3.238-3.94-5.054-7.339c-2.344-4.863-5.157-8.657-8.438-11.382
			c-3.282-2.725-8.556-4.087-15.82-4.087c-6.739,0-12.173,1.48-16.304,4.438c-4.131,2.959-6.196,6.519-6.196,10.679
			c0,2.579,0.703,4.805,2.109,6.68c1.406,1.876,3.34,3.487,5.801,4.834c2.461,1.349,4.951,2.403,7.471,3.164
			c2.519,0.762,6.68,1.876,12.48,3.34c7.265,1.7,13.843,3.575,19.731,5.625c5.889,2.052,10.898,4.542,15.029,7.471
			c4.131,2.931,7.353,6.636,9.668,11.118C360.947,270.87,362.104,276.363,362.104,282.867z"/>
	</g>
</g>
</svg>
