<?xml version="1.0" encoding="utf-8"?>
<!-- Generator: Adobe Illustrator 15.1.0, SVG Export Plug-In . SVG Version: 6.00 Build 0)  -->
<!DOCTYPE svg PUBLIC "-//W3C//DTD SVG 1.1//EN" "http://www.w3.org/Graphics/SVG/1.1/DTD/svg11.dtd">
<svg version="1.1" id="Layer_1" xmlns="http://www.w3.org/2000/svg" xmlns:xlink="http://www.w3.org/1999/xlink" x="0px" y="0px"
	 width="32px" height="32px" viewBox="0 0 32 32" enable-background="new 0 0 32 32" xml:space="preserve">
<g>
	<g>
		<g>
			<path fill="#FFFFFF" d="M12.289,15.767h-2.071l-0.823-2.142H5.625l-0.778,2.142h-2.02L6.5,6.338h2.013L12.289,15.767z
				 M8.783,12.037L7.484,8.538l-1.273,3.499H8.783z"/>
			<path fill="#FFFFFF" d="M13.298,15.767V6.338h3.055c1.158,0,1.912,0.047,2.264,0.142c0.541,0.142,0.993,0.449,1.357,0.923
				s0.547,1.086,0.547,1.836c0,0.579-0.105,1.065-0.315,1.46s-0.477,0.704-0.801,0.929c-0.323,0.225-0.652,0.375-0.987,0.447
				c-0.454,0.09-1.112,0.135-1.974,0.135h-1.242v3.557H13.298z M15.202,7.934v2.675h1.042c0.751,0,1.252-0.049,1.505-0.148
				s0.451-0.253,0.596-0.463c0.144-0.21,0.215-0.455,0.215-0.733c0-0.343-0.101-0.626-0.302-0.849
				c-0.202-0.223-0.457-0.362-0.766-0.418c-0.228-0.042-0.684-0.064-1.37-0.064H15.202z"/>
			<path fill="#FFFFFF" d="M22.083,15.767V6.338h3.055c1.158,0,1.912,0.047,2.264,0.142c0.541,0.142,0.993,0.449,1.357,0.923
				s0.547,1.086,0.547,1.836c0,0.579-0.105,1.065-0.315,1.46s-0.477,0.704-0.801,0.929c-0.323,0.225-0.652,0.375-0.987,0.447
				c-0.454,0.09-1.112,0.135-1.974,0.135h-1.241v3.557H22.083z M23.987,7.934v2.675h1.041c0.751,0,1.252-0.049,1.505-0.148
				s0.451-0.253,0.596-0.463c0.144-0.21,0.215-0.455,0.215-0.733c0-0.343-0.101-0.626-0.302-0.849
				c-0.202-0.223-0.457-0.362-0.766-0.418c-0.228-0.042-0.684-0.064-1.37-0.064H23.987z"/>
		</g>
	</g>
	<g>
		<g>
			<path fill="#27AAE1" d="M2.799,18.787h5.354v1.224l-3.437,3.583h3.562v1.315H2.47v-1.27l3.4-3.546H2.799V18.787z"/>
			<path fill="#27AAE1" d="M8.892,21.853c0-1,0.278-1.778,0.835-2.335c0.557-0.557,1.332-0.835,2.326-0.835
				c1.019,0,1.804,0.273,2.355,0.82c0.551,0.547,0.827,1.313,0.827,2.299c0,0.716-0.121,1.303-0.361,1.761s-0.589,0.814-1.044,1.069
				c-0.455,0.254-1.022,0.382-1.702,0.382c-0.69,0-1.262-0.11-1.714-0.33c-0.453-0.22-0.819-0.568-1.101-1.044
				C9.033,23.163,8.892,22.567,8.892,21.853z M10.784,21.86c0,0.618,0.115,1.063,0.344,1.332c0.23,0.271,0.542,0.405,0.938,0.405
				c0.407,0,0.721-0.132,0.944-0.396s0.334-0.739,0.334-1.424c0-0.576-0.117-0.998-0.349-1.264s-0.547-0.398-0.946-0.398
				c-0.381,0-0.688,0.135-0.918,0.405C10.899,20.79,10.784,21.237,10.784,21.86z"/>
			<path fill="#27AAE1" d="M16.268,18.787h1.767l2.305,3.387v-3.387h1.783v6.122h-1.783l-2.293-3.361v3.361h-1.778V18.787z"/>
			<path fill="#27AAE1" d="M23.375,18.787h5.07v1.307h-3.174v0.974h2.943v1.248h-2.943v1.207h3.266v1.387h-5.162V18.787z"/>
		</g>
	</g>
</g>
</svg>
