<?xml version="1.0" encoding="utf-8"?>
<!-- Generator: Adobe Illustrator 15.1.0, SVG Export Plug-In . SVG Version: 6.00 Build 0)  -->
<!DOCTYPE svg PUBLIC "-//W3C//DTD SVG 1.1//EN" "http://www.w3.org/Graphics/SVG/1.1/DTD/svg11.dtd">
<svg version="1.1" id="Layer_1" xmlns="http://www.w3.org/2000/svg" xmlns:xlink="http://www.w3.org/1999/xlink" x="0px" y="0px"
	 width="15px" height="15px" viewBox="0 0 15 15" enable-background="new 0 0 15 15" xml:space="preserve">
<g>
	<path fill="#FFFFFF" d="M8.729,4.217C9.278,4.562,9.664,5.145,9.734,5.82c0.224,0.105,0.472,0.165,0.735,0.165
		c0.963,0,1.742-0.779,1.742-1.741c0-0.963-0.779-1.742-1.742-1.742C9.517,2.502,8.744,3.268,8.729,4.217z M7.588,7.784
		c0.962,0,1.742-0.78,1.742-1.741c0-0.963-0.78-1.742-1.742-1.742S5.846,5.08,5.846,6.043C5.846,7.004,6.626,7.784,7.588,7.784z
		 M8.327,7.903H6.848c-1.229,0-2.23,1.001-2.23,2.23v1.808l0.005,0.028l0.125,0.039c1.173,0.367,2.193,0.489,3.033,0.489
		c1.64,0,2.589-0.468,2.647-0.498l0.117-0.058h0.012v-1.809C10.558,8.904,9.558,7.903,8.327,7.903z M11.209,6.104H9.742
		C9.726,6.692,9.476,7.219,9.08,7.601c1.093,0.324,1.893,1.339,1.893,2.536v0.557c1.448-0.054,2.283-0.464,2.338-0.491l0.116-0.06
		h0.013V8.335C13.439,7.105,12.438,6.104,11.209,6.104z M4.53,5.985c0.342,0,0.658-0.099,0.927-0.269
		C5.543,5.16,5.841,4.674,6.268,4.342C6.27,4.31,6.272,4.277,6.272,4.244c0-0.962-0.78-1.742-1.742-1.742s-1.741,0.78-1.741,1.742
		S3.568,5.985,4.53,5.985z M6.096,7.601c-0.395-0.38-0.645-0.903-0.663-1.488C5.379,6.109,5.325,6.104,5.27,6.104H3.791
		c-1.229,0-2.229,1.001-2.229,2.23v1.808l0.004,0.028l0.124,0.039c0.941,0.294,1.782,0.43,2.513,0.473v-0.546
		C4.202,8.939,5.002,7.926,6.096,7.601z"/>
</g>
</svg>
