<?xml version="1.0" encoding="utf-8"?>
<!-- Generator: Adobe Illustrator 15.1.0, SVG Export Plug-In . SVG Version: 6.00 Build 0)  -->
<!DOCTYPE svg PUBLIC "-//W3C//DTD SVG 1.1//EN" "http://www.w3.org/Graphics/SVG/1.1/DTD/svg11.dtd">
<svg version="1.1" id="Layer_1" xmlns="http://www.w3.org/2000/svg" xmlns:xlink="http://www.w3.org/1999/xlink" x="0px" y="0px"
	 width="32px" height="32px" viewBox="0 0 32 32" enable-background="new 0 0 32 32" xml:space="preserve">
<g>
	<g>
		<path fill="#FFFFFF" d="M3.279,6.338h3.479c0.785,0,1.383,0.06,1.794,0.18C9.106,6.682,9.58,6.971,9.974,7.387
			c0.395,0.416,0.695,0.925,0.9,1.527c0.206,0.603,0.309,1.345,0.309,2.229c0,0.776-0.097,1.445-0.29,2.007
			c-0.236,0.686-0.572,1.241-1.01,1.665c-0.33,0.322-0.776,0.572-1.338,0.753c-0.42,0.133-0.981,0.199-1.685,0.199H3.279V6.338z
			 M5.183,7.934v6.244h1.421c0.531,0,0.915-0.029,1.151-0.09c0.309-0.077,0.565-0.208,0.769-0.393
			c0.204-0.184,0.37-0.487,0.499-0.909c0.128-0.423,0.193-0.998,0.193-1.727S9.151,9.771,9.022,9.38s-0.309-0.694-0.54-0.913
			S7.957,8.101,7.601,8.023c-0.266-0.06-0.787-0.09-1.563-0.09H5.183z"/>
		<path fill="#FFFFFF" d="M12.797,15.767V6.338h6.992v1.595h-5.088v2.09h4.732v1.589h-4.732v2.565h5.268v1.589H12.797z"/>
		<path fill="#FFFFFF" d="M23.988,15.767l-3.371-9.428h2.064l2.387,6.978l2.309-6.978h2.02l-3.377,9.428H23.988z"/>
	</g>
</g>
<g>
	<g>
		<path fill="#27AAE1" d="M2.799,18.787h5.354v1.224l-3.437,3.583h3.562v1.315H2.47v-1.27l3.4-3.546H2.799V18.787z"/>
		<path fill="#27AAE1" d="M8.892,21.853c0-1,0.278-1.778,0.835-2.335c0.557-0.557,1.332-0.835,2.326-0.835
			c1.019,0,1.804,0.273,2.355,0.82c0.551,0.547,0.827,1.313,0.827,2.299c0,0.716-0.121,1.303-0.361,1.761s-0.589,0.814-1.044,1.069
			c-0.455,0.254-1.022,0.382-1.702,0.382c-0.69,0-1.262-0.11-1.714-0.33c-0.453-0.22-0.819-0.568-1.101-1.044
			C9.033,23.163,8.892,22.567,8.892,21.853z M10.784,21.86c0,0.618,0.115,1.063,0.344,1.332c0.23,0.271,0.542,0.405,0.938,0.405
			c0.407,0,0.721-0.132,0.944-0.396s0.334-0.739,0.334-1.424c0-0.576-0.117-0.998-0.349-1.264s-0.547-0.398-0.946-0.398
			c-0.381,0-0.688,0.135-0.918,0.405C10.899,20.79,10.784,21.237,10.784,21.86z"/>
		<path fill="#27AAE1" d="M16.268,18.787h1.767l2.305,3.387v-3.387h1.783v6.122h-1.783l-2.293-3.361v3.361h-1.778V18.787z"/>
		<path fill="#27AAE1" d="M23.375,18.787h5.07v1.307h-3.174v0.974h2.943v1.248h-2.943v1.207h3.266v1.387h-5.162V18.787z"/>
	</g>
</g>
</svg>
