<?xml version="1.0" encoding="utf-8"?>
<!-- Generator: Adobe Illustrator 15.1.0, SVG Export Plug-In . SVG Version: 6.00 Build 0)  -->
<!DOCTYPE svg PUBLIC "-//W3C//DTD SVG 1.1//EN" "http://www.w3.org/Graphics/SVG/1.1/DTD/svg11.dtd">
<svg version="1.1" id="Layer_1" xmlns="http://www.w3.org/2000/svg" xmlns:xlink="http://www.w3.org/1999/xlink" x="0px" y="0px"
	 width="15px" height="15px" viewBox="0 0 15 15" enable-background="new 0 0 15 15" xml:space="preserve">
<g id="Blank">
	<path fill="#FFFFFF" d="M4.984,6.364c0,0.107,0.086,0.194,0.193,0.194h4.657c0.108,0,0.194-0.087,0.194-0.194
		S9.943,6.17,9.835,6.17H5.178C5.07,6.17,4.984,6.256,4.984,6.364z"/>
	<path fill="#FFFFFF" d="M9.835,8.109H5.178c-0.107,0-0.193,0.088-0.193,0.195S5.07,8.498,5.178,8.498h4.657
		c0.108,0,0.194-0.086,0.194-0.193S9.943,8.109,9.835,8.109z"/>
	<path fill="#FFFFFF" d="M9.835,10.051H5.178c-0.107,0-0.193,0.088-0.193,0.193c0,0.109,0.086,0.195,0.193,0.195h4.657
		c0.108,0,0.194-0.086,0.194-0.195C10.029,10.139,9.943,10.051,9.835,10.051z"/>
	<path fill="#FFFFFF" d="M12.283,4.328L9.27,1.32C9.233,1.284,9.181,1.262,9.129,1.262l-5.88,0.001c-0.32,0-0.601,0.261-0.601,0.581
		v11.23c0,0.162,0.082,0.344,0.196,0.459c0.115,0.115,0.286,0.205,0.448,0.205h8.459c0.153,0,0.311-0.088,0.419-0.197
		c0.109-0.109,0.181-0.281,0.181-0.436v-8.64C12.352,4.414,12.319,4.364,12.283,4.328z M9.068,1.729l2.694,2.694h-2.7
		C9.078,2.676,9.079,2.072,9.068,1.729z M11.964,13.105c0,0.051-0.033,0.127-0.067,0.162c-0.036,0.035-0.095,0.082-0.145,0.082
		H3.293c-0.059,0-0.133-0.049-0.174-0.092c-0.041-0.041-0.082-0.125-0.082-0.184V1.844c0-0.106,0.104-0.193,0.21-0.193h5.426
		c0.01,0.49,0.005,1.959-0.006,2.908C8.666,4.612,8.688,4.69,8.725,4.726c0.037,0.037,0.089,0.085,0.141,0.085h3.099V13.105z"/>
</g>
</svg>
