<?xml version="1.0" encoding="utf-8"?>
<!-- Generator: Adobe Illustrator 15.1.0, SVG Export Plug-In . SVG Version: 6.00 Build 0)  -->
<!DOCTYPE svg PUBLIC "-//W3C//DTD SVG 1.1//EN" "http://www.w3.org/Graphics/SVG/1.1/DTD/svg11.dtd">
<svg version="1.1" id="Layer_1" xmlns="http://www.w3.org/2000/svg" xmlns:xlink="http://www.w3.org/1999/xlink" x="0px" y="0px"
	 width="500px" height="500px" viewBox="0 0 500 500" enable-background="new 0 0 500 500" xml:space="preserve">
<g>
	<g>
		<polygon fill="#2D7AC3" points="53.965,136.821 250,23.641 446.035,136.821 446.035,363.18 250,476.36 53.965,363.18 		"/>
		<path fill="#4E8FCF" d="M446.035,136.821c0,0-251.566,95.216-305.684,276.234L250,476.36l196.035-113.18"/>
		<path fill="#77ACDE" d="M53.965,136.821c0,0,251.566,95.216,305.684,276.234L250,476.36L53.965,363.18"/>
	</g>
	<g>
		<path fill="#FFFFFF" d="M123.93,215.015c-3.34,0-6.196-1.024-8.569-3.076c-2.373-2.05-3.56-4.951-3.56-8.701
			c0-3.397,1.215-6.196,3.647-8.394c2.431-2.197,5.258-3.296,8.481-3.296c3.105,0,5.858,0.997,8.262,2.988
			c2.402,1.993,3.604,4.893,3.604,8.701c0,3.691-1.173,6.578-3.516,8.657C129.936,213.976,127.152,215.015,123.93,215.015z
			 M135.795,239.8v69.346c0,4.805-1.143,8.438-3.428,10.898s-5.186,3.691-8.701,3.691s-6.372-1.261-8.569-3.779
			s-3.296-6.122-3.296-10.811v-68.643c0-4.746,1.099-8.319,3.296-10.723c2.197-2.402,5.054-3.604,8.569-3.604
			s6.416,1.202,8.701,3.604C134.653,232.184,135.795,235.524,135.795,239.8z"/>
		<path fill="#FFFFFF" d="M235.692,306.949l-6.152-16.172h-52.383l-6.152,16.523c-2.403,6.446-4.454,10.797-6.152,13.052
			c-1.7,2.255-4.482,3.384-8.35,3.384c-3.282,0-6.183-1.202-8.701-3.604c-2.52-2.402-3.779-5.126-3.779-8.174
			c0-1.758,0.292-3.573,0.879-5.449c0.585-1.875,1.552-4.482,2.9-7.822l32.959-83.672c0.937-2.402,2.065-5.287,3.384-8.657
			c1.318-3.369,2.725-6.166,4.219-8.394c1.494-2.226,3.457-4.028,5.889-5.405c2.431-1.376,5.434-2.065,9.009-2.065
			c3.632,0,6.665,0.689,9.097,2.065c2.431,1.377,4.395,3.15,5.889,5.317c1.494,2.168,2.753,4.498,3.779,6.987
			c1.024,2.491,2.329,5.816,3.911,9.976l33.662,83.145c2.637,6.328,3.955,10.929,3.955,13.799c0,2.988-1.246,5.728-3.735,8.218
			c-2.491,2.49-5.493,3.735-9.009,3.735c-2.052,0-3.81-0.367-5.273-1.099c-1.465-0.733-2.696-1.728-3.691-2.988
			c-0.997-1.259-2.065-3.193-3.208-5.801C237.494,311.242,236.512,308.941,235.692,306.949z M184.012,271.177h38.496l-19.424-53.174
			L184.012,271.177z"/>
		<path fill="#FFFFFF" d="M317.219,302.115l-20.654-82.09v88.945c0,4.922-1.099,8.613-3.296,11.074s-5.113,3.691-8.745,3.691
			c-3.516,0-6.387-1.217-8.613-3.647c-2.228-2.431-3.34-6.137-3.34-11.118V207.017c0-5.625,1.464-9.418,4.395-11.382
			c2.929-1.962,6.884-2.944,11.865-2.944h8.086c4.863,0,8.394,0.439,10.591,1.318s3.823,2.461,4.878,4.746s2.255,6.007,3.604,11.162
			l18.721,70.576l18.721-70.576c1.347-5.155,2.549-8.877,3.604-11.162s2.681-3.867,4.878-4.746s5.727-1.318,10.591-1.318h8.086
			c4.979,0,8.935,0.982,11.865,2.944c2.929,1.964,4.395,5.757,4.395,11.382V308.97c0,4.922-1.099,8.613-3.296,11.074
			s-5.142,3.691-8.833,3.691c-3.458,0-6.299-1.23-8.525-3.691c-2.228-2.461-3.34-6.152-3.34-11.074v-88.945l-20.654,82.09
			c-1.349,5.333-2.447,9.244-3.296,11.733c-0.85,2.491-2.417,4.761-4.702,6.812s-5.449,3.076-9.492,3.076
			c-3.047,0-5.625-0.659-7.734-1.978s-3.75-3.002-4.922-5.054c-1.173-2.05-2.096-4.32-2.769-6.812
			C318.61,307.403,317.922,304.811,317.219,302.115z"/>
	</g>
</g>
</svg>
