<?xml version="1.0" encoding="utf-8"?>
<!-- Generator: Adobe Illustrator 15.1.0, SVG Export Plug-In . SVG Version: 6.00 Build 0)  -->
<!DOCTYPE svg PUBLIC "-//W3C//DTD SVG 1.1//EN" "http://www.w3.org/Graphics/SVG/1.1/DTD/svg11.dtd">
<svg version="1.1" id="Layer_1" xmlns="http://www.w3.org/2000/svg" xmlns:xlink="http://www.w3.org/1999/xlink" x="0px" y="0px"
	 width="20px" height="20px" viewBox="0 0 20 20" enable-background="new 0 0 20 20" xml:space="preserve">
<path fill="#FFFFFF" d="M17.386,15.424c0,0,0,0-0.002,0c-0.004-0.01-0.007-0.015-0.007-0.015c-0.002,0-0.003,0-0.003,0
	c-1.205-2.28-8.187-2.063-5.493-5.855h0.001c0.367-1.498,0.457-2.629,0.457-2.629c0-2.623-1.421-3.182-2.231-3.288V3.624
	c0,0-0.105-0.013-0.275-0.009C9.663,3.609,9.559,3.624,9.559,3.624v0.013c-0.811,0.106-2.232,0.665-2.232,3.29
	c0,0,0.09,1.131,0.458,2.629h0.007c2.693,3.791-4.286,3.573-5.491,5.853c-0.004,0.001-0.007,0-0.011,0.001
	c0,0-0.449,1.011-0.54,1.926h16.168C17.832,16.484,17.439,15.554,17.386,15.424z"/>
</svg>
