<?xml version="1.0" encoding="utf-8"?>
<!-- Generator: Adobe Illustrator 15.1.0, SVG Export Plug-In . SVG Version: 6.00 Build 0)  -->
<!DOCTYPE svg PUBLIC "-//W3C//DTD SVG 1.1//EN" "http://www.w3.org/Graphics/SVG/1.1/DTD/svg11.dtd">
<svg version="1.1" id="Layer_1" xmlns="http://www.w3.org/2000/svg" xmlns:xlink="http://www.w3.org/1999/xlink" x="0px" y="0px"
	 width="20px" height="20px" viewBox="0 0 20 20" enable-background="new 0 0 20 20" xml:space="preserve">
<g>
	<path fill="#FFFFFF" d="M10,1.486c-4.702,0-8.514,3.812-8.514,8.514S5.298,18.514,10,18.514c4.704,0,8.515-3.812,8.515-8.514
		S14.704,1.486,10,1.486z M12.323,13.287c-0.42,0.471-1.024,0.746-1.814,0.829v1.205h-1.01v-1.198
		c-1.318-0.135-2.134-0.903-2.45-2.299l1.56-0.406c0.145,0.878,0.623,1.316,1.435,1.316c0.38,0,0.659-0.093,0.84-0.282
		c0.178-0.188,0.267-0.414,0.267-0.68c0-0.276-0.089-0.483-0.267-0.626c-0.181-0.143-0.578-0.323-1.194-0.54
		c-0.554-0.193-0.987-0.382-1.299-0.571c-0.313-0.187-0.565-0.45-0.76-0.788S7.338,8.514,7.338,8.064c0-0.59,0.174-1.12,0.521-1.592
		c0.347-0.471,0.894-0.759,1.64-0.863V4.679h1.01v0.931c1.126,0.135,1.855,0.771,2.187,1.912L11.307,8.09
		c-0.271-0.781-0.688-1.172-1.257-1.172c-0.284,0-0.513,0.088-0.685,0.262C9.192,7.355,9.106,7.566,9.106,7.814
		c0,0.254,0.083,0.449,0.249,0.584c0.165,0.137,0.522,0.304,1.067,0.504c0.599,0.219,1.068,0.426,1.407,0.619
		c0.342,0.195,0.613,0.464,0.816,0.807c0.204,0.342,0.305,0.743,0.305,1.2C12.951,12.232,12.741,12.818,12.323,13.287z"/>
</g>
</svg>
