<?xml version="1.0" encoding="utf-8"?>
<!-- Generator: Adobe Illustrator 15.1.0, SVG Export Plug-In . SVG Version: 6.00 Build 0)  -->
<!DOCTYPE svg PUBLIC "-//W3C//DTD SVG 1.0//EN" "http://www.w3.org/TR/2001/REC-SVG-20010904/DTD/svg10.dtd">
<svg version="1.0" id="Layer_1" xmlns="http://www.w3.org/2000/svg" xmlns:xlink="http://www.w3.org/1999/xlink" x="0px" y="0px"
	 width="20px" height="20px" viewBox="0 0 20 20" enable-background="new 0 0 20 20" xml:space="preserve">
<g>
	<circle fill="#FFFFFF" cx="3.783" cy="4.388" r="1.47"/>
	<circle fill="#FFFFFF" cx="16.656" cy="15.613" r="1.469"/>
	
		<rect x="9.037" y="8.044" transform="matrix(-0.7073 -0.7069 0.7069 -0.7073 10.7745 22.6132)" fill="#FFFFFF" width="2.063" height="2.064"/>
	<rect x="3.545" y="5.236" fill="#FFFFFF" width="0.477" height="3.873"/>
	<rect x="9.832" y="4.388" fill="#FFFFFF" width="0.475" height="3.874"/>
	<rect x="9.832" y="10.27" fill="#FFFFFF" width="0.475" height="4.805"/>
	<rect x="16.418" y="4.388" fill="#FFFFFF" width="0.475" height="3.874"/>
	<rect x="16.418" y="10.104" fill="#FFFFFF" width="0.475" height="4.516"/>
	<rect x="5.252" y="8.871" fill="#FFFFFF" width="3.874" height="0.477"/>
	<rect x="11.527" y="15.375" fill="#FFFFFF" width="3.875" height="0.477"/>
	<rect x="11.826" y="4.121" fill="#FFFFFF" width="5.066" height="0.476"/>
	<path fill="#FFFFFF" d="M5.541,9.76c0,0.189-0.154,0.344-0.344,0.344H2.368c-0.189,0-0.343-0.154-0.343-0.344V8.457
		c0-0.188,0.154-0.342,0.343-0.342h2.829c0.189,0,0.344,0.153,0.344,0.342V9.76z"/>
	<path fill="#FFFFFF" d="M18.414,9.76c0,0.189-0.154,0.344-0.344,0.344h-2.83c-0.189,0-0.344-0.154-0.344-0.344V8.457
		c0-0.188,0.154-0.342,0.344-0.342h2.83c0.189,0,0.344,0.153,0.344,0.342V9.76z"/>
	<path fill="#FFFFFF" d="M11.826,5.01c0,0.188-0.154,0.342-0.344,0.342H8.654c-0.189,0-0.343-0.153-0.343-0.342V3.707
		c0-0.189,0.153-0.344,0.343-0.344h2.828c0.191,0,0.346,0.154,0.346,0.344V5.01H11.826z"/>
	<path fill="#FFFFFF" d="M11.826,16.264c0,0.189-0.154,0.344-0.344,0.344H8.654c-0.189,0-0.343-0.154-0.343-0.344v-1.301
		c0-0.189,0.153-0.344,0.343-0.344h2.828c0.191,0,0.346,0.154,0.346,0.344v1.301H11.826z"/>
</g>
</svg>
