<?xml version="1.0" encoding="utf-8"?>
<!-- Generator: Adobe Illustrator 15.1.0, SVG Export Plug-In . SVG Version: 6.00 Build 0)  -->
<!DOCTYPE svg PUBLIC "-//W3C//DTD SVG 1.1//EN" "http://www.w3.org/Graphics/SVG/1.1/DTD/svg11.dtd">
<svg version="1.1" id="Layer_1" xmlns="http://www.w3.org/2000/svg" xmlns:xlink="http://www.w3.org/1999/xlink" x="0px" y="0px"
	 width="20px" height="20px" viewBox="0 0 20 20" enable-background="new 0 0 20 20" xml:space="preserve">
<path fill="#FFFFFF" d="M18.246,4.333c0-0.552-0.447-1-1-1H2.744c-0.552,0-1,0.448-1,1v1.897h16.502V4.333z"/>
<g>
	<path fill="#FFFFFF" d="M6.456,10.813c0,0.553-0.448,1-1,1H2.744c-0.552,0-1-0.447-1-1V9.188c0-0.552,0.448-1,1-1h2.711
		c0.552,0,1,0.448,1,1V10.813z"/>
	<path fill="#FFFFFF" d="M12.357,10.813c0,0.553-0.448,1-1,1H8.646c-0.552,0-1-0.447-1-1V9.188c0-0.552,0.448-1,1-1h2.712
		c0.552,0,1,0.448,1,1V10.813z"/>
	<path fill="#FFFFFF" d="M18.256,10.813c0,0.553-0.448,1-1,1h-2.712c-0.552,0-1-0.447-1-1V9.188c0-0.552,0.448-1,1-1h2.712
		c0.552,0,1,0.448,1,1V10.813z"/>
</g>
<g>
	<path fill="#FFFFFF" d="M6.456,15.668c0,0.553-0.448,1-1,1H2.744c-0.552,0-1-0.447-1-1v-1.625c0-0.552,0.448-1,1-1h2.711
		c0.552,0,1,0.448,1,1V15.668z"/>
	<path fill="#FFFFFF" d="M12.357,15.668c0,0.553-0.448,1-1,1H8.646c-0.552,0-1-0.447-1-1v-1.625c0-0.552,0.448-1,1-1h2.712
		c0.552,0,1,0.448,1,1V15.668z"/>
	<path fill="#FFFFFF" d="M18.256,15.668c0,0.553-0.448,1-1,1h-2.712c-0.552,0-1-0.447-1-1v-1.625c0-0.552,0.448-1,1-1h2.712
		c0.552,0,1,0.448,1,1V15.668z"/>
</g>
</svg>
