<?xml version="1.0" encoding="utf-8"?>
<!-- Generator: Adobe Illustrator 15.1.0, SVG Export Plug-In . SVG Version: 6.00 Build 0)  -->
<!DOCTYPE svg PUBLIC "-//W3C//DTD SVG 1.1//EN" "http://www.w3.org/Graphics/SVG/1.1/DTD/svg11.dtd">
<svg version="1.1" xmlns="http://www.w3.org/2000/svg" xmlns:xlink="http://www.w3.org/1999/xlink" x="0px" y="0px" width="20px"
	 height="20px" viewBox="0 0 20 20" enable-background="new 0 0 20 20" xml:space="preserve">
<g id="Layer_1">
</g>
<g id="Layer_2">
	<path fill="#FFFFFF" d="M14.05,2.821H5.948c-1.104,0-1.999,0.896-1.999,2v11.033c0,1.105,0.895,2,1.999,2h8.102
		c1.105,0,2-0.895,2-2V4.821C16.05,3.717,15.155,2.821,14.05,2.821z M6.444,6.94L6.84,6.55c0.11-0.111,0.279-0.111,0.39,0
		l0.031,0.026l1.54,1.653c0.054,0.057,0.138,0.057,0.192,0l3.746-3.892h0.031c0.111-0.112,0.279-0.112,0.391,0l0.391,0.392
		c0.111,0.113,0.111,0.279,0,0.393L9.075,9.769C9.019,9.821,8.964,9.851,8.88,9.851c-0.082,0-0.141-0.029-0.194-0.082L6.5,7.415
		L6.444,7.332C6.39,7.278,6.362,7.19,6.362,7.137C6.362,7.079,6.39,6.995,6.444,6.94z M14.302,16.354H5.697v-1.65h8.604V16.354z
		 M14.302,13.354H5.697v-1.65h8.604V13.354z"/>
</g>
</svg>
