<?xml version="1.0" encoding="utf-8"?>
<!-- Generator: Adobe Illustrator 15.1.0, SVG Export Plug-In . SVG Version: 6.00 Build 0)  -->
<!DOCTYPE svg PUBLIC "-//W3C//DTD SVG 1.1//EN" "http://www.w3.org/Graphics/SVG/1.1/DTD/svg11.dtd">
<svg version="1.1" xmlns="http://www.w3.org/2000/svg" xmlns:xlink="http://www.w3.org/1999/xlink" x="0px" y="0px" width="20px"
	 height="20px" viewBox="0 0 20 20" enable-background="new 0 0 20 20" xml:space="preserve">
<g id="Layer_1">
</g>
<g id="Layer_2">
	<g>
		<path fill="#FFFFFF" d="M14.541,17.336L14.541,17.336h3.658c0-2.631-2.271-2.674-2.844-3.34l-0.068-0.363
			c0.723-0.377,1.23-1.268,1.23-2.305c0-1.38-0.896-2.498-2.004-2.498c-1.105,0-2.004,1.118-2.004,2.498
			c0,1.047,0.518,1.943,1.25,2.314l-0.059,0.318c-0.521,0.699-2.871,0.699-2.871,3.375h3.658H14.541z"/>
		<path fill="#FFFFFF" d="M8.203,17.336L8.203,17.336h6.311c0-4.539-3.918-4.613-4.904-5.762l-0.117-0.627
			c1.246-0.649,2.123-2.184,2.123-3.975c0-2.38-1.547-4.309-3.457-4.309c-1.908,0-3.457,1.929-3.457,4.309
			c0,1.806,0.893,3.351,2.156,3.99l-0.104,0.551c-0.898,1.207-4.951,1.205-4.951,5.822h6.311H8.203z"/>
	</g>
</g>
</svg>
