<?xml version="1.0" encoding="utf-8"?>
<!-- Generator: Adobe Illustrator 15.1.0, SVG Export Plug-In . SVG Version: 6.00 Build 0)  -->
<!DOCTYPE svg PUBLIC "-//W3C//DTD SVG 1.1//EN" "http://www.w3.org/Graphics/SVG/1.1/DTD/svg11.dtd">
<svg version="1.1" xmlns="http://www.w3.org/2000/svg" xmlns:xlink="http://www.w3.org/1999/xlink" x="0px" y="0px" width="20px"
	 height="20px" viewBox="0 0 20 20" enable-background="new 0 0 20 20" xml:space="preserve">
<g id="Layer_1">
	<g>
		<path fill="#FFFFFF" d="M13.685,16.85c0,0.368-0.299,0.667-0.667,0.667H7.019c-0.368,0-0.667-0.299-0.667-0.667l0,0
			c0-0.368,0.299-0.667,0.667-0.667h5.999C13.386,16.183,13.685,16.481,13.685,16.85L13.685,16.85z"/>
		<path fill="#FFFFFF" d="M11.519,16.017c0,0.828-0.672,1.5-1.5,1.5l0,0c-0.828,0-1.5-0.672-1.5-1.5v-1.5c0-0.828,0.671-1.5,1.5-1.5
			l0,0c0.829,0,1.5,0.672,1.5,1.5V16.017z"/>
	</g>
	<path fill="#FFFFFF" d="M2.001,13.293c0,1.09,1.148,1.974,2.564,1.974h10.905c1.416,0,2.564-0.884,2.564-1.974v-0.276H2.001V13.293
		z"/>
</g>
<g id="Layer_2">
	<path fill="#FFFFFF" d="M15.471,2.483H4.565c-1.417,0-2.564,1.148-2.564,2.564v7.296h2.541V4.625h3.792v7.719h3.184v-4.01h3.792
		v4.01h2.726V5.048C18.035,3.631,16.887,2.483,15.471,2.483z"/>
</g>
</svg>
