<?xml version="1.0" encoding="utf-8"?>
<!-- Generator: Adobe Illustrator 15.1.0, SVG Export Plug-In . SVG Version: 6.00 Build 0)  -->
<!DOCTYPE svg PUBLIC "-//W3C//DTD SVG 1.0//EN" "http://www.w3.org/TR/2001/REC-SVG-20010904/DTD/svg10.dtd">
<svg version="1.0" id="Layer_1" xmlns="http://www.w3.org/2000/svg" xmlns:xlink="http://www.w3.org/1999/xlink" x="0px" y="0px"
	 width="20px" height="20px" viewBox="0 0 20 20" enable-background="new 0 0 20 20" xml:space="preserve">
<g>
	<path fill="#FEFEFE" d="M14.768,8.611h-0.283V7.293c0-2.438-1.934-4.475-4.352-4.519c-0.066-0.001-0.199-0.001-0.266,0
		C7.449,2.818,5.514,4.855,5.514,7.293v1.318H5.232c-0.434,0-0.787,0.447-0.787,1.001v6.61c0,0.555,0.354,1.006,0.787,1.006h9.535
		c0.434,0,0.787-0.451,0.787-1.006v-6.61C15.555,9.059,15.201,8.611,14.768,8.611z M10.893,12.912v1.996
		c0,0.229-0.191,0.424-0.42,0.424H9.527c-0.229,0-0.42-0.195-0.42-0.424v-1.996c-0.223-0.221-0.352-0.521-0.352-0.855
		c0-0.635,0.49-1.18,1.111-1.203c0.066-0.002,0.199-0.002,0.266,0c0.623,0.023,1.111,0.568,1.111,1.203
		C11.244,12.391,11.115,12.691,10.893,12.912z M12.629,8.611h-2.496H9.867H7.371V7.293c0-1.452,1.18-2.653,2.629-2.653
		s2.629,1.201,2.629,2.653V8.611L12.629,8.611z"/>
</g>
</svg>
