<?xml version="1.0" encoding="utf-8"?>
<!-- Generator: Adobe Illustrator 15.1.0, SVG Export Plug-In . SVG Version: 6.00 Build 0)  -->
<!DOCTYPE svg PUBLIC "-//W3C//DTD SVG 1.0//EN" "http://www.w3.org/TR/2001/REC-SVG-20010904/DTD/svg10.dtd">
<svg version="1.0" id="Layer_1" xmlns="http://www.w3.org/2000/svg" xmlns:xlink="http://www.w3.org/1999/xlink" x="0px" y="0px"
	 width="20px" height="20px" viewBox="0 0 20 20" enable-background="new 0 0 20 20" xml:space="preserve">
<g>
	<circle fill="#FFFFFF" cx="15.58" cy="16.542" r="1.47"/>
	<circle fill="#FFFFFF" cx="2.707" cy="5.316" r="1.469"/>
	<rect x="15.342" y="11.82" fill="#FFFFFF" width="0.477" height="3.873"/>
	<rect x="9.057" y="12.668" fill="#FFFFFF" width="0.475" height="3.873"/>
	<rect x="2.471" y="12.668" fill="#FFFFFF" width="0.475" height="3.873"/>
	<rect x="2.471" y="6.311" fill="#FFFFFF" width="0.475" height="4.516"/>
	<rect x="10.238" y="11.582" fill="#FFFFFF" width="3.873" height="0.477"/>
	<rect x="3.96" y="5.078" fill="#FFFFFF" width="7.092" height="0.477"/>
	<rect x="2.471" y="16.332" fill="#FFFFFF" width="5.066" height="0.477"/>
	<path fill="#FFFFFF" d="M0.949,11.17c0-0.189,0.154-0.344,0.344-0.344h2.83c0.189,0,0.344,0.154,0.344,0.344v1.303
		c0,0.188-0.154,0.342-0.344,0.342h-2.83c-0.189,0-0.344-0.154-0.344-0.342V11.17z"/>
	<path fill="#FFFFFF" d="M7.537,15.92c0-0.189,0.154-0.342,0.344-0.342h2.828c0.189,0,0.344,0.152,0.344,0.342v1.303
		c0,0.189-0.154,0.344-0.344,0.344H7.881c-0.191,0-0.346-0.154-0.346-0.344V15.92H7.537z"/>
	<path fill="#FFFFFF" d="M18.619,11.596c0,0,0,0-0.002,0c-0.003-0.008-0.007-0.012-0.007-0.012c-0.001,0-0.001,0-0.001,0
		c-0.981-1.854-6.659-1.679-4.469-4.763l0,0c0.3-1.22,0.375-2.14,0.375-2.14c0-2.133-1.158-2.588-1.816-2.672V1.997
		c0,0-0.086-0.009-0.225-0.007c-0.137-0.004-0.222,0.007-0.222,0.007V2.01c-0.659,0.083-1.817,0.539-1.817,2.676
		c0,0,0.075,0.92,0.371,2.137h0.008c2.19,3.083-3.487,2.907-4.468,4.762c-0.004,0-0.006,0-0.01,0c0,0-0.365,0.822-0.438,1.568
		h13.153C18.982,12.461,18.663,11.703,18.619,11.596z"/>
</g>
</svg>
