<?xml version="1.0" encoding="utf-8"?>
<!-- Generator: Adobe Illustrator 15.1.0, SVG Export Plug-In . SVG Version: 6.00 Build 0)  -->
<!DOCTYPE svg PUBLIC "-//W3C//DTD SVG 1.1//EN" "http://www.w3.org/Graphics/SVG/1.1/DTD/svg11.dtd">
<svg version="1.1" id="Layer_1" xmlns="http://www.w3.org/2000/svg" xmlns:xlink="http://www.w3.org/1999/xlink" x="0px" y="0px"
	 width="500px" height="500px" viewBox="0 0 500 500" enable-background="new 0 0 500 500" xml:space="preserve">
<g>
	<g>
		<polygon fill="#2D7AC3" points="53.965,136.821 250,23.641 446.035,136.821 446.035,363.18 250,476.36 53.965,363.18 		"/>
		<path fill="#4E8FCF" d="M446.035,136.821c0,0-251.565,95.216-305.684,276.234L250,476.36l196.034-113.18"/>
		<path fill="#77ACDE" d="M53.965,136.821c0,0,251.565,95.216,305.684,276.234L250,476.36L53.965,363.18"/>
	</g>
	<g>
		<path fill="#FFFFFF" d="M178.238,302.114l-20.654-82.09v88.945c0,4.922-1.099,8.613-3.296,11.074s-5.113,3.691-8.745,3.691
			c-3.516,0-6.387-1.217-8.613-3.647c-2.228-2.431-3.34-6.137-3.34-11.118V207.017c0-5.625,1.464-9.418,4.395-11.382
			c2.929-1.962,6.884-2.944,11.865-2.944h8.086c4.863,0,8.394,0.439,10.591,1.318s3.823,2.461,4.878,4.746s2.255,6.007,3.604,11.162
			l18.721,70.576l18.721-70.576c1.347-5.155,2.549-8.877,3.604-11.162s2.681-3.867,4.878-4.746s5.727-1.318,10.591-1.318h8.086
			c4.979,0,8.935,0.982,11.865,2.944c2.929,1.964,4.395,5.757,4.395,11.382V308.97c0,4.922-1.099,8.613-3.296,11.074
			s-5.142,3.691-8.833,3.691c-3.458,0-6.299-1.23-8.525-3.691c-2.228-2.461-3.34-6.152-3.34-11.074v-88.945l-20.654,82.09
			c-1.349,5.333-2.447,9.244-3.296,11.733c-0.85,2.491-2.417,4.761-4.702,6.812s-5.449,3.076-9.492,3.076
			c-3.047,0-5.625-0.659-7.734-1.978s-3.75-3.002-4.922-5.054c-1.173-2.05-2.096-4.32-2.769-6.812
			C179.629,307.403,178.941,304.81,178.238,302.114z"/>
		<path fill="#FFFFFF" d="M361.666,212.817H310.25v32.959h42.979c3.984,0,6.957,0.894,8.921,2.681
			c1.962,1.788,2.944,4.175,2.944,7.163s-0.997,5.361-2.988,7.119c-1.993,1.758-4.952,2.637-8.877,2.637H310.25v42.451
			c0,5.392-1.217,9.391-3.647,11.997c-2.432,2.606-5.552,3.911-9.36,3.911c-3.867,0-7.018-1.318-9.448-3.955
			c-2.432-2.637-3.647-6.621-3.647-11.953v-99.141c0-3.749,0.556-6.812,1.67-9.185c1.112-2.373,2.856-4.101,5.229-5.186
			c2.373-1.083,5.405-1.626,9.097-1.626h61.523c4.16,0,7.251,0.923,9.272,2.769s3.032,4.263,3.032,7.251
			c0,3.047-1.011,5.493-3.032,7.339S365.825,212.817,361.666,212.817z"/>
	</g>
</g>
</svg>
