<?xml version="1.0" encoding="utf-8"?>
<!-- Generator: Adobe Illustrator 15.1.0, SVG Export Plug-In . SVG Version: 6.00 Build 0)  -->
<!DOCTYPE svg PUBLIC "-//W3C//DTD SVG 1.1//EN" "http://www.w3.org/Graphics/SVG/1.1/DTD/svg11.dtd">
<svg version="1.1" id="Layer_1" xmlns="http://www.w3.org/2000/svg" xmlns:xlink="http://www.w3.org/1999/xlink" x="0px" y="0px"
	 width="500px" height="500px" viewBox="0 0 500 500" enable-background="new 0 0 500 500" xml:space="preserve">
<g>
	<g>
		<polygon fill="#2D7AC3" points="53.966,136.82 250,23.64 446.035,136.82 446.035,363.18 250,476.359 53.966,363.18 		"/>
		<path fill="#4E8FCF" d="M446.035,136.82c0,0-251.565,95.216-305.684,276.233l109.649,63.306l196.034-113.18"/>
		<path fill="#77ACDE" d="M53.966,136.82c0,0,251.565,95.216,305.684,276.233L250,476.359L53.966,363.18"/>
	</g>
	<g>
		<path fill="#FFFFFF" d="M161.319,302.114l-20.654-82.09v88.945c0,4.922-1.099,8.613-3.296,11.074s-5.113,3.691-8.745,3.691
			c-3.516,0-6.387-1.217-8.613-3.647c-2.228-2.431-3.34-6.137-3.34-11.118V207.017c0-5.625,1.464-9.418,4.395-11.382
			c2.929-1.962,6.884-2.944,11.865-2.944h8.086c4.863,0,8.394,0.439,10.591,1.318s3.823,2.461,4.878,4.746s2.255,6.007,3.604,11.162
			l18.721,70.576l18.721-70.576c1.347-5.155,2.549-8.877,3.604-11.162s2.681-3.867,4.878-4.746s5.727-1.318,10.591-1.318h8.086
			c4.979,0,8.935,0.982,11.865,2.944c2.929,1.964,4.395,5.757,4.395,11.382V308.97c0,4.922-1.099,8.613-3.296,11.074
			s-5.142,3.691-8.833,3.691c-3.458,0-6.299-1.23-8.525-3.691c-2.228-2.461-3.34-6.152-3.34-11.074v-88.945l-20.654,82.09
			c-1.349,5.333-2.447,9.244-3.296,11.733c-0.85,2.491-2.417,4.761-4.702,6.812s-5.449,3.076-9.492,3.076
			c-3.047,0-5.625-0.659-7.734-1.978s-3.75-3.002-4.922-5.054c-1.173-2.05-2.096-4.32-2.769-6.812
			C162.71,307.403,162.022,304.81,161.319,302.114z"/>
		<path fill="#FFFFFF" d="M324.444,190.493c13.359,0,24.829,2.711,34.409,8.13c9.58,5.42,16.831,13.126,21.753,23.115
			c4.922,9.991,7.383,21.724,7.383,35.2c0,9.962-1.349,19.015-4.043,27.158c-2.696,8.145-6.739,15.205-12.129,21.182
			c-5.392,5.977-12.012,10.547-19.863,13.711c-7.853,3.164-16.846,4.746-26.982,4.746c-10.079,0-19.103-1.626-27.07-4.878
			c-7.969-3.252-14.62-7.836-19.951-13.755c-5.333-5.917-9.36-13.037-12.085-21.357c-2.725-8.319-4.087-17.314-4.087-26.982
			c0-9.901,1.42-18.984,4.263-27.246c2.841-8.262,6.957-15.293,12.349-21.094c5.39-5.801,11.953-10.239,19.688-13.315
			S314.6,190.493,324.444,190.493z M361.534,256.763c0-9.433-1.524-17.607-4.57-24.521c-3.047-6.913-7.398-12.143-13.052-15.688
			c-5.655-3.544-12.144-5.317-19.468-5.317c-5.216,0-10.035,0.982-14.458,2.944c-4.425,1.964-8.233,4.82-11.426,8.569
			c-3.194,3.75-5.713,8.541-7.559,14.37c-1.846,5.831-2.769,12.379-2.769,19.644c0,7.325,0.923,13.946,2.769,19.863
			c1.846,5.919,4.452,10.826,7.822,14.722c3.369,3.897,7.236,6.812,11.602,8.745c4.364,1.934,9.154,2.9,14.37,2.9
			c6.68,0,12.817-1.67,18.413-5.01c5.595-3.34,10.048-8.495,13.359-15.469C359.877,275.542,361.534,266.958,361.534,256.763z"/>
	</g>
</g>
</svg>
