<?xml version="1.0" encoding="utf-8"?>
<!-- Generator: Adobe Illustrator 15.1.0, SVG Export Plug-In . SVG Version: 6.00 Build 0)  -->
<!DOCTYPE svg PUBLIC "-//W3C//DTD SVG 1.1//EN" "http://www.w3.org/Graphics/SVG/1.1/DTD/svg11.dtd">
<svg version="1.1" id="Layer_1" xmlns="http://www.w3.org/2000/svg" xmlns:xlink="http://www.w3.org/1999/xlink" x="0px" y="0px"
	 width="150px" height="50px" viewBox="0 0 150 50" enable-background="new 0 0 150 50" xml:space="preserve">
<path fill="#C17BFF" d="M49.254,18.322c0,1.249-1.013,2.262-2.262,2.262H23.158c-1.249,0-2.262-1.013-2.262-2.262l0,0
	c0-1.249,1.013-2.26,2.262-2.26h23.834C48.241,16.062,49.254,17.073,49.254,18.322L49.254,18.322z"/>
<path fill="#E3FF7D" d="M49.254,25.148c0,1.25-1.013,2.262-2.262,2.262H23.158c-1.249,0-2.262-1.012-2.262-2.262l0,0
	c0-1.248,1.013-2.261,2.262-2.261h23.834C48.241,22.888,49.254,23.9,49.254,25.148L49.254,25.148z"/>
<path fill="#A9E0FF" d="M49.254,31.944c0,1.25-1.013,2.26-2.262,2.26H23.158c-1.249,0-2.262-1.01-2.262-2.26l0,0
	c0-1.25,1.013-2.264,2.262-2.264h23.834C48.241,29.681,49.254,30.694,49.254,31.944L49.254,31.944z"/>
</svg>
