<?xml version="1.0" encoding="utf-8"?>
<!-- Generator: Adobe Illustrator 15.1.0, SVG Export Plug-In . SVG Version: 6.00 Build 0)  -->
<!DOCTYPE svg PUBLIC "-//W3C//DTD SVG 1.1//EN" "http://www.w3.org/Graphics/SVG/1.1/DTD/svg11.dtd">
<svg version="1.1" id="Layer_1" xmlns="http://www.w3.org/2000/svg" xmlns:xlink="http://www.w3.org/1999/xlink" x="0px" y="0px"
	 width="138px" height="26.079px" viewBox="0 0 138 26.079" enable-background="new 0 0 138 26.079" xml:space="preserve">
<g>
	<path fill="#FFFFFF" d="M23.413,6.074c-0.774-0.908-1.736-1.6-2.886-2.074c-1.151-0.473-2.461-0.711-3.931-0.711
		c-1.489,0-2.804,0.238-3.945,0.711c-1.141,0.474-2.107,1.16-2.899,2.06C8.958,6.958,8.359,8.056,7.953,9.352
		c-0.406,1.295-0.608,2.755-0.608,4.379c0,3.268,0.798,5.771,2.392,7.512c1.596,1.741,3.882,2.611,6.86,2.611
		c2.978,0,5.254-0.841,6.83-2.524c1.575-1.682,2.364-4.186,2.364-7.512c0-1.643-0.203-3.117-0.609-4.423
		C24.775,8.089,24.186,6.983,23.413,6.074 M21.411,16.776c-0.271,0.832-0.643,1.513-1.116,2.045c-0.475,0.532-1.03,0.929-1.668,1.19
		c-0.639,0.26-1.315,0.391-2.03,0.391c-1.682,0-2.983-0.527-3.9-1.581c-0.919-1.054-1.378-2.721-1.378-5.003
		c0-2.281,0.453-4.012,1.362-5.191c0.909-1.179,2.214-1.769,3.916-1.769c1.701,0,2.997,0.59,3.887,1.769
		c0.889,1.18,1.334,2.911,1.334,5.191C21.817,14.958,21.682,15.945,21.411,16.776"/>
	<polygon fill="#FFFFFF" points="40.264,16.312 32.606,3.927 28.343,3.927 28.343,23.186 32.084,23.186 32.084,10.251 
		40.321,23.186 44.034,23.186 44.034,3.927 40.264,3.927 	"/>
	<polygon fill="#FFFFFF" points="50.705,14.804 60.131,14.804 60.131,11.41 50.705,11.41 50.705,7.292 60.943,7.292 60.943,3.927 
		46.789,3.927 46.789,23.186 61.407,23.186 61.407,19.763 50.705,19.763 	"/>
	<polygon fill="#FFFFFF" points="80.23,16.398 77.302,3.927 73.066,3.927 70.398,16.398 67.236,3.927 62.944,3.927 68.396,23.186 
		72.168,23.186 75.213,10.656 78.201,23.186 82.087,23.186 87.481,3.927 83.363,3.927 	"/>
	<polygon fill="#FFFFFF" points="93.601,19.763 93.601,14.804 103.027,14.804 103.027,11.411 93.601,11.411 93.601,7.292 
		103.84,7.292 103.84,3.927 89.686,3.927 89.686,23.186 104.304,23.186 104.304,19.763 	"/>
	<path fill="#27AAE1" d="M127.784,0.405h-19.527c-1.578,0-2.871,1.292-2.871,2.871v19.527c0,1.579,1.293,2.871,2.871,2.871h19.527
		c1.579,0,2.871-1.292,2.871-2.871V3.276C130.655,1.697,129.363,0.405,127.784,0.405 M127.254,16.867
		c0,3.167-2.575,5.743-5.741,5.743h-2.373h-0.957h-2.828h-4.984v-3.829h4.984h2.828h0.957h2.373c1.056,0,1.914-0.858,1.914-1.914
		s-0.858-1.914-1.914-1.914h-2.373h-0.957h-2.828h-4.984v-3.828h4.984h2.828h0.957h2.373c1.056,0,1.914-0.858,1.914-1.914
		c0-1.056-0.858-1.915-1.914-1.915h-2.373h-0.957h-2.828h-4.984V3.469h4.984h2.828h0.957h2.373c3.166,0,5.741,2.576,5.741,5.743
		c0,1.471-0.56,2.811-1.474,3.828C126.694,14.056,127.254,15.396,127.254,16.867"/>
</g>
</svg>
