<?xml version="1.0" encoding="utf-8"?>
<!-- Generator: Adobe Illustrator 15.1.0, SVG Export Plug-In . SVG Version: 6.00 Build 0)  -->
<!DOCTYPE svg PUBLIC "-//W3C//DTD SVG 1.1//EN" "http://www.w3.org/Graphics/SVG/1.1/DTD/svg11.dtd">
<svg version="1.1" id="Layer_1" xmlns="http://www.w3.org/2000/svg" xmlns:xlink="http://www.w3.org/1999/xlink" x="0px" y="0px"
	 width="31px" height="26.079px" viewBox="102.167 0 31 26.079" enable-background="new 102.167 0 31 26.079" xml:space="preserve">
<path fill="#27AAE1" d="M127.431,0.405h-19.527c-1.577,0-2.87,1.292-2.87,2.871v19.527c0,1.578,1.293,2.871,2.87,2.871h19.527
	c1.579,0,2.87-1.293,2.87-2.871V3.276C130.301,1.697,129.01,0.405,127.431,0.405 M126.9,16.868c0,3.166-2.574,5.742-5.74,5.742
	h-2.373h-0.957h-2.828h-4.984v-3.828h4.984h2.828h0.957h2.373c1.055,0,1.913-0.859,1.913-1.914c0-1.057-0.858-1.914-1.913-1.914
	h-2.373h-0.957h-2.828h-4.984v-3.829h4.984h2.828h0.957h2.373c1.055,0,1.913-0.857,1.913-1.914c0-1.056-0.858-1.915-1.913-1.915
	h-2.373h-0.957h-2.828h-4.984V3.468h4.984h2.828h0.957h2.373c3.166,0,5.74,2.576,5.74,5.743c0,1.472-0.561,2.812-1.475,3.828
	C126.34,14.056,126.9,15.396,126.9,16.868"/>
</svg>
