<?xml version="1.0" encoding="utf-8"?>
<!-- Generator: Adobe Illustrator 15.1.0, SVG Export Plug-In . SVG Version: 6.00 Build 0)  -->
<!DOCTYPE svg PUBLIC "-//W3C//DTD SVG 1.1//EN" "http://www.w3.org/Graphics/SVG/1.1/DTD/svg11.dtd">
<svg version="1.1" id="Layer_1" xmlns="http://www.w3.org/2000/svg" xmlns:xlink="http://www.w3.org/1999/xlink" x="0px" y="0px"
	 width="500px" height="500px" viewBox="0 0 500 500" enable-background="new 0 0 500 500" xml:space="preserve">
<g>
	<g>
		<polygon fill="#2D7AC3" points="53.965,136.821 249.999,23.641 446.034,136.821 446.034,363.18 249.999,476.36 53.965,363.18 		
			"/>
		<path fill="#4E8FCF" d="M446.034,136.821c0,0-251.565,95.216-305.684,276.234L250,476.36l196.034-113.18"/>
		<path fill="#77ACDE" d="M53.965,136.821c0,0,251.565,95.216,305.684,276.234L249.999,476.36L53.965,363.18"/>
	</g>
	<g>
		<path fill="#FFFFFF" d="M197.221,271.353h-23.906v36.475c0,5.216-1.23,9.171-3.691,11.865s-5.567,4.043-9.316,4.043
			c-3.926,0-7.09-1.333-9.492-3.999c-2.403-2.666-3.604-6.577-3.604-11.733v-99.316c0-5.742,1.318-9.844,3.955-12.305
			s6.825-3.691,12.568-3.691h33.486c9.901,0,17.519,0.762,22.852,2.285c5.273,1.465,9.829,3.897,13.667,7.295
			c3.837,3.399,6.752,7.559,8.745,12.48c1.991,4.922,2.988,10.459,2.988,16.611c0,13.126-4.043,23.071-12.129,29.839
			S213.217,271.353,197.221,271.353z M190.893,212.291h-17.578v39.375h17.578c6.152,0,11.294-0.644,15.425-1.934
			c4.131-1.288,7.28-3.397,9.448-6.328c2.167-2.929,3.252-6.768,3.252-11.514c0-5.683-1.67-10.312-5.01-13.887
			C210.258,214.195,202.552,212.291,190.893,212.291z"/>
		<path fill="#FFFFFF" d="M333.891,306.949l-6.152-16.172h-52.383l-6.152,16.523c-2.403,6.446-4.454,10.797-6.152,13.052
			c-1.7,2.255-4.482,3.384-8.35,3.384c-3.282,0-6.183-1.202-8.701-3.604c-2.52-2.402-3.779-5.126-3.779-8.174
			c0-1.758,0.292-3.573,0.879-5.449c0.585-1.875,1.552-4.482,2.9-7.822l32.959-83.672c0.937-2.402,2.065-5.287,3.384-8.657
			c1.318-3.369,2.725-6.166,4.219-8.394c1.494-2.226,3.457-4.028,5.889-5.405c2.431-1.376,5.434-2.065,9.009-2.065
			c3.632,0,6.665,0.689,9.097,2.065c2.431,1.377,4.395,3.15,5.889,5.317c1.494,2.168,2.753,4.498,3.779,6.987
			c1.024,2.491,2.329,5.816,3.911,9.976l33.662,83.145c2.637,6.328,3.955,10.929,3.955,13.799c0,2.988-1.246,5.728-3.735,8.218
			c-2.491,2.49-5.493,3.735-9.009,3.735c-2.052,0-3.81-0.367-5.273-1.099c-1.465-0.733-2.696-1.728-3.691-2.988
			c-0.997-1.259-2.065-3.193-3.208-5.801C335.693,311.242,334.711,308.941,333.891,306.949z M282.211,271.177h38.496l-19.424-53.174
			L282.211,271.177z"/>
	</g>
</g>
</svg>
