<?xml version="1.0" encoding="utf-8"?>
<!-- Generator: Adobe Illustrator 15.1.0, SVG Export Plug-In . SVG Version: 6.00 Build 0)  -->
<!DOCTYPE svg PUBLIC "-//W3C//DTD SVG 1.1//EN" "http://www.w3.org/Graphics/SVG/1.1/DTD/svg11.dtd">
<svg version="1.1" id="Layer_1" xmlns="http://www.w3.org/2000/svg" xmlns:xlink="http://www.w3.org/1999/xlink" x="0px" y="0px"
	 width="500px" height="500px" viewBox="0 0 500 500" enable-background="new 0 0 500 500" xml:space="preserve">
<g>
	<g>
		<polygon fill="#2D7AC3" points="53.965,136.821 250,23.641 446.035,136.821 446.035,363.18 250,476.36 53.965,363.18 		"/>
		<path fill="#4E8FCF" d="M446.035,136.821c0,0-251.565,95.216-305.684,276.234L250,476.36l196.034-113.18"/>
		<path fill="#77ACDE" d="M53.965,136.821c0,0,251.565,95.216,305.684,276.234L250,476.36L53.965,363.18"/>
	</g>
	<g>
		<path fill="#FFFFFF" d="M187.422,271.353h-23.906v36.475c0,5.216-1.23,9.171-3.691,11.865s-5.567,4.043-9.316,4.043
			c-3.926,0-7.09-1.333-9.492-3.999c-2.403-2.666-3.604-6.577-3.604-11.733v-99.316c0-5.742,1.318-9.844,3.955-12.305
			s6.825-3.691,12.568-3.691h33.486c9.901,0,17.519,0.762,22.852,2.285c5.273,1.465,9.829,3.897,13.667,7.295
			c3.837,3.399,6.752,7.559,8.745,12.48c1.991,4.922,2.988,10.459,2.988,16.611c0,13.126-4.043,23.071-12.129,29.839
			S203.418,271.353,187.422,271.353z M181.094,212.29h-17.578v39.375h17.578c6.152,0,11.294-0.644,15.425-1.934
			c4.131-1.288,7.28-3.397,9.448-6.328c2.167-2.929,3.252-6.768,3.252-11.514c0-5.683-1.67-10.312-5.01-13.887
			C200.458,214.195,192.753,212.29,181.094,212.29z"/>
		<path fill="#FFFFFF" d="M273.643,192.69h34.014c8.847,0,16.436,0.821,22.764,2.461c6.328,1.641,12.07,4.717,17.227,9.229
			c13.417,11.485,20.127,28.946,20.127,52.383c0,7.734-0.674,14.796-2.021,21.182c-1.349,6.387-3.428,12.144-6.24,17.271
			c-2.813,5.128-6.416,9.712-10.811,13.755c-3.458,3.106-7.237,5.596-11.338,7.471c-4.102,1.876-8.512,3.194-13.228,3.955
			c-4.717,0.762-10.035,1.143-15.952,1.143H274.17c-4.746,0-8.321-0.717-10.723-2.153c-2.403-1.435-3.97-3.457-4.702-6.064
			c-0.733-2.606-1.099-5.99-1.099-10.151v-94.482c0-5.625,1.259-9.697,3.779-12.217C263.944,193.951,268.018,192.69,273.643,192.69z
			 M283.75,213.345v87.451h19.775c4.335,0,7.734-0.117,10.195-0.352c2.461-0.233,5.01-0.82,7.646-1.758
			c2.637-0.937,4.922-2.255,6.855-3.955c8.73-7.383,13.096-20.097,13.096-38.145c0-12.714-1.92-22.236-5.757-28.564
			c-3.838-6.328-8.569-10.356-14.194-12.085c-5.625-1.728-12.423-2.593-20.391-2.593H283.75z"/>
	</g>
</g>
</svg>
