<?xml version="1.0" encoding="utf-8"?>
<!-- Generator: Adobe Illustrator 15.1.0, SVG Export Plug-In . SVG Version: 6.00 Build 0)  -->
<!DOCTYPE svg PUBLIC "-//W3C//DTD SVG 1.1//EN" "http://www.w3.org/Graphics/SVG/1.1/DTD/svg11.dtd">
<svg version="1.1" id="Layer_1" xmlns="http://www.w3.org/2000/svg" xmlns:xlink="http://www.w3.org/1999/xlink" x="0px" y="0px"
	 width="32px" height="32px" viewBox="0 0 32 32" enable-background="new 0 0 32 32" xml:space="preserve">
<g>
	<path fill="#CBCCCD" d="M27.735,15.968H26.17C26.16,9.64,21.061,4.512,14.771,4.512c-3.146,0-5.996,1.284-8.059,3.36
		c-2.141,2.092-3.5,4.912-3.521,8.096H3.188l0.002,0.033l-0.002,0.04h0.004c0.039,6.313,5.115,11.448,11.385,11.448
		c3.148,0,5.997-1.286,8.06-3.365L20.08,21.66c-1.401,1.413-3.365,2.275-5.504,2.286c-4.389,0.021-7.828-3.607-7.828-7.92
		c-0.01-2.264,0.998-4.242,2.52-5.693c1.402-1.412,3.367-2.273,5.504-2.284c4.392-0.021,7.829,3.603,7.829,7.907v0.012h-1.547
		c-0.961,0-1.352,0.644-0.872,1.426l3.341,3.304c0.765,0.765,0.986,0.758,1.744,0l3.341-3.304
		C29.088,16.608,28.695,15.968,27.735,15.968z"/>
</g>
</svg>
