<?xml version="1.0" encoding="utf-8"?>
<!-- Generator: Adobe Illustrator 15.1.0, SVG Export Plug-In . SVG Version: 6.00 Build 0)  -->
<!DOCTYPE svg PUBLIC "-//W3C//DTD SVG 1.1//EN" "http://www.w3.org/Graphics/SVG/1.1/DTD/svg11.dtd">
<svg version="1.1" id="Layer_1" xmlns="http://www.w3.org/2000/svg" xmlns:xlink="http://www.w3.org/1999/xlink" x="0px" y="0px"
	 width="32px" height="32px" viewBox="0 0 32 32" enable-background="new 0 0 32 32" xml:space="preserve">
<g id="Settings">
	<g>
		<g>
			<path fill="#CBCCCD" d="M28.419,14.612c-0.04-0.352-0.449-0.615-0.804-0.615c-1.146,0-2.161-0.672-2.588-1.713
				c-0.436-1.064-0.155-2.307,0.699-3.09c0.269-0.246,0.301-0.656,0.075-0.941c-0.587-0.745-1.252-1.418-1.979-2
				c-0.285-0.229-0.703-0.197-0.951,0.076c-0.744,0.826-2.083,1.132-3.116,0.7c-1.075-0.452-1.754-1.542-1.688-2.713
				c0.022-0.368-0.246-0.687-0.612-0.73c-0.935-0.108-1.876-0.111-2.812-0.007c-0.363,0.041-0.631,0.352-0.619,0.715
				c0.041,1.159-0.646,2.23-1.711,2.666C11.292,7.378,9.963,7.073,9.22,6.257c-0.246-0.27-0.657-0.303-0.943-0.08
				c-0.749,0.588-1.43,1.261-2.021,1.999c-0.231,0.287-0.197,0.702,0.074,0.95c0.87,0.787,1.151,2.039,0.699,3.117
				c-0.432,1.027-1.499,1.689-2.719,1.689c-0.396-0.012-0.678,0.254-0.722,0.613c-0.11,0.939-0.112,1.896-0.005,2.843
				c0.039,0.352,0.461,0.615,0.819,0.615c1.088-0.029,2.133,0.645,2.571,1.711c0.437,1.065,0.156,2.307-0.699,3.09
				c-0.267,0.246-0.301,0.656-0.076,0.941c0.581,0.74,1.247,1.413,1.977,2.002c0.286,0.23,0.703,0.197,0.951-0.076
				c0.749-0.827,2.086-1.133,3.116-0.7c1.078,0.45,1.757,1.54,1.69,2.712c-0.021,0.368,0.249,0.688,0.614,0.729
				c0.477,0.057,0.957,0.084,1.439,0.084c0.457,0,0.914-0.024,1.371-0.076c0.363-0.04,0.632-0.352,0.619-0.716
				c-0.042-1.158,0.646-2.229,1.71-2.665c1.028-0.419,2.352-0.112,3.095,0.705c0.247,0.269,0.656,0.3,0.943,0.079
				c0.748-0.587,1.427-1.26,2.021-2c0.229-0.285,0.197-0.703-0.074-0.949c-0.87-0.788-1.152-2.041-0.701-3.117
				c0.427-1.014,1.452-1.694,2.557-1.694l0.155,0.004c0.357,0.028,0.688-0.247,0.732-0.612
				C28.523,16.515,28.524,15.559,28.419,14.612z M16.021,20.195c-2.299,0-4.169-1.871-4.169-4.169c0-2.299,1.87-4.168,4.169-4.168
				c2.298,0,4.168,1.869,4.168,4.168C20.188,18.324,18.318,20.195,16.021,20.195z"/>
		</g>
	</g>
</g>
</svg>
