<?xml version="1.0" encoding="utf-8"?>
<!-- Generator: Adobe Illustrator 15.1.0, SVG Export Plug-In . SVG Version: 6.00 Build 0)  -->
<!DOCTYPE svg PUBLIC "-//W3C//DTD SVG 1.1//EN" "http://www.w3.org/Graphics/SVG/1.1/DTD/svg11.dtd">
<svg version="1.1" id="Layer_1" xmlns="http://www.w3.org/2000/svg" xmlns:xlink="http://www.w3.org/1999/xlink" x="0px" y="0px"
	 width="15px" height="15px" viewBox="0 0 15 15" enable-background="new 0 0 15 15" xml:space="preserve">
<g>
	<path fill="#FFFFFF" d="M1.107,4.264c-0.034-0.034-0.05-0.085-0.05-0.119c0-0.035,0.016-0.085,0.05-0.119l0.239-0.239
		c0.068-0.067,0.17-0.067,0.238,0l0.018,0.017L2.54,4.809c0.033,0.035,0.084,0.035,0.117,0L4.94,2.441h0.018l0,0
		c0.067-0.068,0.17-0.068,0.238,0l0.238,0.238c0.067,0.069,0.067,0.171,0,0.238l0,0L2.709,5.746C2.675,5.779,2.642,5.797,2.59,5.797
		c-0.05,0-0.085-0.018-0.118-0.051l-1.33-1.432L1.107,4.264z"/>
	<path fill="#FFFFFF" d="M13.943,4.093c0,0.328-0.234,0.594-0.523,0.594H7.528c-0.289,0-0.522-0.266-0.522-0.594l0,0
		c0-0.328,0.233-0.594,0.522-0.594h5.892C13.709,3.5,13.943,3.765,13.943,4.093L13.943,4.093z"/>
	<path fill="#FFFFFF" d="M1.107,7.67c-0.034-0.033-0.05-0.086-0.05-0.119c0-0.035,0.016-0.086,0.05-0.119l0.239-0.238
		c0.068-0.068,0.17-0.068,0.238,0l0.018,0.016L2.54,8.215c0.033,0.035,0.084,0.035,0.117,0L4.94,5.848h0.018l0,0
		c0.067-0.068,0.17-0.068,0.238,0l0.238,0.238c0.067,0.068,0.067,0.17,0,0.238l0,0L2.709,9.152C2.675,9.186,2.642,9.203,2.59,9.203
		c-0.05,0-0.085-0.018-0.118-0.051l-1.33-1.432L1.107,7.67z"/>
	<path fill="#FFFFFF" d="M13.943,7.5c0,0.328-0.234,0.594-0.523,0.594H7.528c-0.289,0-0.522-0.266-0.522-0.594l0,0
		c0-0.328,0.233-0.594,0.522-0.594h5.892C13.709,6.906,13.943,7.172,13.943,7.5L13.943,7.5z"/>
	<path fill="#FFFFFF" d="M1.107,11.076c-0.034-0.033-0.05-0.086-0.05-0.119c0-0.035,0.016-0.086,0.05-0.119L1.347,10.6
		c0.068-0.068,0.17-0.068,0.238,0l0.018,0.016l0.938,1.006c0.033,0.035,0.084,0.035,0.117,0L4.94,9.254h0.018l0,0
		c0.067-0.068,0.17-0.068,0.238,0l0.238,0.238c0.067,0.068,0.067,0.17,0,0.238l0,0l-2.726,2.828
		c-0.034,0.033-0.067,0.051-0.119,0.051c-0.05,0-0.085-0.018-0.118-0.051l-1.33-1.432L1.107,11.076z"/>
	<path fill="#FFFFFF" d="M13.943,10.906c0,0.328-0.234,0.594-0.523,0.594H7.528c-0.289,0-0.522-0.266-0.522-0.594l0,0
		c0-0.328,0.233-0.594,0.522-0.594h5.892C13.709,10.313,13.943,10.578,13.943,10.906L13.943,10.906z"/>
</g>
</svg>
