<?xml version="1.0" encoding="utf-8"?>
<!-- Generator: Adobe Illustrator 15.1.0, SVG Export Plug-In . SVG Version: 6.00 Build 0)  -->
<!DOCTYPE svg PUBLIC "-//W3C//DTD SVG 1.1//EN" "http://www.w3.org/Graphics/SVG/1.1/DTD/svg11.dtd">
<svg version="1.1" id="Layer_1" xmlns="http://www.w3.org/2000/svg" xmlns:xlink="http://www.w3.org/1999/xlink" x="0px" y="0px"
	 width="15px" height="15px" viewBox="0 0 15 15" enable-background="new 0 0 15 15" xml:space="preserve">
<g>
	<g>
		<path fill="#FFFFFF" d="M12.653,14.125H2.347c-0.689,0-1.25-0.561-1.25-1.25V2.125c0-0.689,0.561-1.25,1.25-1.25h10.306
			c0.689,0,1.25,0.561,1.25,1.25v10.75C13.903,13.564,13.343,14.125,12.653,14.125z M2.347,1.375c-0.414,0-0.75,0.336-0.75,0.75
			v10.75c0,0.413,0.336,0.75,0.75,0.75h10.306c0.413,0,0.75-0.337,0.75-0.75V2.125c0-0.414-0.337-0.75-0.75-0.75H2.347z"/>
	</g>
	<path fill="#FFFFFF" d="M12.334,4.76c0,0.276-0.224,0.5-0.5,0.5H3.167c-0.276,0-0.5-0.224-0.5-0.5V3.427c0-0.276,0.224-0.5,0.5-0.5
		h8.667c0.276,0,0.5,0.224,0.5,0.5V4.76z"/>
	<g>
		<path fill="#FFFFFF" d="M7.049,11.602c0,0.275-0.224,0.5-0.5,0.5H3.167c-0.276,0-0.5-0.225-0.5-0.5V8.22
			c0-0.276,0.224-0.5,0.5-0.5h3.382c0.276,0,0.5,0.224,0.5,0.5V11.602z"/>
		<path fill="#FFFFFF" d="M12.334,11.602c0,0.275-0.224,0.5-0.5,0.5H8.452c-0.276,0-0.5-0.225-0.5-0.5V8.22
			c0-0.276,0.224-0.5,0.5-0.5h3.382c0.276,0,0.5,0.224,0.5,0.5V11.602z"/>
	</g>
</g>
</svg>
