<?xml version="1.0" encoding="utf-8"?>
<!-- Generator: Adobe Illustrator 15.1.0, SVG Export Plug-In . SVG Version: 6.00 Build 0)  -->
<!DOCTYPE svg PUBLIC "-//W3C//DTD SVG 1.1//EN" "http://www.w3.org/Graphics/SVG/1.1/DTD/svg11.dtd">
<svg version="1.1" id="Layer_1" xmlns="http://www.w3.org/2000/svg" xmlns:xlink="http://www.w3.org/1999/xlink" x="0px" y="0px"
	 width="15px" height="15px" viewBox="0 0 15 15" enable-background="new 0 0 15 15" xml:space="preserve">
<path fill="#FFFFFF" d="M2.563,13.531c0,0.466-0.378,0.844-0.844,0.844l0,0c-0.466,0-0.844-0.378-0.844-0.844V1.656
	c0-0.466,0.378-0.844,0.844-0.844l0,0c0.466,0,0.844,0.378,0.844,0.844V13.531z"/>
<path fill="#FFFFFF" d="M5.938,4c0,0.276-0.224,0.5-0.5,0.5H2.219c-0.276,0-0.5-0.224-0.5-0.5l0,0c0-0.276,0.224-0.5,0.5-0.5h3.219
	C5.714,3.5,5.938,3.724,5.938,4L5.938,4z"/>
<path fill="#FFFFFF" d="M12.813,1H9C8.978,1,8.959,1.013,8.938,1.015L6.375,4l2.563,2.987C8.959,6.989,8.979,7,9,7h3.813
	c0.553,0,1-0.448,1-1V2C13.813,1.448,13.365,1,12.813,1z"/>
<path fill="#FFFFFF" d="M5.938,11.375c0,0.276-0.224,0.5-0.5,0.5H2.219c-0.276,0-0.5-0.224-0.5-0.5l0,0c0-0.276,0.224-0.5,0.5-0.5
	h3.219C5.714,10.875,5.938,11.099,5.938,11.375L5.938,11.375z"/>
<path fill="#FFFFFF" d="M12.813,8.375H9c-0.022,0-0.041,0.014-0.063,0.015l-2.563,2.985l2.563,2.987
	C8.959,14.363,8.979,14.375,9,14.375h3.813c0.553,0,1-0.447,1-1v-4C13.813,8.822,13.365,8.375,12.813,8.375z"/>
</svg>
