<?xml version="1.0" encoding="utf-8"?>
<!-- Generator: Adobe Illustrator 15.1.0, SVG Export Plug-In . SVG Version: 6.00 Build 0)  -->
<!DOCTYPE svg PUBLIC "-//W3C//DTD SVG 1.1//EN" "http://www.w3.org/Graphics/SVG/1.1/DTD/svg11.dtd">
<svg version="1.1" id="Layer_1" xmlns="http://www.w3.org/2000/svg" xmlns:xlink="http://www.w3.org/1999/xlink" x="0px" y="0px"
	 width="500px" height="500px" viewBox="0 0 500 500" enable-background="new 0 0 500 500" xml:space="preserve">
<g>
	<g>
		<polygon fill="#2D7AC3" points="53.965,136.82 250,23.64 446.034,136.82 446.034,363.18 250,476.359 53.965,363.18 		"/>
		<path fill="#4E8FCF" d="M446.034,136.82c0,0-251.565,95.216-305.683,276.234L250,476.359l196.034-113.18"/>
		<path fill="#77ACDE" d="M53.965,136.82c0,0,251.565,95.216,305.683,276.234L250,476.359L53.965,363.18"/>
	</g>
	<g>
		<path fill="#FFFFFF" d="M234.532,214.224h-28.477v93.604c0,5.392-1.202,9.391-3.604,11.997c-2.403,2.606-5.508,3.911-9.316,3.911
			c-3.867,0-7.018-1.318-9.448-3.955c-2.432-2.637-3.647-6.621-3.647-11.953v-93.604h-28.477c-4.454,0-7.765-0.98-9.932-2.944
			c-2.168-1.962-3.252-4.555-3.252-7.778c0-3.34,1.127-5.977,3.384-7.91c2.255-1.934,5.522-2.9,9.8-2.9h82.969
			c4.511,0,7.866,0.997,10.063,2.988c2.197,1.993,3.296,4.601,3.296,7.822c0,3.223-1.114,5.816-3.34,7.778
			C242.324,213.243,238.984,214.224,234.532,214.224z"/>
		<path fill="#FFFFFF" d="M299.677,190.493c13.359,0,24.829,2.711,34.409,8.13c9.58,5.42,16.831,13.126,21.753,23.115
			c4.922,9.991,7.383,21.724,7.383,35.2c0,9.962-1.349,19.015-4.043,27.158c-2.696,8.145-6.739,15.205-12.129,21.182
			c-5.392,5.977-12.012,10.547-19.863,13.711c-7.853,3.164-16.846,4.746-26.982,4.746c-10.079,0-19.103-1.626-27.07-4.878
			c-7.969-3.252-14.62-7.836-19.951-13.755c-5.333-5.917-9.36-13.037-12.085-21.357c-2.725-8.319-4.087-17.314-4.087-26.982
			c0-9.901,1.42-18.984,4.263-27.246c2.841-8.262,6.957-15.293,12.349-21.094c5.39-5.801,11.953-10.239,19.688-13.315
			S289.833,190.493,299.677,190.493z M336.767,256.763c0-9.433-1.524-17.607-4.57-24.521c-3.047-6.913-7.398-12.143-13.052-15.688
			c-5.655-3.544-12.144-5.317-19.468-5.317c-5.216,0-10.035,0.982-14.458,2.944c-4.425,1.964-8.233,4.82-11.426,8.569
			c-3.194,3.75-5.713,8.541-7.559,14.37c-1.846,5.831-2.769,12.379-2.769,19.644c0,7.325,0.923,13.946,2.769,19.863
			c1.846,5.919,4.452,10.826,7.822,14.722c3.369,3.897,7.236,6.812,11.602,8.745c4.364,1.934,9.154,2.9,14.37,2.9
			c6.68,0,12.817-1.67,18.413-5.01c5.595-3.34,10.048-8.495,13.359-15.469C335.11,275.542,336.767,266.958,336.767,256.763z"/>
	</g>
</g>
</svg>
