<?xml version="1.0" encoding="utf-8"?>
<!-- Generator: Adobe Illustrator 15.1.0, SVG Export Plug-In . SVG Version: 6.00 Build 0)  -->
<!DOCTYPE svg PUBLIC "-//W3C//DTD SVG 1.1//EN" "http://www.w3.org/Graphics/SVG/1.1/DTD/svg11.dtd">
<svg version="1.1" id="Layer_1" xmlns="http://www.w3.org/2000/svg" xmlns:xlink="http://www.w3.org/1999/xlink" x="0px" y="0px"
	 width="32px" height="32px" viewBox="0 0 32 32" enable-background="new 0 0 32 32" xml:space="preserve">
<g>
	<g>
		<g>
			<path fill="#FFFFFF" d="M5.147,17.549L2.134,4.93h2.608l1.902,8.668L8.952,4.93h3.03l2.212,8.814L16.13,4.93h2.565l-3.064,12.619
				h-2.703l-2.513-9.434L7.91,17.549H5.147z"/>
			<path fill="#FFFFFF" d="M18.902,17.549v-2.298l6.627-8.186H19.65V4.93h9.236v1.98l-6.912,8.513h7.178v2.126H18.902z"/>
		</g>
	</g>
	<g>
		<g>
			<path fill="#27AAE1" d="M3.795,20.83h5.354v1.224l-3.437,3.583h3.562v1.315H3.466v-1.27l3.4-3.546H3.795V20.83z"/>
			<path fill="#27AAE1" d="M9.888,23.896c0-1,0.278-1.778,0.835-2.335c0.557-0.557,1.332-0.835,2.326-0.835
				c1.019,0,1.804,0.273,2.355,0.82c0.551,0.547,0.827,1.313,0.827,2.299c0,0.716-0.121,1.303-0.361,1.761s-0.589,0.814-1.044,1.069
				c-0.455,0.254-1.022,0.382-1.702,0.382c-0.69,0-1.262-0.11-1.714-0.33c-0.453-0.22-0.819-0.568-1.101-1.044
				C10.029,25.206,9.888,24.61,9.888,23.896z M11.78,23.903c0,0.618,0.115,1.063,0.344,1.332c0.23,0.271,0.542,0.405,0.938,0.405
				c0.407,0,0.721-0.132,0.944-0.396s0.334-0.739,0.334-1.424c0-0.576-0.117-0.998-0.349-1.264s-0.547-0.398-0.946-0.398
				c-0.381,0-0.688,0.135-0.918,0.405C11.896,22.833,11.78,23.28,11.78,23.903z"/>
			<path fill="#27AAE1" d="M17.264,20.83h1.767l2.305,3.387V20.83h1.783v6.122h-1.783l-2.293-3.361v3.361h-1.778V20.83z"/>
			<path fill="#27AAE1" d="M24.371,20.83h5.07v1.307h-3.174v0.974h2.943v1.248h-2.943v1.207h3.266v1.387h-5.162V20.83z"/>
		</g>
	</g>
</g>
</svg>
