<?xml version="1.0" encoding="utf-8"?>
<!-- Generator: Adobe Illustrator 15.1.0, SVG Export Plug-In . SVG Version: 6.00 Build 0)  -->
<!DOCTYPE svg PUBLIC "-//W3C//DTD SVG 1.1//EN" "http://www.w3.org/Graphics/SVG/1.1/DTD/svg11.dtd">
<svg version="1.1" id="Layer_1" xmlns="http://www.w3.org/2000/svg" xmlns:xlink="http://www.w3.org/1999/xlink" x="0px" y="0px"
	 width="32px" height="32px" viewBox="0 0 32 32" enable-background="new 0 0 32 32" xml:space="preserve">
<g>
	<g>
		<path fill="#FFFFFF" d="M4.042,16.899L2.079,8.086h1.7l1.24,6.054l1.503-6.054h1.975l1.441,6.156L11.2,8.086h1.671l-1.997,8.813
			H9.113l-1.638-6.589l-1.632,6.589H4.042z"/>
		<path fill="#FFFFFF" d="M13.724,16.899V8.086h3.494c0.879,0,1.518,0.079,1.916,0.237c0.398,0.159,0.717,0.44,0.956,0.845
			s0.359,0.868,0.359,1.389c0,0.662-0.182,1.208-0.545,1.639c-0.362,0.431-0.904,0.702-1.626,0.814
			c0.358,0.225,0.655,0.471,0.889,0.739c0.233,0.269,0.549,0.746,0.945,1.431l1.004,1.719h-1.985l-1.2-1.918
			c-0.427-0.685-0.718-1.117-0.875-1.295s-0.324-0.301-0.5-0.367s-0.454-0.099-0.835-0.099h-0.337v3.679H13.724z M15.384,11.813
			h1.229c0.797,0,1.294-0.036,1.492-0.108s0.354-0.196,0.465-0.373c0.112-0.176,0.169-0.397,0.169-0.662
			c0-0.296-0.074-0.536-0.222-0.718c-0.147-0.182-0.356-0.297-0.625-0.346c-0.135-0.02-0.539-0.03-1.212-0.03h-1.296V11.813z"/>
		<path fill="#FFFFFF" d="M22.036,16.899V8.086h1.66V12l3.354-3.914h2.231l-3.096,3.433l3.265,5.381h-2.148l-2.261-4.136
			l-1.346,1.473v2.663H22.036z"/>
	</g>
</g>
<g>
	<g>
		<path fill="#27AAE1" d="M3.17,18.787h5.354v1.224l-3.437,3.583H8.65v1.315H2.841v-1.27l3.4-3.546H3.17V18.787z"/>
		<path fill="#27AAE1" d="M9.263,21.853c0-1,0.278-1.778,0.835-2.335c0.557-0.557,1.332-0.835,2.326-0.835
			c1.019,0,1.804,0.273,2.355,0.82c0.551,0.547,0.827,1.313,0.827,2.299c0,0.716-0.121,1.303-0.361,1.761s-0.589,0.814-1.044,1.069
			c-0.455,0.254-1.022,0.382-1.702,0.382c-0.69,0-1.262-0.11-1.714-0.33c-0.453-0.22-0.819-0.568-1.101-1.044
			C9.404,23.163,9.263,22.567,9.263,21.853z M11.155,21.86c0,0.618,0.115,1.063,0.344,1.332c0.23,0.271,0.542,0.405,0.938,0.405
			c0.407,0,0.721-0.132,0.944-0.396s0.334-0.739,0.334-1.424c0-0.576-0.117-0.998-0.349-1.264s-0.547-0.398-0.946-0.398
			c-0.381,0-0.688,0.135-0.918,0.405C11.271,20.79,11.155,21.237,11.155,21.86z"/>
		<path fill="#27AAE1" d="M16.639,18.787h1.767l2.305,3.387v-3.387h1.783v6.122H20.71l-2.293-3.361v3.361h-1.778V18.787z"/>
		<path fill="#27AAE1" d="M23.746,18.787h5.07v1.307h-3.174v0.974h2.943v1.248h-2.943v1.207h3.266v1.387h-5.162V18.787z"/>
	</g>
</g>
</svg>
