<?xml version="1.0" encoding="utf-8"?>
<!-- Generator: Adobe Illustrator 15.1.0, SVG Export Plug-In . SVG Version: 6.00 Build 0)  -->
<!DOCTYPE svg PUBLIC "-//W3C//DTD SVG 1.1//EN" "http://www.w3.org/Graphics/SVG/1.1/DTD/svg11.dtd">
<svg version="1.1" id="Layer_1" xmlns="http://www.w3.org/2000/svg" xmlns:xlink="http://www.w3.org/1999/xlink" x="0px" y="0px"
	 width="16px" height="16px" viewBox="0 0 16 16" enable-background="new 0 0 16 16" xml:space="preserve">
<rect x="-35.25" y="-0.035" fill="#C9003A" width="16" height="16"/>
<g>
	<g id="share">
		<path fill="#2C343E" d="M-19.46-5.975l-2.617-2.068c2.523-3.194,5.31-4.618,8.805-4.448c-3.697-1.885-8.4-2.493-12.569,1.471
			l-2.552-2.016l0.935,7.997L-19.46-5.975z"/>
	</g>
</g>
<path fill="#2C343E" d="M31.511,8c0,3.981,3.215,7.274,7.272,7.274c3.368,0,6.201-2.297,7.044-5.359H44.22
	c-0.842,2.221-2.909,3.828-5.437,3.828c-3.14,0-5.743-2.604-5.743-5.743c0-3.139,2.604-5.742,5.743-5.742
	c2.297,0,4.211,1.301,5.207,3.216l-2.145,2.144h4.977V2.64l-1.761,1.761c-1.225-2.22-3.599-3.675-6.278-3.675
	C34.802,0.726,31.511,4.018,31.511,8z"/>
<g>
	<g id="_x34__19_">
		<g>
			<path fill="#2C343E" d="M10.479,13.914c0.273,0,0.496-0.223,0.496-0.496V7.47c0-0.274-0.223-0.497-0.496-0.497
				S9.982,7.196,9.982,7.47v5.948C9.982,13.691,10.205,13.914,10.479,13.914z M13.453,2.018h-2.975V1.026
				c0-0.548-0.443-0.992-0.99-0.992H6.513c-0.548,0-0.991,0.443-0.991,0.992v0.992H2.547C2,2.018,1.555,2.461,1.555,3.008V4
				c0,0.548,0.445,0.992,0.992,0.992v8.923c0,1.096,0.888,1.982,1.982,1.982h6.941c1.094,0,1.982-0.887,1.982-1.982V4.991
				C14,4.991,14.445,4.547,14.445,4V3.008C14.445,2.461,14,2.018,13.453,2.018z M6.513,1.521c0-0.274,0.223-0.496,0.495-0.496h1.983
				c0.274,0,0.497,0.222,0.497,0.496v0.496c-0.48,0-2.975,0-2.975,0V1.521z M12.461,13.914c0,0.547-0.443,0.99-0.99,0.99H4.53
				c-0.548,0-0.991-0.443-0.991-0.99V4.991h8.922V13.914z M12.957,4H3.043C2.77,4,2.547,3.778,2.547,3.504
				c0-0.273,0.223-0.496,0.496-0.496h9.914c0.273,0,0.496,0.222,0.496,0.496C13.453,3.778,13.23,4,12.957,4z M5.522,13.914
				c0.273,0,0.496-0.223,0.496-0.496V7.47c0-0.274-0.223-0.497-0.496-0.497S5.026,7.196,5.026,7.47v5.948
				C5.026,13.691,5.249,13.914,5.522,13.914z M8,13.914c0.273,0,0.496-0.223,0.496-0.496V7.47c0-0.274-0.223-0.497-0.496-0.497
				c-0.274,0-0.496,0.223-0.496,0.497v5.948C7.504,13.691,7.726,13.914,8,13.914z"/>
		</g>
	</g>
</g>
</svg>
