<?xml version="1.0" encoding="utf-8"?>
<!-- Generator: Adobe Illustrator 15.1.0, SVG Export Plug-In . SVG Version: 6.00 Build 0)  -->
<!DOCTYPE svg PUBLIC "-//W3C//DTD SVG 1.1//EN" "http://www.w3.org/Graphics/SVG/1.1/DTD/svg11.dtd">
<svg version="1.1" id="Layer_1" xmlns="http://www.w3.org/2000/svg" xmlns:xlink="http://www.w3.org/1999/xlink" x="0px" y="0px"
	 width="20px" height="16px" viewBox="0 0 20 16" enable-background="new 0 0 20 16" xml:space="preserve">
<rect x="-33.125" fill="#C9003A" width="16" height="16"/>
<g>
	<g id="share">
		<path fill="#2C343E" d="M30.187-18.28l0.935-7.997l-2.552,2.016C24.4-28.225,19.697-27.616,16-25.732
			c3.494-0.17,6.281,1.254,8.805,4.448l-2.617,2.068L30.187-18.28z"/>
	</g>
</g>
<g>
	<g>
		<path fill="#2C343E" d="M2.188,3.229h1.214v0.501c0,0.344,0.279,0.624,0.622,0.624h4.736c0.343,0,0.623-0.279,0.623-0.624V3.229
			h1.215V5.66h1.188V2.741c0-0.454-0.369-0.823-0.823-0.823H9.439V1.892c0-0.348-0.282-0.632-0.631-0.632H7.815V0.631
			C7.815,0.283,7.532,0,7.185,0H5.604C5.255,0,4.971,0.283,4.971,0.631V1.26H3.979c-0.349,0-0.633,0.284-0.633,0.632v0.026H1.822
			C1.37,1.918,1,2.287,1,2.741v12.437C1,15.63,1.37,16,1.822,16h2.879v-1.221H2.188V3.229z M5.94,0.863h0.905v0.286H5.94V0.863z"/>
		<path fill="#2C343E" d="M12.263,7.736V6.971h-0.882v0.765h-0.794V6.971H9.706v0.765H8.874V6.971H7.993v0.765H7.112V6.971h-0.88
			v0.765H5.708V16h7.078V7.736H12.263z M11.77,14.131H6.726v-0.607h5.044V14.131z M11.77,12.172H6.726v-0.606h5.044V12.172z
			 M11.77,10.214H6.726V9.606h5.044V10.214z"/>
	</g>
</g>
<polyline fill="#2C343E" points="14.625,6.641 20.125,6.641 17.375,10.336 "/>
</svg>
