<?xml version="1.0" encoding="utf-8"?>
<!-- Generator: Adobe Illustrator 15.1.0, SVG Export Plug-In . SVG Version: 6.00 Build 0)  -->
<!DOCTYPE svg PUBLIC "-//W3C//DTD SVG 1.1//EN" "http://www.w3.org/Graphics/SVG/1.1/DTD/svg11.dtd">
<svg version="1.1" id="Layer_1" xmlns="http://www.w3.org/2000/svg" xmlns:xlink="http://www.w3.org/1999/xlink" x="0px" y="0px"
	 width="16px" height="16px" viewBox="0 0 16 16" enable-background="new 0 0 16 16" xml:space="preserve">
<rect x="-28.625" fill="#C9003A" width="16" height="16"/>
<g>
	<g id="share">
		<path fill="#2C343E" d="M30.188-18.28l0.935-7.997l-2.552,2.016c-4.17-3.964-8.873-3.355-12.57-1.471
			c3.494-0.17,6.281,1.254,8.805,4.448l-2.617,2.068L30.188-18.28z"/>
	</g>
</g>
<g>
	<path fill="#1F596D" d="M13.361,0H4.832c-0.624,0-1.13,0.507-1.13,1.13v1.356H2.638c-0.624,0-1.13,0.507-1.13,1.13v11.252
		c0,0.624,0.507,1.131,1.13,1.131h8.53c0.623,0,1.129-0.507,1.129-1.131v-1.354h1.064c0.623,0,1.131-0.509,1.131-1.132V1.13
		C14.492,0.507,13.984,0,13.361,0z M11.328,14.869c0,0.088-0.074,0.162-0.16,0.162h-8.53c-0.088,0-0.162-0.074-0.162-0.162V3.617
		c0-0.088,0.074-0.162,0.162-0.162h8.53c0.086,0,0.16,0.074,0.16,0.162V14.869z M13.523,12.383c0,0.088-0.074,0.162-0.162,0.162
		h-1.064V3.617c0-0.624-0.506-1.13-1.129-1.13H4.67V1.13c0-0.088,0.074-0.162,0.162-0.162h8.529c0.088,0,0.162,0.074,0.162,0.162
		V12.383z"/>
	<path fill="#1F596D" d="M9.658,4.98H4.147c-0.268,0-0.484,0.217-0.484,0.484S3.88,5.948,4.147,5.948h5.511
		c0.268,0,0.484-0.217,0.484-0.484C10.143,5.198,9.926,4.98,9.658,4.98z"/>
	<path fill="#1F596D" d="M9.658,7.162H4.147c-0.268,0-0.484,0.217-0.484,0.484S3.88,8.13,4.147,8.13h5.511
		c0.268,0,0.484-0.217,0.484-0.484S9.926,7.162,9.658,7.162z"/>
	<path fill="#1F596D" d="M9.658,9.344H4.147c-0.268,0-0.484,0.217-0.484,0.484s0.217,0.484,0.484,0.484h5.511
		c0.268,0,0.484-0.217,0.484-0.484S9.926,9.344,9.658,9.344z"/>
	<path fill="#1F596D" d="M9.658,11.525H4.147c-0.268,0-0.484,0.217-0.484,0.483s0.217,0.484,0.484,0.484h5.511
		c0.268,0,0.484-0.218,0.484-0.484S9.926,11.525,9.658,11.525z"/>
</g>
</svg>
