<?xml version="1.0" encoding="utf-8"?>
<!-- Generator: Adobe Illustrator 15.1.0, SVG Export Plug-In . SVG Version: 6.00 Build 0)  -->
<!DOCTYPE svg PUBLIC "-//W3C//DTD SVG 1.1//EN" "http://www.w3.org/Graphics/SVG/1.1/DTD/svg11.dtd">
<svg version="1.1" id="Layer_1" xmlns="http://www.w3.org/2000/svg" xmlns:xlink="http://www.w3.org/1999/xlink" x="0px" y="0px"
	 width="16px" height="16px" viewBox="0 0 16 16" enable-background="new 0 0 16 16" xml:space="preserve">
<rect x="-40.875" fill="#C9003A" width="16" height="16"/>
<g>
	<g id="share">
		<path fill="#2C343E" d="M-19.46-5.975l-2.617-2.068c2.523-3.194,5.31-4.618,8.805-4.448c-3.697-1.885-8.4-2.493-12.569,1.471
			l-2.552-2.016l0.935,7.997L-19.46-5.975z"/>
	</g>
</g>
<path fill="#2C343E" d="M31.511,8c0,3.981,3.215,7.274,7.272,7.274c3.368,0,6.201-2.297,7.044-5.359H44.22
	c-0.842,2.221-2.909,3.828-5.437,3.828c-3.14,0-5.743-2.604-5.743-5.743c0-3.139,2.604-5.742,5.743-5.742
	c2.297,0,4.211,1.301,5.207,3.216l-2.145,2.144h4.977V2.64l-1.761,1.761c-1.225-2.22-3.599-3.675-6.278-3.675
	C34.802,0.726,31.511,4.018,31.511,8z"/>
<g>
	<g>
		<g>
			<circle fill="#2C343E" cx="7.962" cy="8.013" r="0.191"/>
			<path fill="#2C343E" d="M2.596,3.684c0.825,0.271,1.323,1.018,1.11,1.664c-0.211,0.646-1.057,0.95-1.882,0.68
				C1,5.756,0.5,5.009,0.712,4.363C0.798,4.1,0.99,3.888,1.267,3.748C1.651,3.555,2.134,3.531,2.596,3.684L2.596,3.684z
				 M7.909,8.836c0.59,0.243,3.439,1.441,5.436,1.996c2.272,0.631,2.633,0.502,2.654,0.301l-8.09-3.943
				c-1.75-0.817-1.857-0.468-2.559-1.321C4.905,5.326,4.479,4.541,4.176,4.146c-0.272-0.485-0.755-0.893-1.37-1.096
				c-0.629-0.207-1.299-0.17-1.837,0.102C0.537,3.37,0.222,3.727,0.082,4.154c-0.327,0.995,0.39,2.041,1.536,2.505
				C2.35,6.955,4.368,6.773,5.08,6.965c0.481,0.129,1.087,0.613,1.603,1.048C7.001,8.309,7.319,8.594,7.909,8.836z"/>
			<path fill="#2C343E" d="M1.269,12.252c-0.277-0.14-0.47-0.352-0.555-0.614c-0.213-0.646,0.287-1.392,1.111-1.665
				c0.825-0.271,1.669,0.033,1.882,0.68c0.213,0.646-0.287,1.393-1.111,1.665C2.134,12.469,1.651,12.447,1.269,12.252L1.269,12.252z
				 M6.68,7.988C6.165,8.422,5.56,8.906,5.077,9.035c-0.713,0.189-2.728,0.01-3.46,0.305c-1.146,0.464-1.865,1.511-1.538,2.506
				c0.141,0.428,0.455,0.785,0.888,1.002c0.539,0.271,1.209,0.31,1.836,0.104c0.617-0.203,1.1-0.611,1.37-1.096
				c0.306-0.395,0.732-1.18,1.176-1.723C6.05,9.279,6.157,9.629,7.907,8.811l8.092-3.943c-0.021-0.2-0.382-0.328-2.654,0.303
				c-1.996,0.553-4.846,1.752-5.436,1.994C7.319,7.407,7.001,7.693,6.68,7.988z"/>
		</g>
	</g>
</g>
</svg>
