<?xml version="1.0" encoding="utf-8"?>
<!-- Generator: Adobe Illustrator 15.1.0, SVG Export Plug-In . SVG Version: 6.00 Build 0)  -->
<!DOCTYPE svg PUBLIC "-//W3C//DTD SVG 1.1//EN" "http://www.w3.org/Graphics/SVG/1.1/DTD/svg11.dtd">
<svg version="1.1" id="Layer_1" xmlns="http://www.w3.org/2000/svg" xmlns:xlink="http://www.w3.org/1999/xlink" x="0px" y="0px"
	 width="16px" height="16px" viewBox="0 0 16 16" enable-background="new 0 0 16 16" xml:space="preserve">
<path fill="#231F20" d="M-16.352,5.161h1.185v0.823h-0.443c-0.131,0-0.238,0.106-0.238,0.238s0.106,0.238,0.238,0.238h3.321
	c0.132,0,0.237-0.106,0.237-0.238s-0.105-0.238-0.237-0.238h-0.443V5.161h1.186c0.468,0,0.848-0.38,0.848-0.847v-2.84
	c0-0.467-0.38-0.847-0.848-0.847h-4.805c-0.467,0-0.847,0.38-0.847,0.847v2.84C-17.199,4.781-16.819,5.161-16.352,5.161z
	 M-13.208,5.983h-1.483V5.161h1.483V5.983z M-16.724,1.473c0-0.205,0.167-0.372,0.372-0.372h4.805c0.205,0,0.372,0.167,0.372,0.372
	v2.84c0,0.205-0.167,0.372-0.372,0.372h-4.805c-0.205,0-0.372-0.167-0.372-0.372V1.473z"/>
<path fill="#231F20" d="M-15.671,9.541h-4.806c-0.467,0-0.847,0.38-0.847,0.847v2.841c0,0.467,0.38,0.847,0.847,0.847h1.185v0.822
	h-0.443c-0.131,0-0.238,0.107-0.238,0.239c0,0.13,0.106,0.237,0.238,0.237h3.321c0.131,0,0.237-0.107,0.237-0.237
	c0-0.132-0.106-0.239-0.237-0.239h-0.443v-0.822h1.185c0.467,0,0.847-0.38,0.847-0.847v-2.841
	C-14.824,9.921-15.204,9.541-15.671,9.541z M-17.333,14.897h-1.483v-0.822h1.483V14.897z M-15.3,13.229
	c0,0.205-0.167,0.371-0.371,0.371h-4.806c-0.205,0-0.372-0.166-0.372-0.371v-2.841c0-0.204,0.167-0.371,0.372-0.371h4.806
	c0.205,0,0.371,0.167,0.371,0.371V13.229z"/>
<path fill="#231F20" d="M-7.421,9.541h-4.806c-0.468,0-0.848,0.38-0.848,0.847v2.841c0,0.467,0.38,0.847,0.848,0.847h1.186v0.822
	h-0.443c-0.131,0-0.237,0.107-0.237,0.239c0,0.13,0.106,0.237,0.237,0.237h3.32c0.132,0,0.237-0.107,0.237-0.237
	c0-0.132-0.105-0.239-0.237-0.239h-0.443v-0.822h1.187c0.467,0,0.847-0.38,0.847-0.847v-2.841C-6.574,9.921-6.954,9.541-7.421,9.541
	z M-9.082,14.897h-1.484v-0.822h1.484V14.897z M-7.05,13.229c0,0.205-0.167,0.371-0.371,0.371h-4.806
	c-0.205,0-0.372-0.166-0.372-0.371v-2.841c0-0.204,0.167-0.371,0.372-0.371h4.806c0.204,0,0.371,0.167,0.371,0.371V13.229
	L-7.05,13.229z"/>
<path fill="#231F20" d="M-10.062,8.828c0,0.131,0.105,0.236,0.237,0.236s0.237-0.105,0.237-0.236V8c0-0.131-0.105-0.238-0.237-0.238
	h-3.887V7.173c0-0.131-0.106-0.239-0.238-0.239s-0.238,0.107-0.238,0.239v0.589h-3.887c-0.131,0-0.238,0.106-0.238,0.238v0.828
	c0,0.131,0.106,0.236,0.238,0.236s0.238-0.105,0.238-0.236v-0.59h7.774V8.828z"/>
<path fill="#231F20" d="M23.314,5.958c-0.205-0.001-0.372,0.065-0.369,0.146c-0.002,0.083,0.162,0.148,0.366,0.149l1.302,0.005
	c0.206,0,0.374-0.064,0.374-0.146l0.008-2.417l0.926,0.003c0.205,0,0.374-0.066,0.374-0.147s-0.169-0.148-0.375-0.149l-0.924-0.003
	l0.008-2.417c-0.002-0.081-0.168-0.149-0.373-0.149L23.33,0.828c-0.205,0-0.369,0.066-0.369,0.147
	c-0.002,0.081,0.164,0.148,0.369,0.149l0.926,0.002L24.24,5.961L23.314,5.958z"/>
<g>
	<g>
		<path fill="#FFFFFF" d="M48.939,6.132V6.115h-0.059H38.357h-0.059v0.017c-0.344,0.024-0.602,0.298-0.641,0.63v0.059v6.935
			c0,0.134,0.034,0.247,0.093,0.351c0.134,0.236,0.333,0.355,0.606,0.355h3.842v0.968h-0.73c-0.182,0-0.322,0.141-0.322,0.323
			c0,0.18,0.141,0.32,0.322,0.32h4.303c0.18,0,0.326-0.141,0.326-0.32c0-0.183-0.146-0.323-0.326-0.323h-0.73v-0.968h3.84
			c0.275,0,0.475-0.119,0.607-0.355c0.061-0.108,0.1-0.223,0.1-0.351V6.821V6.762C49.547,6.43,49.273,6.156,48.939,6.132z
			 M48.939,6.821v6.935c0,0.041-0.018,0.059-0.059,0.059H38.357c-0.041,0-0.059-0.018-0.059-0.059V6.821V6.762h10.641V6.821
			L48.939,6.821z"/>
	</g>
	<g>
		<path fill="#FFFFFF" d="M40.812,0.015v-0.01h-0.034h-6.243h-0.035v0.01c-0.204,0.014-0.356,0.177-0.38,0.375v0.035v4.114
			c0,0.079,0.02,0.146,0.055,0.208c0.08,0.141,0.197,0.211,0.36,0.211h2.278v0.574H36.38c-0.107,0-0.19,0.084-0.19,0.192
			c0,0.106,0.083,0.19,0.19,0.19h2.554c0.105,0,0.193-0.084,0.193-0.19c0-0.108-0.088-0.192-0.193-0.192H38.5V4.958h2.277
			c0.164,0,0.281-0.071,0.359-0.211c0.037-0.064,0.06-0.133,0.06-0.208V0.425V0.39C41.173,0.192,41.01,0.029,40.812,0.015z
			 M40.812,0.425v4.114c0,0.025-0.009,0.035-0.034,0.035h-6.243c-0.025,0-0.035-0.01-0.035-0.035V0.425V0.39h6.313V0.425
			L40.812,0.425z"/>
	</g>
</g>
<g>
	<path fill="#FFFFFF" d="M14.328,7.75c-0.568-0.545-1.366-0.607-1.919-0.607c-0.284,0-0.56,0.019-0.816,0.039
		c-0.021,0-0.06-0.012-0.095-0.024c-0.055-0.017-0.119-0.037-0.192-0.041c-0.264-0.056-0.469-0.112-0.66-0.264
		c-0.392-0.348-0.734-0.783-1.068-1.202L9.34,5.353C8.904,4.827,8.371,4.129,8.104,3.381c-0.14-0.375-0.198-0.772-0.177-1.252
		C7.93,2.037,7.935,1.948,7.94,1.864c0.021-0.349,0.038-0.678-0.076-1.017C7.705,0.344,7.31,0.055,6.778,0.055
		c-0.356,0-0.731,0.136-1.016,0.362C5.049,0.914,4.589,1.854,4.533,2.938C4.504,3.544,4.689,4.066,4.867,4.57
		c0.156,0.44,0.305,0.854,0.302,1.303c-0.002,0.68-0.589,0.869-1.42,1.063c-0.09,0.021-0.181,0.042-0.25,0.06
		c-0.096,0.017-0.193,0.034-0.29,0.05c-0.624,0.103-1.33,0.222-1.842,0.709C0.981,8.137,0.798,8.77,0.899,9.365
		c0.074,0.43,0.286,0.784,0.592,0.993c-0.193,0.731,0.166,1.584,0.861,2.039c-0.067,0.33-0.005,0.703,0.179,1.055
		c0.207,0.39,0.534,0.697,0.899,0.841c0,0.67,0.458,1.253,1.178,1.457c0.2,0.041,0.418,0.06,0.664,0.06
		c0.365,0,0.729-0.041,1.082-0.082c0.117-0.013,0.235-0.025,0.371-0.042c0.208-0.041,0.425-0.069,0.644-0.097
		c0.45-0.057,0.915-0.117,1.335-0.3c0.342-0.151,0.643-0.371,0.931-0.582c0.095-0.068,0.188-0.136,0.283-0.204
		c0.094-0.065,0.189-0.154,0.286-0.246c0.167-0.158,0.34-0.32,0.507-0.352c0.148-0.03,0.289-0.045,0.429-0.06
		c0.152-0.017,0.301-0.034,0.445-0.063h0.073c0.153,0,0.32,0.01,0.497,0.021c0.199,0.012,0.406,0.025,0.613,0.025
		c0.504,0,1.14-0.064,1.548-0.567c0.601-0.715,0.689-1.806,0.692-2.873v-0.047C15.018,9.556,15.026,8.37,14.328,7.75z
		 M12.035,12.045c-0.153,0.565-0.459,0.798-1.104,0.857c-0.201,0-0.447,0-0.679,0.145c-0.247,0.065-0.444,0.253-0.621,0.419
		c-0.069,0.065-0.136,0.129-0.199,0.179c-0.085,0.062-0.17,0.128-0.262,0.195c-0.267,0.201-0.544,0.411-0.792,0.532
		c-0.15,0.038-0.32,0.076-0.491,0.115l-0.33,0.075c-0.692,0.126-1.409,0.19-2.083,0.251c-0.227,0-0.461,0-0.696-0.064
		c-0.133-0.017-0.231-0.077-0.292-0.179c-0.085-0.143-0.093-0.351-0.024-0.535c0.055-0.125,0.044-0.263-0.029-0.375
		c-0.11-0.172-0.334-0.247-0.506-0.247H3.906l-0.023,0.004c-0.021,0.007-0.039,0.008-0.059,0.008c-0.14,0-0.284-0.117-0.386-0.312
		c-0.127-0.246-0.145-0.545-0.052-0.677c0.106-0.126,0.124-0.31,0.046-0.477c-0.068-0.146-0.193-0.244-0.332-0.262
		c-0.328-0.111-0.539-0.316-0.63-0.606c-0.067-0.243-0.049-0.523,0.063-0.657c0.107-0.177,0.132-0.387,0.066-0.551
		C2.545,9.748,2.434,9.647,2.265,9.6C1.954,9.545,1.86,9.292,1.836,9.086c-0.052-0.376,0.237-0.663,0.51-0.799
		C2.762,8.053,3.272,7.97,3.766,7.889C4.03,7.846,4.303,7.803,4.562,7.735c0.883-0.23,1.519-0.92,1.581-1.72
		C6.185,5.427,6,4.886,5.821,4.366C5.668,3.924,5.525,3.508,5.513,3.067C5.5,2.644,5.624,2.174,5.858,1.728
		c0.226-0.352,0.606-0.732,0.908-0.732c0.014,0,0.03,0.001,0.043,0.003C6.996,1.026,6.99,1.38,6.97,1.709L6.964,1.792
		C6.938,2.333,6.925,2.789,7.049,3.317C7.222,4.033,7.63,4.614,8.023,5.176C8.108,5.299,8.194,5.422,8.282,5.55
		c0.368,0.533,0.84,1.112,1.352,1.668c0.096,0.117,0.203,0.246,0.331,0.336c0.036,0.062,0.082,0.096,0.126,0.112
		c0.318,0.244,0.66,0.385,1.091,0.456c0.313,0.061,0.583,0.11,0.717,0.339c0.273,0.481,0.282,1.145,0.286,1.675l0.003,0.128
		C12.196,10.826,12.192,11.476,12.035,12.045z M14.034,10.177l-0.001,0.208c0.003,0.82-0.048,1.655-0.448,2.234
		c-0.132,0.204-0.401,0.22-0.767,0.22h-0.039c0.206-0.418,0.286-0.906,0.336-1.349c0.085-0.806,0.075-1.593-0.027-2.342
		c-0.044-0.328-0.114-0.686-0.27-1.005c0.297,0.033,0.601,0.114,0.832,0.311C14.045,8.785,14.037,9.625,14.034,10.177z"/>
</g>
</svg>
