<?xml version="1.0" encoding="utf-8"?>
<!-- Generator: Adobe Illustrator 15.1.0, SVG Export Plug-In . SVG Version: 6.00 Build 0)  -->
<!DOCTYPE svg PUBLIC "-//W3C//DTD SVG 1.1//EN" "http://www.w3.org/Graphics/SVG/1.1/DTD/svg11.dtd">
<svg version="1.1" id="Layer_1" xmlns="http://www.w3.org/2000/svg" xmlns:xlink="http://www.w3.org/1999/xlink" x="0px" y="0px"
	 width="16px" height="16px" viewBox="0 0 16 16" enable-background="new 0 0 16 16" xml:space="preserve">
<rect x="-56.167" fill="#C9003A" width="16" height="16"/>
<g>
	<g id="share">
		<path fill="#2C343E" d="M-19.46-5.975l-2.617-2.068c2.523-3.194,5.31-4.618,8.805-4.448c-3.697-1.885-8.4-2.493-12.569,1.471
			l-2.552-2.016l0.935,7.997L-19.46-5.975z"/>
	</g>
</g>
<path fill="#2C343E" d="M0.344-19c0,3.98,3.215,7.273,7.273,7.273c3.367,0,6.201-2.297,7.043-5.358h-1.607
	c-0.842,2.221-2.908,3.828-5.436,3.828c-3.14,0-5.744-2.604-5.744-5.743c0-3.139,2.604-5.742,5.744-5.742
	c2.296,0,4.21,1.301,5.207,3.216l-2.145,2.144h4.977v-4.978l-1.762,1.761c-1.225-2.22-3.599-3.675-6.277-3.675
	C3.635-26.274,0.344-22.982,0.344-19z"/>
<g>
	<g>
		<path fill="#2C343E" d="M10.952,10.531L9.018,9.397C8.913,9.409,8.807,9.43,8.703,9.462c-0.505,0.144-1.236,0.559-1.848,1.715
			c-0.486,0.918-0.307,1.708-0.148,2.402c0.151,0.661,0.271,1.187-0.174,1.709c-0.043,0.052-0.055,0.124-0.032,0.188
			c0.016,0.037,0.044,0.068,0.079,0.092c0.022,0.011,0.046,0.02,0.07,0.021c1.124,0.143,2.807-0.52,3.842-2.311
			c0.472-0.812,0.674-1.593,0.586-2.258C11.057,10.847,11.016,10.683,10.952,10.531z M9.057,10.653
			c-0.035,0.093-0.102,0.164-0.191,0.206c-0.653,0.294-0.77,0.812-0.774,0.833c-0.026,0.135-0.131,0.248-0.267,0.285
			c-0.013,0.003-0.026,0.005-0.038,0.007c-0.042,0.009-0.085,0.009-0.126-0.002c-0.2-0.037-0.331-0.229-0.293-0.43
			c0.007-0.037,0.184-0.909,1.194-1.365c0.02-0.008,0.038-0.015,0.057-0.022c0.177-0.045,0.355,0.041,0.432,0.206
			C9.088,10.46,9.091,10.562,9.057,10.653z"/>
		<path fill="#2C343E" d="M15.477,0.47c-0.388-0.225-0.884-0.112-1.134,0.259c-0.16,0.234-3.881,5.722-4.36,6.548
			C9.742,7.69,9.472,8.361,9.249,8.974l1.936,1.134c0.421-0.499,0.868-1.069,1.115-1.488c0.482-0.837,3.394-6.782,3.516-7.036
			C16.013,1.181,15.866,0.695,15.477,0.47z"/>
		<path fill="#2C343E" d="M6.19,12.609c-0.167-0.053-0.329-0.085-0.491-0.096c-0.027-0.001-0.057-0.003-0.087-0.003
			c-0.246,0-0.556,0.054-0.855,0.106c-0.266,0.048-0.518,0.092-0.693,0.092c-0.125,0-0.168-0.023-0.181-0.035
			c-0.149-0.187,0.066-0.696,0.159-0.915c0.024-0.056,0.042-0.1,0.053-0.13c0.15-0.441,0.261-0.912,0.053-1.355
			C3.973,9.901,3.57,9.608,3.123,9.521C2.992,9.491,2.842,9.478,2.65,9.478c-0.157,0-0.325,0.01-0.488,0.019
			c-0.168,0.011-0.34,0.02-0.506,0.02c-0.57,0-0.897-0.129-1.096-0.432C0.195,8.5,0.635,7.454,1.088,7.018
			C1.116,6.99,1.12,6.947,1.094,6.918c-0.025-0.031-0.068-0.037-0.1-0.013C0.414,7.326,0.03,8.09,0.061,8.764
			c0.016,0.36,0.154,0.857,0.721,1.196c0.305,0.184,0.799,0.221,1.277,0.258c0.469,0.036,0.956,0.075,1.106,0.257
			c0.039,0.049,0.055,0.106,0.045,0.179c-0.032,0.334-0.195,0.663-0.352,0.981c-0.296,0.601-0.602,1.221-0.072,1.912
			c0.464,0.604,1.082,0.604,1.717,0.601c0.05,0,0.104-0.002,0.155-0.002c0.277,0,0.596,0.009,0.885,0.11
			c0.206,0.08,0.31,0.247,0.359,0.571c0.037,0.203,0.126,0.361,0.245,0.482c0.017-0.097,0.057-0.182,0.121-0.257
			c0.311-0.368,0.25-0.711,0.096-1.39C6.29,13.346,6.209,12.993,6.19,12.609z"/>
	</g>
</g>
</svg>
