<?xml version="1.0" encoding="utf-8"?>
<!-- Generator: Adobe Illustrator 15.1.0, SVG Export Plug-In . SVG Version: 6.00 Build 0)  -->
<!DOCTYPE svg PUBLIC "-//W3C//DTD SVG 1.1//EN" "http://www.w3.org/Graphics/SVG/1.1/DTD/svg11.dtd">
<svg version="1.1" id="Layer_1" xmlns="http://www.w3.org/2000/svg" xmlns:xlink="http://www.w3.org/1999/xlink" x="0px" y="0px"
	 width="20px" height="16px" viewBox="0 0 20 16" enable-background="new 0 0 20 16" xml:space="preserve">
<rect x="-62.024" y="-0.236" fill="#C9003A" width="16" height="16"/>
<g>
	<g id="share">
		<path fill="#2C343E" d="M30.188-18.28l0.935-7.997l-2.552,2.016c-4.17-3.964-8.873-3.355-12.57-1.471
			c3.494-0.17,6.281,1.254,8.805,4.448l-2.617,2.068L30.188-18.28z"/>
	</g>
</g>
<g>
	<g>
		<path fill="#2C343E" d="M-36.687,3.229h1.214V3.73c0,0.344,0.279,0.624,0.622,0.624h4.736c0.343,0,0.623-0.279,0.623-0.624V3.229
			h1.215V5.66h1.188V2.741c0-0.454-0.369-0.823-0.823-0.823h-1.524V1.892c0-0.348-0.282-0.632-0.631-0.632h-0.993V0.631
			C-31.06,0.283-31.343,0-31.69,0h-1.581c-0.349,0-0.633,0.283-0.633,0.631V1.26h-0.992c-0.349,0-0.633,0.284-0.633,0.632v0.026
			h-1.523c-0.452,0-0.822,0.369-0.822,0.823v12.437c0,0.452,0.37,0.822,0.822,0.822h2.879v-1.221h-2.513L-36.687,3.229
			L-36.687,3.229z M-32.935,0.863h0.905v0.286h-0.905V0.863z"/>
		<path fill="#2C343E" d="M-26.612,7.736V6.971h-0.882v0.765h-0.794V6.971h-0.881v0.765h-0.832V6.971h-0.881v0.765h-0.881V6.971
			h-0.88v0.765h-0.524V16h7.078V7.736H-26.612z M-27.105,14.131h-5.044v-0.607h5.044V14.131z M-27.105,12.172h-5.044v-0.605h5.044
			V12.172z M-27.105,10.214h-5.044V9.605h5.044V10.214z"/>
	</g>
</g>
<polyline fill="#1F596D" points="14.625,6.641 20.125,6.641 17.375,10.336 "/>
<g>
	<g>
		<path fill="#1F596D" d="M15.361,13.658c-0.077-0.266-0.291-0.461-0.635-0.58c-0.192-0.067-0.41-0.109-0.644-0.154
			c-0.188-0.037-0.383-0.074-0.54-0.123c-0.02-0.006-0.037-0.012-0.054-0.018c0.04-0.041,0.081-0.082,0.118-0.117
			c0.166-0.165,0.338-0.336,0.457-0.529c0.22-0.363,0.193-0.746-0.067-1.025c0,0-0.25-0.282-0.729-0.282
			c-0.134,0-0.273,0.022-0.414,0.071c0.004-0.256,0.002-0.502-0.008-0.733c-0.044-1.203-0.242-1.953-0.625-2.359
			c0-0.921-0.367-2.276-0.981-3.625c-0.936-2.051-2.169-3.54-2.933-3.54c-0.072,0-0.139,0.014-0.2,0.042
			C8.099,0.687,8.092,0.69,8.083,0.695L7.706,0.867C7.431,0.771,6.88,0.591,6.288,0.461C5.833,0.361,5.44,0.31,5.118,0.31
			c-0.547,0-0.905,0.14-1.094,0.429C3.927,0.889,3.831,1.143,3.93,1.501c0.02,0.072,0.048,0.147,0.083,0.224
			c0.383,0.839,2.136,2.229,4.078,3.233C8.134,4.98,8.183,4.986,8.229,4.976c0.039-0.009,0.079-0.014,0.12-0.014
			c0.209,0,0.401,0.123,0.489,0.314c0.06,0.131,0.064,0.277,0.014,0.411c-0.049,0.135-0.15,0.242-0.28,0.301
			C8.501,6.021,8.426,6.037,8.349,6.037c-0.21,0-0.403-0.124-0.489-0.314C7.841,5.681,7.828,5.638,7.82,5.594
			C7.809,5.532,7.769,5.479,7.713,5.449c-1.546-0.801-2.967-1.811-3.8-2.7C3.853,2.686,3.76,2.667,3.681,2.703L0.427,4.188
			C0.346,4.225,0.299,4.31,0.31,4.398c0.06,0.454,0.328,2.098,1.28,4.184c0.952,2.088,2.017,3.367,2.321,3.709
			c0.059,0.068,0.155,0.088,0.236,0.051l6.781-3.094c0.01,0.063,0.018,0.127,0.027,0.193c0.059,0.428,0.124,0.914,0.125,1.313
			c0.002,0.28-0.029,0.438-0.057,0.518l0,0c-0.08-0.008-0.178-0.024-0.273-0.041c-0.195-0.031-0.396-0.065-0.589-0.065
			c-0.471,0-0.692,0.217-0.796,0.399c-0.243,0.427-0.002,0.951,0.236,1.359c-0.134,0.037-0.316,0.068-0.438,0.09
			c-0.182,0.031-0.37,0.064-0.533,0.116c-0.304,0.097-0.502,0.263-0.588,0.493c-0.068,0.18-0.091,0.467,0.182,0.805
			c0.357,0.44,0.872,0.773,1.529,0.989c0.545,0.179,1.188,0.272,1.861,0.272c0.649,0,1.299-0.084,1.879-0.244
			c0.433-0.119,1.028-0.34,1.419-0.709C15.076,14.58,15.512,14.166,15.361,13.658z M10.37,13.176c0.047-0.107,0.024-0.24-0.07-0.406
			c-0.228-0.401-0.307-0.676-0.232-0.812c0.016-0.028,0.063-0.118,0.29-0.118c0.131,0,0.287,0.027,0.438,0.055
			c0.146,0.024,0.285,0.049,0.397,0.049c0.06,0,0.105-0.006,0.144-0.021c0.022-0.009,0.045-0.022,0.063-0.042
			c0.379-0.395,0.291-1.497,0.168-2.595c-0.043-0.386-0.08-0.692-0.041-0.754c0.011-0.013,0.02-0.017,0.029-0.015
			c0.352,0.111,0.572,0.76,0.643,1.875c0.029,0.472,0.025,0.928,0.018,1.229c-0.002,0.07,0.035,0.137,0.096,0.169
			c0.061,0.033,0.133,0.026,0.187-0.015c0.144-0.11,0.356-0.241,0.569-0.241c0.111,0,0.209,0.032,0.298,0.104l0,0
			c0.159,0.178,0.021,0.381-0.326,0.743c-0.239,0.246-0.349,0.377-0.354,0.502c-0.004,0.027,0.002,0.058,0.012,0.084
			c0.113,0.292,0.563,0.384,0.996,0.472c0.361,0.071,0.703,0.141,0.758,0.33c0.033,0.121-0.055,0.282-0.268,0.496
			C13.746,14.697,12.695,15,11.626,15c-1.171,0-2.118-0.354-2.596-0.973c-0.081-0.104-0.109-0.191-0.085-0.26
			c0.051-0.144,0.33-0.193,0.623-0.248C9.982,13.445,10.282,13.376,10.37,13.176z M9.545,4.954C9.166,4.123,8.881,3.271,8.741,2.557
			c-0.049-0.249-0.079-0.477-0.09-0.68l0,0C8.797,2.018,8.95,2.191,9.105,2.39c0.449,0.574,0.904,1.348,1.284,2.178
			c0.378,0.831,0.664,1.682,0.804,2.397c0.048,0.249,0.078,0.478,0.089,0.679c-0.146-0.141-0.298-0.313-0.454-0.512
			C10.379,6.559,9.924,5.785,9.545,4.954z M4.534,1.071C4.564,1.025,4.68,0.918,5.11,0.918c0.28,0,0.631,0.046,1.042,0.136
			c0.227,0.05,0.473,0.113,0.731,0.189L5.015,2.095C4.8,1.865,4.65,1.657,4.568,1.476C4.545,1.428,4.529,1.382,4.517,1.338
			C4.485,1.225,4.491,1.138,4.534,1.071z"/>
	</g>
</g>
</svg>
