<?xml version="1.0" encoding="utf-8"?>
<!-- Generator: Adobe Illustrator 15.1.0, SVG Export Plug-In . SVG Version: 6.00 Build 0)  -->
<!DOCTYPE svg PUBLIC "-//W3C//DTD SVG 1.1//EN" "http://www.w3.org/Graphics/SVG/1.1/DTD/svg11.dtd">
<svg version="1.1" id="Layer_1" xmlns="http://www.w3.org/2000/svg" xmlns:xlink="http://www.w3.org/1999/xlink" x="0px" y="0px"
	 width="20px" height="16px" viewBox="0 0 20 16" enable-background="new 0 0 20 16" xml:space="preserve">
<rect x="-62.024" y="-0.236" fill="#C9003A" width="16" height="16"/>
<g>
	<g id="share">
		<path fill="#2C343E" d="M30.187-18.28l0.935-7.997l-2.552,2.016C24.4-28.225,19.697-27.616,16-25.732
			c3.494-0.17,6.281,1.254,8.805,4.448l-2.617,2.068L30.187-18.28z"/>
	</g>
</g>
<g>
	<g>
		<path fill="#2C343E" d="M-36.687,3.229h1.214v0.501c0,0.344,0.279,0.624,0.622,0.624h4.736c0.343,0,0.623-0.279,0.623-0.624V3.229
			h1.215V5.66h1.188V2.741c0-0.454-0.369-0.823-0.823-0.823h-1.524V1.892c0-0.348-0.282-0.632-0.631-0.632h-0.993V0.631
			C-31.06,0.283-31.343,0-31.69,0h-1.581c-0.349,0-0.633,0.283-0.633,0.631V1.26h-0.992c-0.349,0-0.633,0.284-0.633,0.632v0.026
			h-1.523c-0.452,0-0.822,0.369-0.822,0.823v12.437c0,0.452,0.37,0.822,0.822,0.822h2.879v-1.221h-2.513V3.229z M-32.935,0.863
			h0.905v0.286h-0.905V0.863z"/>
		<path fill="#2C343E" d="M-26.612,7.736V6.971h-0.882v0.765h-0.794V6.971h-0.881v0.765h-0.832V6.971h-0.881v0.765h-0.881V6.971
			h-0.88v0.765h-0.524V16h7.078V7.736H-26.612z M-27.105,14.131h-5.044v-0.607h5.044V14.131z M-27.105,12.172h-5.044v-0.606h5.044
			V12.172z M-27.105,10.214h-5.044V9.606h5.044V10.214z"/>
	</g>
</g>
<polyline fill="#2C343E" points="14.625,6.641 20.125,6.641 17.375,10.336 "/>
<g>
	<g>
		<path fill="#2C343E" d="M15.362,13.658c-0.078-0.266-0.292-0.461-0.635-0.58c-0.193-0.067-0.411-0.109-0.644-0.154
			c-0.188-0.037-0.383-0.074-0.54-0.123c-0.019-0.006-0.037-0.012-0.054-0.018c0.041-0.041,0.082-0.082,0.118-0.117
			c0.167-0.165,0.339-0.336,0.457-0.529c0.22-0.363,0.194-0.746-0.067-1.026c0,0-0.25-0.282-0.729-0.282
			c-0.134,0-0.274,0.023-0.415,0.071c0.004-0.255,0.002-0.502-0.007-0.733c-0.044-1.203-0.243-1.953-0.626-2.359
			c0-0.921-0.366-2.276-0.981-3.625c-0.936-2.051-2.169-3.54-2.933-3.54c-0.072,0-0.139,0.014-0.2,0.042
			C8.099,0.687,8.092,0.69,8.083,0.695L7.706,0.867C7.431,0.771,6.88,0.591,6.288,0.461C5.833,0.361,5.44,0.31,5.118,0.31
			c-0.547,0-0.905,0.14-1.094,0.429C3.927,0.889,3.831,1.143,3.93,1.501c0.02,0.072,0.048,0.147,0.083,0.224
			c0.383,0.839,2.136,2.229,4.078,3.233C8.134,4.98,8.183,4.986,8.229,4.976c0.039-0.009,0.079-0.014,0.12-0.014
			c0.209,0,0.401,0.123,0.489,0.314c0.06,0.131,0.064,0.277,0.014,0.411C8.803,5.822,8.702,5.929,8.572,5.988
			C8.501,6.021,8.426,6.037,8.349,6.037c-0.21,0-0.403-0.124-0.489-0.314C7.841,5.681,7.828,5.638,7.82,5.594
			C7.809,5.532,7.769,5.479,7.713,5.449c-1.546-0.801-2.967-1.811-3.8-2.7c-0.06-0.063-0.153-0.082-0.232-0.046L0.427,4.188
			C0.346,4.225,0.299,4.31,0.31,4.398c0.06,0.454,0.328,2.098,1.28,4.184c0.952,2.088,2.017,3.367,2.321,3.709
			c0.059,0.068,0.155,0.088,0.236,0.051l6.781-3.094c0.01,0.063,0.018,0.127,0.027,0.193c0.059,0.428,0.124,0.914,0.125,1.313
			c0.002,0.28-0.029,0.437-0.057,0.518l0,0c-0.08-0.008-0.178-0.025-0.273-0.041c-0.195-0.032-0.396-0.066-0.589-0.066
			c-0.471,0-0.692,0.217-0.796,0.399c-0.243,0.427-0.002,0.951,0.236,1.36c-0.134,0.037-0.316,0.068-0.438,0.09
			c-0.182,0.031-0.37,0.064-0.533,0.116c-0.304,0.097-0.502,0.263-0.588,0.493c-0.068,0.18-0.091,0.467,0.182,0.805
			c0.357,0.44,0.872,0.773,1.529,0.989c0.545,0.179,1.188,0.272,1.861,0.272c0.649,0,1.299-0.084,1.879-0.244
			c0.433-0.119,1.029-0.339,1.419-0.709C15.076,14.58,15.512,14.166,15.362,13.658z M10.37,13.176
			c0.047-0.107,0.024-0.24-0.07-0.407c-0.228-0.401-0.307-0.675-0.232-0.811c0.016-0.029,0.063-0.118,0.29-0.118
			c0.131,0,0.287,0.027,0.438,0.054c0.146,0.025,0.285,0.05,0.397,0.05c0.06,0,0.106-0.007,0.144-0.021
			c0.023-0.009,0.045-0.023,0.063-0.042c0.379-0.394,0.291-1.497,0.169-2.595c-0.043-0.385-0.081-0.692-0.041-0.754
			c0.01-0.012,0.019-0.016,0.028-0.014c0.352,0.111,0.573,0.76,0.643,1.875c0.029,0.471,0.025,0.928,0.018,1.228
			c-0.002,0.071,0.035,0.137,0.096,0.169c0.06,0.033,0.133,0.027,0.186-0.015c0.143-0.11,0.357-0.241,0.57-0.241
			c0.111,0,0.208,0.033,0.297,0.104l0,0c0.16,0.179,0.021,0.382-0.326,0.744c-0.239,0.246-0.348,0.377-0.355,0.502
			c-0.003,0.027,0.002,0.057,0.012,0.084c0.113,0.292,0.563,0.383,0.996,0.471c0.362,0.072,0.704,0.141,0.758,0.33
			c0.033,0.121-0.054,0.283-0.267,0.496C13.746,14.697,12.695,15,11.626,15c-1.171,0-2.118-0.354-2.596-0.973
			c-0.081-0.104-0.109-0.191-0.085-0.259c0.051-0.144,0.33-0.194,0.623-0.248C9.982,13.445,10.282,13.376,10.37,13.176z
			 M9.545,4.954C9.166,4.123,8.881,3.271,8.741,2.557C8.692,2.308,8.662,2.08,8.651,1.877l0,0C8.797,2.018,8.95,2.191,9.105,2.39
			c0.449,0.574,0.904,1.348,1.284,2.178c0.379,0.831,0.664,1.682,0.804,2.397c0.048,0.249,0.078,0.478,0.089,0.679
			c-0.146-0.141-0.298-0.313-0.454-0.512C10.379,6.559,9.924,5.785,9.545,4.954z M4.534,1.071C4.564,1.025,4.68,0.918,5.11,0.918
			c0.28,0,0.631,0.046,1.042,0.136c0.227,0.05,0.473,0.113,0.731,0.189L5.015,2.095C4.8,1.865,4.65,1.657,4.568,1.476
			C4.545,1.428,4.529,1.382,4.517,1.338C4.485,1.225,4.491,1.138,4.534,1.071z"/>
	</g>
</g>
</svg>
