<?xml version="1.0" encoding="utf-8"?>
<!-- Generator: Adobe Illustrator 15.1.0, SVG Export Plug-In . SVG Version: 6.00 Build 0)  -->
<!DOCTYPE svg PUBLIC "-//W3C//DTD SVG 1.1//EN" "http://www.w3.org/Graphics/SVG/1.1/DTD/svg11.dtd">
<svg version="1.1" id="Layer_1" xmlns="http://www.w3.org/2000/svg" xmlns:xlink="http://www.w3.org/1999/xlink" x="0px" y="0px"
	 width="16px" height="16px" viewBox="0 0 16 16" enable-background="new 0 0 16 16" xml:space="preserve">
<g>
	<path fill="#FFFFFF" d="M0.009,14.312L0,10.242c0-0.201,0.205-0.335,0.388-0.258l3.707,1.584c0.102,0.044,0.168,0.146,0.168,0.256
		l0.009,4.071c0.001,0.199-0.204,0.336-0.388,0.258l-3.705-1.586C0.076,14.524,0.009,14.422,0.009,14.312z M8.5,10.433l-3.419,1.482
		l0.009,3.769l3.419-1.484L8.5,10.433 M8.636,9.943c0.149-0.001,0.28,0.117,0.28,0.279l0.01,4.07c0,0.109-0.067,0.212-0.167,0.255
		l-3.699,1.601c-0.036,0.016-0.074,0.024-0.11,0.024c-0.146,0-0.278-0.119-0.279-0.277l-0.009-4.071c0-0.11,0.065-0.215,0.167-0.256
		l3.698-1.604C8.564,9.949,8.602,9.943,8.636,9.943L8.636,9.943z M4.437,7.65L0.889,9.232l3.555,1.568L7.99,9.216L4.437,7.65
		 M4.435,7.219c0.039,0,0.078,0.008,0.113,0.024l3.897,1.718c0.223,0.098,0.223,0.411,0.002,0.511l-3.89,1.735
		c-0.037,0.016-0.075,0.024-0.114,0.026c-0.038,0-0.076-0.009-0.113-0.024l-3.898-1.72c-0.221-0.097-0.222-0.411-0.001-0.51
		l3.891-1.736C4.358,7.227,4.397,7.219,4.435,7.219L4.435,7.219z"/>
</g>
<g>
	<path fill="#FFFFFF" d="M0.009,7.094L0,3.022c0-0.2,0.205-0.335,0.388-0.257L4.094,4.35c0.102,0.044,0.168,0.145,0.168,0.257
		l0.009,4.07c0.001,0.199-0.204,0.334-0.388,0.258L0.179,7.349C0.076,7.304,0.009,7.205,0.009,7.094z M8.5,3.215L5.081,4.696
		l0.009,3.768l3.419-1.482L8.5,3.215 M8.636,2.725c0.149-0.002,0.28,0.116,0.28,0.277l0.01,4.07c0,0.111-0.067,0.212-0.167,0.256
		L5.061,8.931C5.025,8.946,4.987,8.953,4.95,8.953c-0.146,0-0.278-0.118-0.279-0.277L4.662,4.604c0-0.109,0.065-0.211,0.167-0.255
		l3.698-1.603C8.564,2.731,8.602,2.725,8.636,2.725L8.636,2.725z M4.437,0.432L0.889,2.014l3.555,1.568L7.99,1.998L4.437,0.432
		 M4.435,0c0.039,0,0.078,0.008,0.113,0.024l3.897,1.718C8.669,1.84,8.669,2.153,8.448,2.252l-3.89,1.735
		C4.521,4.005,4.483,4.013,4.444,4.014c-0.038,0-0.076-0.008-0.113-0.023L0.433,2.27C0.212,2.173,0.211,1.858,0.432,1.761
		l3.891-1.737C4.358,0.008,4.397,0,4.435,0L4.435,0z"/>
</g>
<g>
	<path fill="#FFFFFF" d="M6.7,10.753L6.69,6.682c0-0.2,0.204-0.335,0.388-0.257l3.707,1.584c0.102,0.044,0.167,0.145,0.169,0.256
		l0.007,4.069c0.002,0.202-0.204,0.336-0.388,0.258L6.87,11.008C6.767,10.963,6.7,10.863,6.7,10.753z M15.19,6.874L11.77,8.355
		l0.009,3.767l3.419-1.481L15.19,6.874 M15.327,6.384c0.148-0.002,0.278,0.116,0.278,0.277l0.009,4.07
		c0,0.112-0.064,0.212-0.166,0.257L11.75,12.59c-0.034,0.015-0.071,0.023-0.11,0.023c-0.146,0-0.276-0.119-0.276-0.279l-0.011-4.07
		c0-0.11,0.064-0.212,0.168-0.256l3.696-1.603C15.253,6.391,15.29,6.384,15.327,6.384L15.327,6.384z M11.127,4.09L7.579,5.673
		l3.555,1.568l3.548-1.584L11.127,4.09 M11.125,3.659c0.039,0,0.078,0.008,0.114,0.024l3.895,1.718
		c0.226,0.098,0.226,0.411,0.005,0.511l-3.893,1.735c-0.034,0.017-0.071,0.024-0.112,0.026c-0.037,0-0.078-0.008-0.112-0.023
		L7.123,5.929C6.902,5.833,6.901,5.518,7.122,5.42l3.893-1.737C11.049,3.667,11.086,3.659,11.125,3.659L11.125,3.659z"/>
</g>
</svg>
