<?xml version="1.0" encoding="utf-8"?>
<!-- Generator: Adobe Illustrator 15.1.0, SVG Export Plug-In . SVG Version: 6.00 Build 0)  -->
<!DOCTYPE svg PUBLIC "-//W3C//DTD SVG 1.1//EN" "http://www.w3.org/Graphics/SVG/1.1/DTD/svg11.dtd">
<svg version="1.1" id="Layer_1" xmlns="http://www.w3.org/2000/svg" xmlns:xlink="http://www.w3.org/1999/xlink" x="0px" y="0px"
	 width="20px" height="16px" viewBox="0 0 20 16" enable-background="new 0 0 20 16" xml:space="preserve">
<rect x="-62.024" y="-0.236" fill="#C9003A" width="16" height="16"/>
<g>
	<g id="share">
		<path fill="#2C343E" d="M30.187-18.28l0.935-7.997l-2.552,2.016C24.4-28.225,19.697-27.616,16-25.732
			c3.494-0.17,6.281,1.254,8.805,4.448l-2.617,2.068L30.187-18.28z"/>
	</g>
</g>
<g>
	<g>
		<path fill="#2C343E" d="M-36.687,3.229h1.214v0.501c0,0.344,0.279,0.624,0.622,0.624h4.736c0.343,0,0.623-0.279,0.623-0.624V3.229
			h1.215V5.66h1.188V2.741c0-0.454-0.369-0.823-0.823-0.823h-1.524V1.892c0-0.348-0.282-0.632-0.631-0.632h-0.993V0.631
			C-31.06,0.283-31.343,0-31.69,0h-1.581c-0.349,0-0.633,0.283-0.633,0.631V1.26h-0.992c-0.349,0-0.633,0.284-0.633,0.632v0.026
			h-1.523c-0.452,0-0.822,0.369-0.822,0.823v12.437c0,0.452,0.37,0.822,0.822,0.822h2.879v-1.221h-2.513V3.229z M-32.935,0.863
			h0.905v0.286h-0.905V0.863z"/>
		<path fill="#2C343E" d="M-26.612,7.736V6.971h-0.882v0.765h-0.794V6.971h-0.881v0.765h-0.832V6.971h-0.881v0.765h-0.881V6.971
			h-0.88v0.765h-0.524V16h7.078V7.736H-26.612z M-27.105,14.131h-5.044v-0.607h5.044V14.131z M-27.105,12.172h-5.044v-0.606h5.044
			V12.172z M-27.105,10.214h-5.044V9.606h5.044V10.214z"/>
	</g>
</g>
<polyline fill="#2C343E" points="14.625,6.641 20.125,6.641 17.375,10.336 "/>
<g>
	<g>
		<path fill="#2C343E" d="M-4.763-7.342c-0.078-0.266-0.292-0.461-0.635-0.58c-0.193-0.067-0.411-0.109-0.644-0.154
			c-0.188-0.037-0.383-0.074-0.54-0.123C-6.6-8.205-6.618-8.211-6.635-8.217c0.041-0.041,0.082-0.082,0.118-0.117
			C-6.35-8.499-6.178-8.67-6.06-8.863c0.22-0.363,0.194-0.746-0.067-1.026c0,0-0.25-0.282-0.729-0.282
			c-0.134,0-0.274,0.023-0.415,0.071c0.004-0.255,0.002-0.502-0.007-0.733c-0.044-1.203-0.243-1.953-0.626-2.359
			c0-0.921-0.366-2.276-0.981-3.625c-0.936-2.051-2.169-3.54-2.933-3.54c-0.072,0-0.139,0.014-0.2,0.042
			c-0.007,0.003-0.015,0.007-0.023,0.012l-0.377,0.172c-0.275-0.096-0.826-0.276-1.418-0.406c-0.455-0.1-0.848-0.151-1.17-0.151
			c-0.547,0-0.905,0.14-1.094,0.429c-0.098,0.15-0.193,0.404-0.094,0.762c0.02,0.072,0.048,0.147,0.083,0.224
			c0.383,0.839,2.136,2.229,4.078,3.233c0.043,0.022,0.092,0.028,0.139,0.018c0.039-0.009,0.079-0.014,0.12-0.014
			c0.209,0,0.401,0.123,0.489,0.314c0.06,0.131,0.064,0.277,0.014,0.411c-0.049,0.134-0.149,0.241-0.279,0.301
			c-0.071,0.032-0.146,0.049-0.223,0.049c-0.21,0-0.403-0.124-0.489-0.314c-0.019-0.042-0.032-0.084-0.04-0.128
			c-0.011-0.063-0.051-0.116-0.106-0.145c-1.546-0.801-2.967-1.811-3.8-2.7c-0.06-0.063-0.153-0.082-0.232-0.046l-3.254,1.484
			c-0.082,0.037-0.128,0.123-0.117,0.211c0.06,0.454,0.328,2.098,1.28,4.184c0.952,2.088,2.017,3.367,2.321,3.709
			c0.059,0.068,0.155,0.088,0.236,0.051l6.781-3.094c0.01,0.063,0.018,0.127,0.027,0.193c0.059,0.428,0.124,0.914,0.125,1.313
			c0.002,0.28-0.029,0.437-0.057,0.518l0,0c-0.08-0.008-0.178-0.025-0.273-0.041C-9.57-9.802-9.771-9.836-9.964-9.836
			c-0.471,0-0.692,0.217-0.796,0.399c-0.243,0.427-0.002,0.951,0.236,1.36c-0.134,0.037-0.316,0.068-0.438,0.09
			c-0.182,0.031-0.37,0.064-0.533,0.116c-0.304,0.097-0.502,0.263-0.588,0.493c-0.068,0.18-0.091,0.467,0.182,0.805
			c0.357,0.44,0.872,0.773,1.529,0.989c0.545,0.179,1.188,0.272,1.861,0.272c0.649,0,1.299-0.084,1.879-0.244
			c0.433-0.119,1.029-0.339,1.419-0.709C-5.049-6.42-4.613-6.834-4.763-7.342z M-9.755-7.824c0.047-0.107,0.024-0.24-0.07-0.407
			c-0.228-0.401-0.307-0.675-0.232-0.811c0.016-0.029,0.063-0.118,0.29-0.118c0.131,0,0.287,0.027,0.438,0.054
			c0.146,0.025,0.285,0.05,0.397,0.05c0.06,0,0.106-0.007,0.144-0.021c0.023-0.009,0.045-0.023,0.063-0.042
			c0.379-0.394,0.291-1.497,0.169-2.595c-0.043-0.385-0.081-0.692-0.041-0.754c0.01-0.012,0.019-0.016,0.028-0.014
			c0.352,0.111,0.573,0.76,0.643,1.875C-7.898-10.137-7.902-9.68-7.91-9.38c-0.002,0.071,0.035,0.137,0.096,0.169
			c0.06,0.033,0.133,0.027,0.186-0.015c0.143-0.11,0.357-0.241,0.57-0.241c0.111,0,0.208,0.033,0.297,0.104l0,0
			c0.16,0.179,0.021,0.382-0.326,0.744c-0.239,0.246-0.348,0.377-0.355,0.502C-7.446-8.09-7.441-8.061-7.432-8.033
			c0.113,0.292,0.563,0.383,0.996,0.471c0.362,0.072,0.704,0.141,0.758,0.33c0.033,0.121-0.054,0.283-0.267,0.496
			C-6.379-6.303-7.43-6-8.499-6c-1.171,0-2.118-0.354-2.596-0.973c-0.081-0.104-0.109-0.191-0.085-0.259
			c0.051-0.144,0.33-0.194,0.623-0.248C-10.143-7.555-9.843-7.624-9.755-7.824z M-10.58-16.046
			c-0.379-0.831-0.664-1.683-0.804-2.397c-0.049-0.249-0.079-0.477-0.09-0.679l0,0c0.146,0.141,0.299,0.313,0.454,0.513
			c0.449,0.574,0.904,1.348,1.284,2.178c0.379,0.831,0.664,1.682,0.804,2.397c0.048,0.249,0.078,0.478,0.089,0.679
			c-0.146-0.141-0.298-0.313-0.454-0.512C-9.746-14.441-10.201-15.215-10.58-16.046z M-15.591-19.929
			c0.03-0.046,0.146-0.153,0.576-0.153c0.28,0,0.631,0.046,1.042,0.136c0.227,0.05,0.473,0.113,0.731,0.189l-1.868,0.852
			c-0.214-0.23-0.365-0.438-0.447-0.619c-0.022-0.048-0.039-0.094-0.051-0.138C-15.64-19.775-15.634-19.862-15.591-19.929z"/>
	</g>
</g>
<g id="Edit">
	<path fill="#2C343E" d="M-33.839-17.504c-0.317-0.318-0.833-0.318-1.149,0l-0.289,0.288l-4.025,4.03l0.001,0.002l-0.127,0.127
		c0,0-0.404,0.407-1.318,3.356c-0.006,0.021-0.013,0.041-0.019,0.062c-0.017,0.052-0.033,0.106-0.05,0.161
		c-0.014,0.048-0.029,0.097-0.044,0.146c-0.012,0.042-0.025,0.083-0.038,0.125c-0.029,0.098-0.059,0.195-0.088,0.296
		c-0.065,0.224-0.226,0.725-0.044,0.907c0.174,0.176,0.682,0.021,0.904-0.045c0.101-0.029,0.198-0.059,0.294-0.089
		c0.044-0.013,0.087-0.025,0.13-0.038c0.046-0.015,0.093-0.028,0.138-0.043c0.058-0.018,0.114-0.034,0.169-0.052
		c0.017-0.006,0.033-0.011,0.049-0.015c2.805-0.875,3.309-1.285,3.351-1.321c0,0,0,0,0,0c0.001-0.003,0.003-0.003,0.003-0.003
		l0.13-0.131l0.009,0.009l4.025-4.03l0,0l0.289-0.288c0.316-0.318,0.316-0.834,0-1.151L-33.839-17.504z M-36.454-10.131
		c-0.003,0.002-0.008,0.006-0.013,0.009c-0.002,0.002-0.006,0.003-0.009,0.006c-0.004,0.002-0.007,0.005-0.011,0.006
		c-0.003,0.003-0.007,0.005-0.011,0.008c-0.134,0.08-0.527,0.287-1.481,0.632c-0.111,0.04-0.233,0.083-0.36,0.127l-1.356-1.356
		c0.044-0.129,0.087-0.25,0.127-0.362c0.345-0.959,0.551-1.353,0.631-1.486c0.002-0.004,0.004-0.007,0.005-0.01
		c0.003-0.005,0.006-0.01,0.008-0.013c0.002-0.003,0.004-0.007,0.006-0.009c0.003-0.006,0.006-0.01,0.008-0.013l0.1-0.101
		l2.458,2.461L-36.454-10.131z M-29.238-17.504l-2.301-2.303c-0.316-0.318-0.832-0.318-1.15,0l-0.574,0.576
		c-0.317,0.318-0.317,0.833,0,1.151l2.301,2.303c0.317,0.318,0.832,0.318,1.15,0l0.574-0.576
		C-28.92-16.67-28.92-17.187-29.238-17.504z"/>
</g>
<rect x="4.962" fill="#2C343E" width="0.875" height="15.764"/>
<g>
	<g>
		<polyline fill="none" stroke="#2C343E" stroke-miterlimit="10" points="-9.75,15.646 -10.25,15.646 -10.25,15.146 		"/>
		
			<line fill="none" stroke="#2C343E" stroke-miterlimit="10" stroke-dasharray="0.8685,0.8685,0.8685,0.8685" x1="-10.25" y1="14.277" x2="-10.25" y2="11.237"/>
		
			<line fill="none" stroke="#2C343E" stroke-miterlimit="10" stroke-dasharray="0.8685,0.8685,0.8685,0.8685,0.8685,0.8685" x1="-10.25" y1="10.804" x2="-10.25" y2="0.816"/>
		<polyline fill="none" stroke="#2C343E" stroke-miterlimit="10" points="-10.25,0.382 -10.25,-0.118 -9.75,-0.118 		"/>
		
			<line fill="none" stroke="#2C343E" stroke-miterlimit="10" stroke-dasharray="0.1281,0.1281,0.1281,0.1281" x1="-9.622" y1="-0.118" x2="-9.173" y2="-0.118"/>
		<polyline fill="none" stroke="#2C343E" stroke-miterlimit="10" points="-9.109,-0.118 -8.609,-0.118 -8.609,0.382 		"/>
		
			<line fill="none" stroke="#2C343E" stroke-miterlimit="10" stroke-dasharray="0.8685,0.8685,0.8685,0.8685" x1="-8.609" y1="1.25" x2="-8.609" y2="4.29"/>
		
			<line fill="none" stroke="#2C343E" stroke-miterlimit="10" stroke-dasharray="0.8685,0.8685,0.8685,0.8685,0.8685,0.8685" x1="-8.609" y1="4.724" x2="-8.609" y2="14.711"/>
		<polyline fill="none" stroke="#2C343E" stroke-miterlimit="10" points="-8.609,15.146 -8.609,15.646 -9.109,15.646 		"/>
		
			<line fill="none" stroke="#2C343E" stroke-miterlimit="10" stroke-dasharray="0.1281,0.1281,0.1281,0.1281" x1="-9.237" y1="15.646" x2="-9.686" y2="15.646"/>
	</g>
</g>
<rect x="8.961" fill="#2C343E" width="2.078" height="15.764"/>
<rect x="-4.732" y="19.875" fill="#868D93" width="18.5" height="0.875"/>
<line fill="none" stroke="#2C343E" stroke-miterlimit="10" stroke-dasharray="1,1,1" x1="1" y1="0" x2="1" y2="15.764"/>
</svg>
