<?xml version="1.0" encoding="utf-8"?>
<!-- Generator: Adobe Illustrator 15.1.0, SVG Export Plug-In . SVG Version: 6.00 Build 0)  -->
<!DOCTYPE svg PUBLIC "-//W3C//DTD SVG 1.1//EN" "http://www.w3.org/Graphics/SVG/1.1/DTD/svg11.dtd">
<svg version="1.1" id="Layer_1" xmlns="http://www.w3.org/2000/svg" xmlns:xlink="http://www.w3.org/1999/xlink" x="0px" y="0px"
	 width="150px" height="50px" viewBox="0 0 150 50" enable-background="new 0 0 150 50" xml:space="preserve">
<path fill="#C17BFF" d="M26.2,21.253c0,0.908-0.736,1.644-1.644,1.644H7.236c-0.908,0-1.644-0.736-1.644-1.644l0,0
	c0-0.907,0.736-1.643,1.644-1.643h17.32C25.464,19.61,26.2,20.346,26.2,21.253L26.2,21.253z"/>
<g>
	<g>
		<path fill="#FFFFFF" d="M46.64,25.952c0,1.166-0.195,2.244-0.583,3.238c-0.388,0.994-0.934,1.854-1.637,2.578
			c-0.704,0.727-1.551,1.291-2.541,1.701c-0.989,0.404-2.085,0.609-3.288,0.609c-1.203,0-2.3-0.205-3.293-0.609
			c-0.993-0.41-1.844-0.975-2.551-1.701c-0.708-0.725-1.256-1.584-1.644-2.578c-0.389-0.994-0.583-2.072-0.583-3.238
			s0.194-2.245,0.583-3.239c0.388-0.993,0.936-1.852,1.644-2.578c0.707-0.726,1.558-1.292,2.551-1.7
			c0.993-0.407,2.09-0.61,3.293-0.61c1.203,0,2.298,0.205,3.288,0.616c0.99,0.411,1.837,0.978,2.541,1.699
			c0.703,0.722,1.249,1.58,1.637,2.573C46.445,23.707,46.64,24.786,46.64,25.952z M43.604,25.952c0-0.873-0.116-1.655-0.346-2.348
			c-0.231-0.693-0.563-1.281-0.995-1.765c-0.432-0.484-0.959-0.854-1.578-1.111c-0.62-0.256-1.318-0.384-2.095-0.384
			s-1.477,0.128-2.1,0.384c-0.623,0.257-1.153,0.627-1.589,1.111c-0.437,0.483-0.772,1.072-1.007,1.765
			c-0.234,0.693-0.352,1.476-0.352,2.348s0.117,1.655,0.352,2.347c0.235,0.691,0.57,1.279,1.007,1.76
			c0.436,0.48,0.966,0.848,1.589,1.105c0.623,0.256,1.323,0.383,2.1,0.383s1.475-0.127,2.095-0.383
			c0.619-0.258,1.146-0.625,1.578-1.105s0.764-1.068,0.995-1.76C43.489,27.606,43.604,26.824,43.604,25.952z"/>
		<path fill="#FFFFFF" d="M49.532,18.018c0.087,0.011,0.166,0.033,0.236,0.066c0.069,0.033,0.137,0.081,0.203,0.143
			c0.066,0.062,0.14,0.145,0.22,0.248l8.346,10.633c-0.03-0.256-0.05-0.508-0.06-0.754c-0.012-0.245-0.016-0.475-0.016-0.688v-9.665
			h2.605v15.901h-1.527c-0.236,0-0.43-0.037-0.584-0.111c-0.154-0.072-0.304-0.205-0.451-0.395l-8.313-10.59
			c0.022,0.235,0.039,0.468,0.05,0.699c0.011,0.23,0.017,0.441,0.017,0.632v9.766h-2.606V18.001h1.551
			C49.333,18.001,49.443,18.007,49.532,18.018z"/>
		<path fill="#FFFFFF" d="M72.986,18.001v2.353h-7.048v4.41h5.553v2.276h-5.553v4.497h7.048v2.365H62.958V18.001H72.986z"/>
		<path fill="#FFFFFF" d="M72.755,18.001h2.484c0.258,0,0.472,0.061,0.645,0.181c0.171,0.121,0.287,0.285,0.346,0.49l2.705,9.512
			c0.065,0.234,0.127,0.488,0.181,0.764c0.056,0.275,0.108,0.566,0.16,0.875c0.06-0.309,0.124-0.6,0.193-0.875
			c0.068-0.275,0.144-0.529,0.224-0.764l3.123-9.512c0.058-0.169,0.174-0.323,0.347-0.462s0.384-0.209,0.634-0.209h0.867
			c0.257,0,0.47,0.061,0.639,0.181c0.169,0.121,0.285,0.285,0.352,0.49l3.102,9.512c0.16,0.469,0.301,0.99,0.418,1.561
			c0.051-0.285,0.104-0.561,0.159-0.824c0.055-0.264,0.111-0.51,0.17-0.736l2.706-9.512c0.051-0.183,0.163-0.341,0.34-0.473
			c0.175-0.132,0.389-0.198,0.638-0.198h2.32l-4.938,15.901h-2.672l-3.476-10.865c-0.043-0.139-0.089-0.289-0.136-0.451
			c-0.049-0.161-0.096-0.333-0.139-0.517c-0.044,0.183-0.091,0.355-0.138,0.517c-0.048,0.162-0.095,0.312-0.137,0.451l-3.508,10.865
			h-2.672L72.755,18.001z"/>
		<path fill="#FFFFFF" d="M105.953,18.001v2.353h-7.05v4.41h5.554v2.276h-5.554v4.497h7.05v2.365H95.924V18.001H105.953z"/>
		<path fill="#FFFFFF" d="M107.194,33.902V18.001h5.486c1.041,0,1.932,0.099,2.667,0.297c0.736,0.198,1.342,0.48,1.814,0.847
			c0.473,0.367,0.819,0.81,1.04,1.33c0.219,0.521,0.33,1.107,0.33,1.759c0,0.374-0.057,0.731-0.166,1.072
			c-0.11,0.341-0.28,0.66-0.511,0.957s-0.525,0.566-0.881,0.809c-0.355,0.242-0.778,0.447-1.269,0.616
			c2.184,0.49,3.275,1.672,3.275,3.541c0,0.674-0.128,1.297-0.384,1.869c-0.257,0.572-0.632,1.064-1.122,1.479
			c-0.491,0.414-1.096,0.738-1.814,0.973c-0.718,0.236-1.539,0.354-2.462,0.354H107.194z M110.152,24.885h2.364
			c1.004,0,1.766-0.183,2.287-0.55c0.52-0.367,0.781-0.949,0.781-1.748c0-0.828-0.236-1.418-0.704-1.771
			c-0.47-0.352-1.201-0.528-2.2-0.528h-2.528V24.885z M110.152,26.93v4.662h3.002c0.551,0,1.01-0.064,1.38-0.197
			s0.668-0.309,0.891-0.527c0.224-0.221,0.386-0.477,0.483-0.77c0.1-0.293,0.149-0.605,0.149-0.936c0-0.344-0.055-0.654-0.165-0.93
			c-0.111-0.274-0.282-0.509-0.517-0.703c-0.235-0.194-0.535-0.342-0.902-0.445c-0.366-0.103-0.811-0.154-1.33-0.154H110.152z"/>
	</g>
</g>
<path fill="#E3FF7D" d="M26.2,26.214c0,0.908-0.736,1.644-1.644,1.644H7.236c-0.908,0-1.644-0.735-1.644-1.644l0,0
	c0-0.907,0.736-1.643,1.644-1.643h17.32C25.464,24.571,26.2,25.307,26.2,26.214L26.2,26.214z"/>
<path fill="#A9E0FF" d="M26.2,31.152c0,0.908-0.736,1.643-1.644,1.643H7.236c-0.908,0-1.644-0.734-1.644-1.643l0,0
	c0-0.908,0.736-1.645,1.644-1.645h17.32C25.464,29.508,26.2,30.244,26.2,31.152L26.2,31.152z"/>
</svg>
