<?xml version="1.0" encoding="utf-8"?>
<!-- Generator: Adobe Illustrator 15.1.0, SVG Export Plug-In . SVG Version: 6.00 Build 0)  -->
<!DOCTYPE svg PUBLIC "-//W3C//DTD SVG 1.1//EN" "http://www.w3.org/Graphics/SVG/1.1/DTD/svg11.dtd">
<svg version="1.1" id="Layer_1" xmlns="http://www.w3.org/2000/svg" xmlns:xlink="http://www.w3.org/1999/xlink" x="0px" y="0px"
	 width="25px" height="25px" viewBox="0 0 25 25" enable-background="new 0 0 25 25" xml:space="preserve">
<rect fill="#4C60A2" width="25" height="25"/>
<g>
	<g>
		<g>
			<path fill="#FFFFFF" d="M-54.041,3.158c0.018-0.009,0.034-0.017,0.051-0.024c-0.007-0.009-0.013-0.017-0.018-0.026
				C-54.018,3.123-54.03,3.143-54.041,3.158z"/>
			<path fill="#FFFFFF" d="M-57.223,2.914c-1.289,0-2.489-0.37-3.514-1c0.922,0.01-0.686-1.402,0.422-1.619
				c1.162-0.229,1.651-1.557,1.279-1.537c-0.371,0.02-1.078-0.191-1.575-0.816c-0.498-0.629-0.934-0.484-1.447-0.387
				c-0.449,0.089-1.002,1.387-1.139,1.729c-0.35-0.67-0.586-1.405-0.693-2.183c0.57-0.298,1.5-0.8,1.836-1.077
				c0.496-0.411-0.166-0.577-0.247-0.825c-0.081-0.248,0-0.825,0-1.398c0-0.578,1.154-0.578,1.563-1.154
				c0.294-0.411-0.245-1.317-0.581-1.808c1.136-0.874,2.554-1.4,4.095-1.4c0.408,0,0.807,0.042,1.195,0.113
				c0.115,0.709,0.352,1.686,0.811,1.94c0.744,0.412,1.643,1.318,1.976,1.481c0.331,0.165,0.739,1.567,0.659,2.144
				c-0.059,0.407-0.563,0.855-0.77,1.286l3.433,2.139c0.242-0.745,0.376-1.538,0.376-2.364c0-4.234-3.447-7.677-7.679-7.677
				c-4.235,0-7.679,3.443-7.679,7.677c0,4.235,3.444,7.68,7.679,7.68c0.161,0,0.318-0.016,0.476-0.024l-0.179-0.935
				C-57.025,2.902-57.123,2.914-57.223,2.914z M-50.568-2.828c-0.145-0.577-0.426-1.133-1.024-1.562
				c-0.409-0.289-0.743-1.564-0.495-1.978c0.148-0.246,0.535-0.463,0.819-0.598c0.497,0.939,0.782,2.007,0.782,3.143
				C-50.486-3.484-50.52-3.154-50.568-2.828z"/>
			<path fill="#FFFFFF" d="M-52.556,0.541l3.206-0.639l-8.032-5.005l-0.19,0.132l1.789,9.292l1.746-2.762l1.693,2.467
				c0.32,0.464,0.911,0.613,1.32,0.334c0.406-0.281,0.48-0.888,0.16-1.353L-52.556,0.541z"/>
		</g>
	</g>
</g>
<g>
	<g id="Layer_1_14_">
		<g>
			<g>
				<g>
					<path fill="#FFFFFF" d="M-55.132,7.318c-3.678,0-6.658,1.087-6.658,2.428v1.992c0,1.342,2.98,2.428,6.658,2.428
						c3.677,0,6.658-1.087,6.658-2.428V9.746C-48.474,8.405-51.456,7.318-55.132,7.318z"/>
				</g>
			</g>
			<g>
				<g>
					<path fill="#FFFFFF" d="M-55.132,15.328c-3.512,0-6.406-0.992-6.658-2.25c-0.013,0.061,0,3.291,0,3.291
						c0,1.342,2.98,2.428,6.658,2.428c3.677,0,6.658-1.087,6.658-2.428c0,0,0.007-3.23-0.004-3.291
						C-48.732,14.336-51.622,15.328-55.132,15.328z"/>
				</g>
			</g>
			<path fill="#FFFFFF" d="M-48.48,17.767c-0.254,1.257-3.142,2.249-6.652,2.249c-3.512,0-6.406-0.994-6.66-2.249l0.002,3.29
				c0,1.342,2.98,2.429,6.658,2.429c3.677,0,6.658-1.087,6.658-2.429L-48.48,17.767z"/>
		</g>
	</g>
</g>
<g>
	<g>
		<path fill="#FFFFFF" d="M-31.896-21.263c-4.455,0-8.08,3.625-8.08,8.08s3.625,8.08,8.08,8.08s8.08-3.625,8.08-8.08
			S-27.441-21.263-31.896-21.263z M-31.896-6.823c-3.507,0-6.361-2.853-6.361-6.36s2.854-6.361,6.361-6.361s6.36,2.853,6.36,6.361
			S-28.389-6.823-31.896-6.823z"/>
		<path fill="#FFFFFF" d="M-27.685-13.433h-3.631v-4.366c0-0.368-0.298-0.665-0.666-0.665c-0.367,0-0.665,0.297-0.665,0.665v5.031
			c0,0.367,0.298,0.665,0.665,0.665h4.297c0.367,0,0.665-0.298,0.665-0.665C-27.02-13.135-27.318-13.433-27.685-13.433z"/>
	</g>
</g>
<rect x="-38.939" y="17.083" transform="matrix(0.7071 0.7071 -0.7071 0.7071 7.7174 29.6212)" fill="#FFFFFF" width="14.085" height="14.085"/>
<path fill="#FFFFFF" d="M12.5,2.54L2.541,12.5l9.959,9.96l9.96-9.96L12.5,2.54z M12.979,17.297l-1-0.005l0.02-4.29l-4.291,0.02
	l-0.005-0.999l4.3-0.021l0.02-4.299l1,0.004l-0.021,4.291l4.29-0.021l0.005,1l-4.299,0.02L12.979,17.297z"/>
<polygon points="-17.139,5.275 -17.144,4.274 -21.434,4.295 -21.414,0.004 -22.414,0 -22.434,4.299 -26.734,4.32 -26.729,5.319 
	-22.438,5.299 -22.458,9.589 -21.458,9.594 -21.438,5.294 "/>
</svg>
