<?xml version="1.0" encoding="utf-8"?>
<!-- Generator: Adobe Illustrator 15.1.0, SVG Export Plug-In . SVG Version: 6.00 Build 0)  -->
<!DOCTYPE svg PUBLIC "-//W3C//DTD SVG 1.1//EN" "http://www.w3.org/Graphics/SVG/1.1/DTD/svg11.dtd">
<svg version="1.1" id="Layer_1" xmlns="http://www.w3.org/2000/svg" xmlns:xlink="http://www.w3.org/1999/xlink" x="0px" y="0px"
	 width="16px" height="16px" viewBox="0 0 16 16" enable-background="new 0 0 16 16" xml:space="preserve">
<rect x="-42.667" y="-0.019" fill="#C9003A" width="16" height="16"/>
<g>
	<g id="share">
		<path fill="#2C343E" d="M-19.46-5.975l-2.617-2.068c2.523-3.194,5.31-4.618,8.805-4.448c-3.697-1.885-8.4-2.493-12.569,1.471
			l-2.552-2.016l0.935,7.997L-19.46-5.975z"/>
	</g>
</g>
<path fill="#2C343E" d="M0.344-19c0,3.98,3.215,7.273,7.273,7.273c3.367,0,6.201-2.297,7.043-5.358h-1.607
	c-0.842,2.221-2.908,3.828-5.436,3.828c-3.14,0-5.744-2.604-5.744-5.743s2.604-5.742,5.744-5.742c2.296,0,4.21,1.301,5.207,3.216
	l-2.145,2.144h4.977v-4.978l-1.762,1.761c-1.226-2.22-3.6-3.675-6.277-3.675C3.635-26.274,0.344-22.982,0.344-19z"/>
<g>
	<g>
		<path fill="#2C343E" d="M35.452-12.635l-1.935-1.134c-0.104,0.012-0.211,0.032-0.314,0.064c-0.506,0.144-1.236,0.559-1.848,1.715
			c-0.486,0.918-0.308,1.708-0.148,2.402c0.152,0.661,0.271,1.187-0.174,1.709c-0.043,0.052-0.055,0.124-0.031,0.188
			c0.016,0.037,0.044,0.068,0.078,0.092c0.021,0.011,0.047,0.02,0.07,0.021c1.123,0.143,2.808-0.52,3.843-2.311
			c0.472-0.812,0.674-1.593,0.586-2.258C35.557-12.32,35.516-12.484,35.452-12.635z M33.557-12.513
			c-0.035,0.093-0.102,0.164-0.19,0.206c-0.653,0.294-0.771,0.812-0.773,0.833c-0.026,0.135-0.132,0.248-0.268,0.285
			c-0.013,0.003-0.025,0.005-0.037,0.007c-0.043,0.009-0.086,0.009-0.127-0.002c-0.2-0.037-0.331-0.229-0.293-0.43
			c0.007-0.037,0.184-0.909,1.192-1.365c0.021-0.008,0.039-0.015,0.058-0.022c0.177-0.045,0.354,0.041,0.432,0.206
			C33.588-12.707,33.591-12.605,33.557-12.513z"/>
		<path fill="#2C343E" d="M39.977-22.697c-0.388-0.225-0.884-0.112-1.134,0.259c-0.159,0.234-3.881,5.722-4.36,6.548
			c-0.239,0.413-0.51,1.084-0.732,1.697l1.936,1.134c0.422-0.499,0.869-1.069,1.115-1.488c0.482-0.837,3.395-6.782,3.516-7.036
			C40.514-21.985,40.366-22.472,39.977-22.697z"/>
		<path fill="#2C343E" d="M30.689-10.557c-0.166-0.053-0.328-0.085-0.49-0.096c-0.027-0.001-0.057-0.003-0.088-0.003
			c-0.246,0-0.555,0.054-0.855,0.106c-0.266,0.048-0.518,0.092-0.693,0.092c-0.123,0-0.168-0.023-0.18-0.035
			c-0.15-0.187,0.066-0.696,0.158-0.915c0.023-0.056,0.042-0.1,0.053-0.13c0.15-0.441,0.262-0.912,0.053-1.355
			c-0.174-0.372-0.576-0.665-1.022-0.752c-0.131-0.03-0.281-0.044-0.474-0.044c-0.155,0-0.324,0.01-0.487,0.019
			c-0.168,0.011-0.34,0.02-0.506,0.02c-0.57,0-0.896-0.129-1.097-0.432c-0.365-0.584,0.074-1.63,0.527-2.066
			c0.028-0.027,0.032-0.07,0.006-0.099c-0.023-0.031-0.068-0.037-0.1-0.013c-0.58,0.42-0.965,1.185-0.934,1.858
			c0.016,0.36,0.153,0.857,0.721,1.196c0.305,0.184,0.8,0.221,1.277,0.258c0.469,0.036,0.955,0.075,1.104,0.257
			c0.039,0.049,0.055,0.106,0.045,0.179c-0.031,0.334-0.194,0.663-0.353,0.981c-0.297,0.601-0.602,1.221-0.071,1.912
			c0.465,0.604,1.082,0.604,1.717,0.601c0.051,0,0.104-0.002,0.155-0.002c0.275,0,0.597,0.009,0.886,0.11
			c0.205,0.08,0.31,0.247,0.358,0.571c0.037,0.203,0.125,0.361,0.244,0.482c0.018-0.097,0.058-0.182,0.121-0.257
			c0.312-0.368,0.25-0.711,0.096-1.39C30.79-9.821,30.709-10.173,30.689-10.557z"/>
	</g>
</g>
<g>
	<g>
		<path fill="#2C343E" d="M-48.596,7.528c0,0-4.17-4.146-7.509-4.146c-3.337,0-7.508,4.146-7.508,4.146
			c-0.256,0.239-0.259,0.634,0,0.87c0,0,4.17,4.146,7.508,4.146c3.339,0,7.509-4.146,7.509-4.146
			C-48.344,8.157-48.338,7.766-48.596,7.528z M-56.073,11.301c-1.835,0-3.324-1.486-3.324-3.324c0-1.837,1.487-3.324,3.324-3.324
			c1.836,0,3.323,1.49,3.323,3.324C-52.75,9.813-54.238,11.301-56.073,11.301z"/>
		<path fill="#2C343E" d="M-56.112,5.826c-1.165,0-2.111,0.95-2.111,2.119c0,1.168,0.946,2.118,2.111,2.118
			c1.167,0,2.112-0.949,2.112-2.118C-54,6.776-54.945,5.826-56.112,5.826z M-55.316,7.952c-0.36,0-0.654-0.295-0.654-0.66
			s0.294-0.66,0.654-0.66c0.361,0,0.656,0.295,0.656,0.66S-54.951,7.952-55.316,7.952z"/>
	</g>
</g>
<g>
	<g id="add-circle">
		<path fill="#1F596D" d="M8,0.305C3.768,0.305,0.305,3.768,0.305,8c0,4.232,3.463,7.693,7.695,7.693
			c4.232,0,7.695-3.461,7.695-7.693C15.695,3.768,12.232,0.305,8,0.305z M11.848,8.77H8.77v3.078H7.23V8.77H4.152V7.23H7.23V4.152
			h1.54V7.23h3.078V8.77z"/>
	</g>
</g>
<g>
	<path fill="#1F596D" d="M13.295,16.1l-0.59-0.81c2.056-1.497,2.5-3.224,2.504-3.24l0.973,0.232
		C16.162,12.366,15.667,14.369,13.295,16.1z"/>
</g>
</svg>
