<?xml version="1.0" encoding="utf-8"?>
<!-- Generator: Adobe Illustrator 15.1.0, SVG Export Plug-In . SVG Version: 6.00 Build 0)  -->
<!DOCTYPE svg PUBLIC "-//W3C//DTD SVG 1.1//EN" "http://www.w3.org/Graphics/SVG/1.1/DTD/svg11.dtd">
<svg version="1.1" id="Layer_1" xmlns="http://www.w3.org/2000/svg" xmlns:xlink="http://www.w3.org/1999/xlink" x="0px" y="0px"
	 width="50px" height="50px" viewBox="0 0 50 50" enable-background="new 0 0 50 50" xml:space="preserve">
<g>
	<path fill="#FFFFFF" d="M24.588,8.741l-14.091,8.136v16.27l14.091,8.136l14.091-8.136v-16.27L24.588,8.741z M37.629,32.542
		l-13.041,7.529l-13.042-7.529v-15.06l13.042-7.531l13.041,7.531V32.542z"/>
	<g>
		<g>
			<path fill="#FFFFFF" d="M15.273,19.056h2.323c1.332,0,2.23,0.06,2.696,0.178c0.666,0.167,1.21,0.512,1.633,1.033
				c0.423,0.521,0.634,1.175,0.634,1.964c0,0.793-0.206,1.448-0.618,1.963c-0.412,0.515-0.981,0.863-1.705,1.041
				c-0.528,0.13-1.517,0.194-2.965,0.194h-0.833v5.539h-1.166V19.056z M16.438,20.222v4.041l1.975,0.024
				c0.798,0,1.382-0.074,1.752-0.222c0.37-0.148,0.661-0.387,0.873-0.719c0.211-0.331,0.317-0.702,0.317-1.112
				c0-0.398-0.106-0.763-0.317-1.095c-0.212-0.332-0.491-0.567-0.836-0.707c-0.347-0.14-0.914-0.21-1.701-0.21H16.438z"/>
			<path fill="#FFFFFF" d="M24.078,30.968V19.056h2.419c1.744,0,3.01,0.143,3.798,0.429c1.131,0.405,2.015,1.107,2.652,2.106
				c0.636,0.998,0.956,2.188,0.956,3.571c0,1.192-0.253,2.242-0.759,3.149c-0.505,0.906-1.16,1.575-1.967,2.009
				c-0.806,0.431-1.935,0.647-3.389,0.647H24.078z M25.196,29.841h1.348c1.612,0,2.73-0.102,3.354-0.307
				c0.879-0.291,1.567-0.815,2.07-1.573c0.502-0.758,0.753-1.685,0.753-2.779c0-1.149-0.271-2.13-0.816-2.945
				c-0.544-0.814-1.304-1.372-2.276-1.675c-0.729-0.226-1.931-0.339-3.607-0.339h-0.824V29.841z"/>
		</g>
	</g>
</g>
</svg>
