<?xml version="1.0" encoding="utf-8"?>
<!-- Generator: Adobe Illustrator 15.1.0, SVG Export Plug-In . SVG Version: 6.00 Build 0)  -->
<!DOCTYPE svg PUBLIC "-//W3C//DTD SVG 1.1//EN" "http://www.w3.org/Graphics/SVG/1.1/DTD/svg11.dtd">
<svg version="1.1" id="Layer_1" xmlns="http://www.w3.org/2000/svg" xmlns:xlink="http://www.w3.org/1999/xlink" x="0px" y="0px"
	 width="16px" height="16px" viewBox="0 0 16 16" enable-background="new 0 0 16 16" xml:space="preserve">
<rect x="-54.833" fill="#C9003A" width="16" height="16"/>
<g>
	<g id="share">
		<path fill="#2C343E" d="M-19.46-5.975l-2.617-2.068c2.523-3.194,5.31-4.618,8.805-4.448c-3.697-1.885-8.4-2.493-12.569,1.471
			l-2.552-2.016l0.935,7.997L-19.46-5.975z"/>
	</g>
</g>
<path fill="#1F596D" d="M0.344,8c0,3.98,3.215,7.273,7.273,7.273c3.367,0,6.201-2.297,7.043-5.358h-1.607
	c-0.842,2.221-2.908,3.828-5.436,3.828c-3.14,0-5.744-2.604-5.744-5.743c0-3.139,2.604-5.742,5.744-5.742
	c2.296,0,4.21,1.301,5.207,3.216L10.68,7.618h4.977V2.64l-1.762,1.761c-1.225-2.22-3.599-3.675-6.277-3.675
	C3.635,0.726,0.344,4.018,0.344,8z"/>
</svg>
