<?xml version="1.0" encoding="utf-8"?>
<!-- Generator: Adobe Illustrator 15.1.0, SVG Export Plug-In . SVG Version: 6.00 Build 0)  -->
<!DOCTYPE svg PUBLIC "-//W3C//DTD SVG 1.1//EN" "http://www.w3.org/Graphics/SVG/1.1/DTD/svg11.dtd">
<svg version="1.1" id="Layer_1" xmlns="http://www.w3.org/2000/svg" xmlns:xlink="http://www.w3.org/1999/xlink" x="0px" y="0px"
	 width="25px" height="25px" viewBox="0 0 25 25" enable-background="new 0 0 25 25" xml:space="preserve">
<rect fill="#2ECC71" width="25" height="25"/>
<g>
	<path fill="#FFFFFF" d="M-13.117,18.334h0.755v1.846h-1.888v-0.738h1.133V18.334L-13.117,18.334z M-24.976,20.18h2.681v-0.738
		h-2.681V20.18L-24.976,20.18z M-19.614,20.18h2.683v-0.738h-2.683V20.18z M-28.79,18.334h-0.754v1.846h1.886v-0.738h-1.131
		L-28.79,18.334L-28.79,18.334z M-28.79,13.088h-0.754v2.623h0.754V13.088z M-28.79,7.841h-0.754v2.624h0.754V7.841z M-29.544,5.218
		h0.754V4.111h1.131V3.374h-1.886L-29.544,5.218L-29.544,5.218z M-22.295,3.374h-2.681v0.738h2.681V3.374z M-19.614,4.111h2.683
		V3.374h-2.683V4.111z M-14.25,3.374v0.738h1.133v1.107h0.755V3.374H-14.25z M-13.117,15.711h0.755v-2.623h-0.755V15.711z
		 M-13.117,10.465h0.755V7.841h-0.755V10.465z"/>
</g>
<path fill="#FFFFFF" d="M-44.754-10.179l4.128-1.815c0.317-0.142,0.521-0.473,0.504-0.826c-0.019-0.356-0.247-0.662-0.58-0.771
	l-13.525-4.394c-0.298-0.094-0.625-0.016-0.845,0.209c-0.221,0.226-0.299,0.559-0.202,0.862l4.306,13.797
	c0.104,0.342,0.408,0.574,0.757,0.593c0.346,0.019,0.667-0.188,0.807-0.512l1.78-4.209l5.665,5.78
	c0.156,0.158,0.371,0.247,0.595,0.247c0.221,0,0.43-0.089,0.59-0.247l1.689-1.725c0.325-0.335,0.325-0.877,0-1.211L-44.754-10.179z"
	/>
<circle fill="#FFFFFF" cx="-43.125" cy="21.375" r="3"/>
<circle fill="#FFFFFF" cx="-53.25" cy="10.875" r="3"/>
<line fill="none" stroke="#FFFFFF" stroke-miterlimit="10" x1="-53.25" y1="10.875" x2="-42.5" y2="22"/>
<path fill="#FFFFFF" d="M47.535,47.681L47.535,47.681c-0.007-0.017-0.011-0.022-0.011-0.022c-0.002-0.002-0.002,0-0.004-0.002
	c-1.842-3.479-12.497-3.146-8.386-8.936l0,0c0.562-2.286,0.7-4.014,0.7-4.014c0-4.006-2.17-4.859-3.407-5.021v-0.02
	c0,0-0.16-0.021-0.42-0.014c-0.259-0.008-0.42,0.014-0.42,0.014v0.02c-1.236,0.162-3.404,1.016-3.404,5.021
	c0,0,0.137,1.728,0.698,4.014h0.011c4.112,5.788-6.541,5.457-8.384,8.936c-0.005,0-0.01,0-0.016,0.002c0,0-0.685,1.543-0.824,2.939
	h24.684C48.222,49.301,47.621,47.879,47.535,47.681z"/>
<polygon points="-17.274,33.373 -12.951,35.947 -8.625,33.373 -12.951,30.802 "/>
<polygon points="-13.232,36.16 -13.232,37.29 -13.796,37.29 -13.002,38.082 -12.211,37.29 -12.773,37.29 -12.773,36.16 "/>
<polygon points="-2.667,33.143 -4.304,33.144 -4.304,33.604 -2.667,33.604 -2.667,34.168 -1.874,33.373 -2.667,32.58 "/>
<polygon points="-16.307,40.896 -11.386,40.896 -10.137,38.437 -15.061,38.437 "/>
<polygon fill="#FFFFFF" points="-21.475,25 -21.475,27.582 -22.766,27.582 -20.95,29.398 -19.142,27.582 -20.427,27.582 -20.427,25 
	"/>
<g>
	<polygon fill="#FFFFFF" points="-21.855,17.326 -19.274,17.326 -19.274,18.617 -17.457,16.801 -19.275,14.993 -19.275,16.277 
		-21.856,16.277 	"/>
	<path fill="#FFFFFF" d="M-11.706,14.147h-3.032c-1.267,0-2.294,1.026-2.294,2.295s1.027,2.297,2.294,2.297h3.032
		c1.264,0,2.292-1.028,2.292-2.297S-10.442,14.148-11.706,14.147z"/>
	<path fill="#FFFFFF" d="M-24.442,9.979h6.487c1.746,0,3.164-1.418,3.164-3.16c0-1.746-1.418-3.162-3.164-3.162h-6.487
		c-1.745,0-3.161,1.416-3.163,3.162C-27.605,8.563-26.187,9.979-24.442,9.979z"/>
	<rect x="-21.855" y="10.689" fill="#FFFFFF" width="1.059" height="6.637"/>
</g>
<path fill="#FFFFFF" d="M44.149,20.648l-4.812-5.559c-0.054-0.062-0.131-0.097-0.212-0.097h-6.773c-1.39,0-2.522,1.132-2.522,2.522
	v12.939c0,1.392,1.133,2.523,2.522,2.523h9.342c1.391,0,2.524-1.132,2.524-2.523v-9.623C44.219,20.766,44.193,20.7,44.149,20.648z
	 M39.406,16.025l3.918,4.527h-1.956c-1.082,0-1.962-0.881-1.962-1.963V16.025z M41.694,32.418h-9.342
	c-1.081,0-1.962-0.88-1.962-1.963V17.516c0-1.082,0.881-1.963,1.962-1.963h6.493v3.037c0,1.391,1.132,2.521,2.522,2.521h2.288v9.344
	C43.656,31.538,42.778,32.418,41.694,32.418z M34.732,23.018l-2.379,2.381l2.379,2.378c0.141,0.144,0.141,0.373,0,0.516
	c-0.072,0.072-0.166,0.106-0.26,0.106c-0.092,0-0.185-0.034-0.256-0.106l-2.637-2.637c-0.144-0.142-0.144-0.371,0-0.516l2.635-2.636
	c0.143-0.143,0.374-0.143,0.516,0C34.873,22.646,34.873,22.877,34.732,23.018z M42.471,25.14c0.142,0.145,0.142,0.374,0,0.516
	l-2.64,2.637c-0.069,0.072-0.162,0.106-0.256,0.106c-0.096,0-0.188-0.034-0.258-0.106c-0.144-0.143-0.144-0.372,0-0.516l2.378-2.378
	l-2.378-2.381c-0.144-0.141-0.144-0.371,0-0.514c0.142-0.143,0.373-0.143,0.514,0L42.471,25.14z"/>
<path fill="#FFFFFF" d="M19.869,20.836c0,0.533-0.432,0.967-0.965,0.967H6.097c-0.533,0-0.966-0.434-0.966-0.967V4.164
	c0-0.534,0.433-0.967,0.966-0.967h12.808c0.533,0,0.965,0.433,0.965,0.967V20.836z"/>
<g>
	<path fill="#2ECC71" d="M10.841,9.206l-3.294,3.296l3.294,3.289c0.195,0.201,0.195,0.518,0,0.715c-0.1,0.1-0.23,0.148-0.361,0.148
		c-0.126,0-0.254-0.049-0.353-0.148l-3.65-3.65c-0.199-0.195-0.199-0.515,0-0.714l3.648-3.647c0.197-0.197,0.517-0.197,0.714,0
		C11.036,8.692,11.036,9.011,10.841,9.206z"/>
	<path fill="#2ECC71" d="M18.525,12.142c0.197,0.2,0.197,0.519,0,0.714l-3.653,3.65c-0.098,0.1-0.225,0.148-0.354,0.148
		c-0.134,0-0.264-0.049-0.358-0.148c-0.2-0.197-0.2-0.514,0-0.715l3.29-3.289l-3.29-3.296c-0.2-0.195-0.2-0.514,0-0.712
		c0.195-0.197,0.517-0.197,0.712,0L18.525,12.142z"/>
</g>
</svg>
