<?xml version="1.0" encoding="utf-8"?>
<!-- Generator: Adobe Illustrator 15.1.0, SVG Export Plug-In . SVG Version: 6.00 Build 0)  -->
<!DOCTYPE svg PUBLIC "-//W3C//DTD SVG 1.1//EN" "http://www.w3.org/Graphics/SVG/1.1/DTD/svg11.dtd">
<svg version="1.1" id="Layer_1" xmlns="http://www.w3.org/2000/svg" xmlns:xlink="http://www.w3.org/1999/xlink" x="0px" y="0px"
	 width="25px" height="25px" viewBox="0 0 25 25" enable-background="new 0 0 25 25" xml:space="preserve">
<rect x="0" y="-0.019" fill="#102A54" width="25" height="25"/>
<g>
	<path fill="#FFFFFF" d="M20.211,18.334h0.755v1.846h-1.888v-0.738h1.133V18.334L20.211,18.334z M8.352,20.18h2.681v-0.738H8.352
		V20.18L8.352,20.18z M13.714,20.18h2.683v-0.738h-2.683V20.18z M4.539,18.334H3.784v1.846H5.67v-0.738H4.539V18.334z M4.539,13.088
		H3.784v2.623h0.754V13.088z M4.539,7.841H3.784v2.624h0.754V7.841z M3.784,5.218h0.754V4.111H5.67V3.374H3.784V5.218z
		 M11.033,3.374H8.352v0.738h2.681V3.374z M13.714,4.111h2.683V3.374h-2.683V4.111z M19.078,3.374v0.738h1.133v1.107h0.755V3.374
		H19.078z M20.211,15.711h0.755v-2.623h-0.755V15.711z M20.211,10.465h0.755V7.841h-0.755V10.465z"/>
</g>
<path fill="#FFFFFF" d="M18.113,16.458l3.086-1.357c0.237-0.105,0.39-0.353,0.377-0.617c-0.014-0.267-0.185-0.495-0.434-0.577
	l-10.111-3.284c-0.223-0.07-0.467-0.012-0.632,0.156c-0.165,0.169-0.224,0.418-0.151,0.645l3.219,10.314
	c0.077,0.255,0.306,0.43,0.566,0.443c0.258,0.014,0.498-0.142,0.603-0.383l1.331-3.146l4.235,4.321
	c0.117,0.118,0.277,0.185,0.444,0.185c0.165,0,0.321-0.066,0.441-0.185l1.263-1.29c0.243-0.25,0.243-0.655,0-0.904L18.113,16.458z"
	/>
</svg>
