<?xml version="1.0" encoding="utf-8"?>
<!-- Generator: Adobe Illustrator 15.1.0, SVG Export Plug-In . SVG Version: 6.00 Build 0)  -->
<!DOCTYPE svg PUBLIC "-//W3C//DTD SVG 1.1//EN" "http://www.w3.org/Graphics/SVG/1.1/DTD/svg11.dtd">
<svg version="1.1" id="Layer_1" xmlns="http://www.w3.org/2000/svg" xmlns:xlink="http://www.w3.org/1999/xlink" x="0px" y="0px"
	 width="25px" height="25px" viewBox="0 0 25 25" enable-background="new 0 0 25 25" xml:space="preserve">
<rect y="-0.019" fill="#3498DB" width="25" height="25"/>
<g>
	<path fill="#FFFFFF" d="M-13.117,18.334h0.755v1.846h-1.888v-0.738h1.133V18.334L-13.117,18.334z M-24.976,20.18h2.681v-0.738
		h-2.681V20.18L-24.976,20.18z M-19.614,20.18h2.683v-0.738h-2.683V20.18z M-28.79,18.334h-0.754v1.846h1.886v-0.738h-1.131
		L-28.79,18.334L-28.79,18.334z M-28.79,13.088h-0.754v2.623h0.754V13.088z M-28.79,7.841h-0.754v2.624h0.754V7.841z M-29.544,5.218
		h0.754V4.111h1.131V3.374h-1.886L-29.544,5.218L-29.544,5.218z M-22.295,3.374h-2.681v0.738h2.681V3.374z M-19.614,4.111h2.683
		V3.374h-2.683V4.111z M-14.25,3.374v0.738h1.133v1.107h0.755V3.374H-14.25z M-13.117,15.711h0.755v-2.623h-0.755V15.711z
		 M-13.117,10.465h0.755V7.841h-0.755V10.465z"/>
</g>
<path fill="#FFFFFF" d="M-44.754-10.179l4.128-1.815c0.317-0.142,0.521-0.473,0.504-0.826c-0.019-0.356-0.247-0.662-0.58-0.771
	l-13.525-4.394c-0.298-0.094-0.625-0.016-0.845,0.209c-0.221,0.226-0.299,0.559-0.202,0.862l4.306,13.797
	c0.104,0.342,0.408,0.574,0.757,0.593c0.346,0.019,0.667-0.188,0.807-0.512l1.78-4.209l5.665,5.78
	c0.156,0.158,0.371,0.247,0.595,0.247c0.221,0,0.43-0.089,0.59-0.247l1.689-1.725c0.325-0.335,0.325-0.877,0-1.211L-44.754-10.179z"
	/>
<circle fill="#FFFFFF" cx="-43.125" cy="21.375" r="3"/>
<circle fill="#FFFFFF" cx="-53.25" cy="10.875" r="3"/>
<line fill="none" stroke="#FFFFFF" stroke-miterlimit="10" x1="-53.25" y1="10.875" x2="-42.5" y2="22"/>
<path fill="#FFFFFF" d="M47.535,47.681L47.535,47.681c-0.007-0.017-0.011-0.022-0.011-0.022c-0.002-0.002-0.002,0-0.004-0.002
	c-1.842-3.479-12.497-3.146-8.386-8.936l0,0c0.562-2.286,0.7-4.014,0.7-4.014c0-4.006-2.17-4.859-3.407-5.021v-0.02
	c0,0-0.16-0.021-0.42-0.014c-0.259-0.008-0.42,0.014-0.42,0.014v0.02c-1.236,0.162-3.404,1.016-3.404,5.021
	c0,0,0.137,1.728,0.698,4.014h0.011c4.112,5.788-6.541,5.457-8.384,8.936c-0.005,0-0.01,0-0.016,0.002c0,0-0.685,1.543-0.824,2.939
	h24.684C48.222,49.301,47.621,47.879,47.535,47.681z"/>
<polygon points="-17.274,33.373 -12.951,35.947 -8.625,33.373 -12.951,30.802 "/>
<polygon points="-13.232,36.16 -13.232,37.29 -13.796,37.29 -13.002,38.082 -12.211,37.29 -12.773,37.29 -12.773,36.16 "/>
<polygon points="-2.667,33.143 -4.304,33.144 -4.304,33.604 -2.667,33.604 -2.667,34.168 -1.874,33.373 -2.667,32.58 "/>
<polygon points="-16.307,40.896 -11.386,40.896 -10.137,38.437 -15.061,38.437 "/>
<polygon fill="#FFFFFF" points="-21.475,25 -21.475,27.582 -22.766,27.582 -20.95,29.398 -19.142,27.582 -20.427,27.582 -20.427,25 
	"/>
<polygon fill="#FFFFFF" points="8.895,17.836 11.476,17.836 11.476,19.127 13.293,17.311 11.475,15.503 11.475,16.787 8.894,16.787 
	"/>
<path fill="#FFFFFF" d="M19.044,14.657h-3.032c-1.267,0-2.294,1.026-2.294,2.295s1.027,2.297,2.294,2.297h3.032
	c1.264,0,2.292-1.028,2.292-2.297S20.308,14.658,19.044,14.657z"/>
<path fill="#FFFFFF" d="M6.308,10.489h6.487c1.746,0,3.164-1.418,3.164-3.16c0-1.746-1.418-3.162-3.164-3.162H6.308
	c-1.745,0-3.161,1.416-3.163,3.162C3.145,9.073,4.563,10.489,6.308,10.489z"/>
<rect x="8.895" y="11.199" fill="#FFFFFF" width="1.059" height="6.637"/>
</svg>
