<?xml version="1.0" encoding="utf-8"?>
<!-- Generator: Adobe Illustrator 15.1.0, SVG Export Plug-In . SVG Version: 6.00 Build 0)  -->
<!DOCTYPE svg PUBLIC "-//W3C//DTD SVG 1.1//EN" "http://www.w3.org/Graphics/SVG/1.1/DTD/svg11.dtd">
<svg version="1.1" id="Layer_1" xmlns="http://www.w3.org/2000/svg" xmlns:xlink="http://www.w3.org/1999/xlink" x="0px" y="0px"
	 width="16px" height="16px" viewBox="0 0 16 16" enable-background="new 0 0 16 16" xml:space="preserve">
<path fill="#231F20" d="M-16.352,5.161h1.185v0.823h-0.443c-0.131,0-0.238,0.106-0.238,0.238s0.106,0.238,0.238,0.238h3.321
	c0.132,0,0.237-0.106,0.237-0.238s-0.105-0.238-0.237-0.238h-0.443V5.161h1.186c0.468,0,0.848-0.38,0.848-0.847v-2.84
	c0-0.467-0.38-0.847-0.848-0.847h-4.805c-0.467,0-0.847,0.38-0.847,0.847v2.84C-17.199,4.781-16.819,5.161-16.352,5.161z
	 M-13.208,5.983h-1.483V5.161h1.483V5.983z M-16.724,1.473c0-0.205,0.167-0.372,0.372-0.372h4.805c0.205,0,0.372,0.167,0.372,0.372
	v2.84c0,0.205-0.167,0.372-0.372,0.372h-4.805c-0.205,0-0.372-0.167-0.372-0.372V1.473z"/>
<path fill="#231F20" d="M-15.671,9.541h-4.806c-0.467,0-0.847,0.38-0.847,0.847v2.841c0,0.467,0.38,0.847,0.847,0.847h1.185v0.822
	h-0.443c-0.131,0-0.238,0.107-0.238,0.239c0,0.13,0.106,0.237,0.238,0.237h3.321c0.131,0,0.237-0.107,0.237-0.237
	c0-0.132-0.106-0.239-0.237-0.239h-0.443v-0.822h1.185c0.467,0,0.847-0.38,0.847-0.847v-2.841
	C-14.824,9.921-15.204,9.541-15.671,9.541z M-17.333,14.897h-1.483v-0.822h1.483V14.897z M-15.3,13.229
	c0,0.205-0.167,0.371-0.371,0.371h-4.806c-0.205,0-0.372-0.166-0.372-0.371v-2.841c0-0.204,0.167-0.371,0.372-0.371h4.806
	c0.205,0,0.371,0.167,0.371,0.371V13.229z"/>
<path fill="#231F20" d="M-7.421,9.541h-4.806c-0.468,0-0.848,0.38-0.848,0.847v2.841c0,0.467,0.38,0.847,0.848,0.847h1.186v0.822
	h-0.443c-0.131,0-0.237,0.107-0.237,0.239c0,0.13,0.106,0.237,0.237,0.237h3.32c0.132,0,0.237-0.107,0.237-0.237
	c0-0.132-0.105-0.239-0.237-0.239h-0.443v-0.822h1.187c0.467,0,0.847-0.38,0.847-0.847v-2.841C-6.574,9.921-6.954,9.541-7.421,9.541
	z M-9.082,14.897h-1.484v-0.822h1.484V14.897z M-7.05,13.229c0,0.205-0.167,0.371-0.371,0.371h-4.806
	c-0.205,0-0.372-0.166-0.372-0.371v-2.841c0-0.204,0.167-0.371,0.372-0.371h4.806c0.204,0,0.371,0.167,0.371,0.371V13.229
	L-7.05,13.229z"/>
<path fill="#231F20" d="M-10.062,8.828c0,0.131,0.105,0.236,0.237,0.236s0.237-0.105,0.237-0.236V8c0-0.131-0.105-0.238-0.237-0.238
	h-3.887V7.173c0-0.131-0.106-0.239-0.238-0.239s-0.238,0.107-0.238,0.239v0.589h-3.887c-0.131,0-0.238,0.106-0.238,0.238v0.828
	c0,0.131,0.106,0.236,0.238,0.236s0.238-0.105,0.238-0.236v-0.59h7.774V8.828z"/>
<path fill="#231F20" d="M23.314,5.958c-0.205-0.001-0.372,0.065-0.369,0.146c-0.002,0.083,0.162,0.148,0.366,0.149l1.302,0.005
	c0.206,0,0.374-0.064,0.374-0.146l0.008-2.417l0.926,0.003c0.205,0,0.374-0.066,0.374-0.147s-0.169-0.148-0.375-0.149l-0.924-0.003
	l0.008-2.417c-0.002-0.081-0.168-0.149-0.373-0.149L23.33,0.828c-0.205,0-0.369,0.066-0.369,0.147
	c-0.002,0.081,0.164,0.148,0.369,0.149l0.926,0.002L24.24,5.961L23.314,5.958z"/>
<g>
	<g>
		<path fill="#FFFFFF" d="M48.939,6.132V6.115h-0.059H38.357h-0.059v0.017c-0.344,0.024-0.602,0.298-0.641,0.63v0.059v6.935
			c0,0.134,0.034,0.247,0.093,0.351c0.134,0.236,0.333,0.355,0.606,0.355h3.842v0.968h-0.73c-0.182,0-0.322,0.141-0.322,0.323
			c0,0.18,0.141,0.32,0.322,0.32h4.303c0.18,0,0.326-0.141,0.326-0.32c0-0.183-0.146-0.323-0.326-0.323h-0.73v-0.968h3.84
			c0.275,0,0.475-0.119,0.607-0.355c0.061-0.108,0.1-0.223,0.1-0.351V6.821V6.762C49.547,6.43,49.273,6.156,48.939,6.132z
			 M48.939,6.821v6.935c0,0.041-0.018,0.059-0.059,0.059H38.357c-0.041,0-0.059-0.018-0.059-0.059V6.821V6.762h10.641V6.821
			L48.939,6.821z"/>
	</g>
	<g>
		<path fill="#FFFFFF" d="M40.812,0.015v-0.01h-0.034h-6.243h-0.035v0.01c-0.204,0.014-0.356,0.177-0.38,0.375v0.035v4.114
			c0,0.079,0.02,0.146,0.055,0.208c0.08,0.141,0.197,0.211,0.36,0.211h2.278v0.574H36.38c-0.107,0-0.19,0.084-0.19,0.192
			c0,0.106,0.083,0.19,0.19,0.19h2.554c0.105,0,0.193-0.084,0.193-0.19c0-0.108-0.088-0.192-0.193-0.192H38.5V4.958h2.277
			c0.164,0,0.281-0.071,0.359-0.211c0.037-0.064,0.06-0.133,0.06-0.208V0.425V0.39C41.173,0.192,41.01,0.029,40.812,0.015z
			 M40.812,0.425v4.114c0,0.025-0.009,0.035-0.034,0.035h-6.243c-0.025,0-0.035-0.01-0.035-0.035V0.425V0.39h6.313V0.425
			L40.812,0.425z"/>
	</g>
</g>
<rect x="0.75" y="0.749" fill="none" stroke="#FFFFFF" stroke-miterlimit="10" width="6.591" height="14.5"/>
<rect x="8.658" y="0.749" fill="#FFFFFF" width="6.592" height="1.635"/>
<rect x="8.658" y="4.96" fill="#FFFFFF" width="6.592" height="3.948"/>
<rect x="8.658" y="11.343" fill="#FFFFFF" width="6.592" height="3.774"/>
</svg>
