<?xml version="1.0" encoding="utf-8"?>
<!-- Generator: Adobe Illustrator 15.1.0, SVG Export Plug-In . SVG Version: 6.00 Build 0)  -->
<!DOCTYPE svg PUBLIC "-//W3C//DTD SVG 1.1//EN" "http://www.w3.org/Graphics/SVG/1.1/DTD/svg11.dtd">
<svg version="1.1" id="Layer_1" xmlns="http://www.w3.org/2000/svg" xmlns:xlink="http://www.w3.org/1999/xlink" x="0px" y="0px"
	 width="25px" height="25px" viewBox="0 0 25 25" enable-background="new 0 0 25 25" xml:space="preserve">
<rect fill="#1ABC9C" width="25" height="25"/>
<g>
	<g>
		<g>
			<path fill="#FFFFFF" d="M15.584,19.158c0.018-0.009,0.034-0.017,0.051-0.024c-0.007-0.009-0.013-0.017-0.018-0.026
				C15.607,19.123,15.595,19.143,15.584,19.158z"/>
			<path fill="#FFFFFF" d="M12.402,18.914c-1.289,0-2.489-0.37-3.514-1c0.922,0.01-0.686-1.402,0.422-1.619
				c1.162-0.229,1.651-1.557,1.279-1.537c-0.371,0.02-1.078-0.191-1.575-0.816c-0.498-0.629-0.934-0.484-1.447-0.387
				c-0.449,0.089-1.002,1.387-1.139,1.729c-0.35-0.67-0.586-1.405-0.693-2.183c0.57-0.298,1.5-0.8,1.836-1.077
				c0.496-0.411-0.166-0.577-0.247-0.825c-0.081-0.248,0-0.825,0-1.398c0-0.578,1.154-0.578,1.563-1.154
				C9.183,8.236,8.644,7.33,8.307,6.839c1.136-0.874,2.554-1.4,4.095-1.4c0.408,0,0.807,0.042,1.195,0.113
				c0.115,0.709,0.352,1.686,0.811,1.94c0.744,0.412,1.643,1.318,1.976,1.481c0.331,0.165,0.739,1.567,0.659,2.144
				c-0.059,0.407-0.563,0.855-0.77,1.286l3.433,2.139c0.242-0.745,0.376-1.538,0.376-2.364c0-4.234-3.447-7.677-7.679-7.677
				c-4.235,0-7.679,3.443-7.679,7.677c0,4.235,3.444,7.68,7.679,7.68c0.161,0,0.318-0.016,0.476-0.024L12.7,18.898
				C12.6,18.902,12.502,18.914,12.402,18.914z M19.057,13.172c-0.145-0.577-0.426-1.133-1.024-1.562
				c-0.409-0.289-0.743-1.564-0.495-1.978c0.148-0.246,0.535-0.463,0.819-0.598c0.497,0.939,0.782,2.007,0.782,3.143
				C19.139,12.516,19.105,12.846,19.057,13.172z"/>
			<path fill="#FFFFFF" d="M17.069,16.541l3.206-0.639l-8.032-5.005l-0.19,0.132l1.789,9.292l1.746-2.762l1.693,2.467
				c0.32,0.464,0.911,0.613,1.32,0.334c0.406-0.281,0.48-0.888,0.16-1.353L17.069,16.541z"/>
		</g>
	</g>
</g>
</svg>
