<?xml version="1.0" encoding="utf-8"?>
<!-- Generator: Adobe Illustrator 15.1.0, SVG Export Plug-In . SVG Version: 6.00 Build 0)  -->
<!DOCTYPE svg PUBLIC "-//W3C//DTD SVG 1.1//EN" "http://www.w3.org/Graphics/SVG/1.1/DTD/svg11.dtd">
<svg version="1.1" id="Layer_1" xmlns="http://www.w3.org/2000/svg" xmlns:xlink="http://www.w3.org/1999/xlink" x="0px" y="0px"
	 width="30px" height="30px" viewBox="0 0 30 30" enable-background="new 0 0 30 30" xml:space="preserve">
<g>
	<g>
		<path fill="#B7B7B7" d="M20.953,25.969c0,0.588-0.479,1.066-1.068,1.066h-9.607c-0.589,0-1.068-0.479-1.068-1.066l0,0
			c0-0.592,0.479-1.068,1.068-1.068h9.607C20.475,24.9,20.953,25.377,20.953,25.969L20.953,25.969z"/>
		<path fill="#B7B7B7" d="M17.482,24.635c0,1.326-1.074,2.4-2.401,2.4l0,0c-1.327,0-2.402-1.074-2.402-2.4v-2.402
			c0-1.326,1.075-2.402,2.402-2.402l0,0c1.327,0,2.401,1.076,2.401,2.402V24.635z"/>
	</g>
	<path fill="#3FAFFF" d="M23.813,2.963H6.349c-2.269,0-4.106,1.838-4.106,4.106v11.683H27.92V7.069
		C27.92,4.801,26.08,2.963,23.813,2.963z"/>
	<path fill="#D6D6D6" d="M2.243,19.328c0,2.266,1.838,4.105,4.106,4.105h17.463c2.268,0,4.107-1.84,4.107-4.105v-0.576H2.243V19.328
		z"/>
	<rect x="5.773" y="10.358" fill="#FFFFFF" width="18.616" height="1"/>
	<rect x="7.456" y="6.393" fill="#FFFFFF" width="15.251" height="1"/>
	<rect x="5.773" y="14.5" fill="#FFFFFF" width="18.616" height="1"/>
</g>
</svg>
