<?xml version="1.0" encoding="utf-8"?>
<!-- Generator: Adobe Illustrator 15.1.0, SVG Export Plug-In . SVG Version: 6.00 Build 0)  -->
<!DOCTYPE svg PUBLIC "-//W3C//DTD SVG 1.0//EN" "http://www.w3.org/TR/2001/REC-SVG-20010904/DTD/svg10.dtd">
<svg version="1.0" id="Layer_1" xmlns="http://www.w3.org/2000/svg" xmlns:xlink="http://www.w3.org/1999/xlink" x="0px" y="0px"
	 width="200px" height="200px" viewBox="0 0 200 200" enable-background="new 0 0 200 200" xml:space="preserve">
<g>
	<g>
		<circle fill="#6AB9E9" cx="99.992" cy="80.718" r="50"/>
		
			<polyline fill="none" stroke="#FFFFFF" stroke-width="2" stroke-linecap="round" stroke-linejoin="round" stroke-miterlimit="10" points="
			125.992,60.718 93.992,96.718 73.992,80.718 		"/>
	</g>
	<g>
		<g>
			<path fill="#92A4B6" d="M32.404,163.351v-13.075h5.797c1.165,0,2.051,0.117,2.658,0.353c0.606,0.234,1.091,0.649,1.454,1.244
				c0.363,0.595,0.544,1.252,0.544,1.971c0,0.928-0.3,1.71-0.901,2.346c-0.601,0.637-1.528,1.041-2.783,1.213
				c0.458,0.221,0.806,0.438,1.043,0.651c0.505,0.464,0.984,1.044,1.436,1.739l2.274,3.559h-2.176l-1.73-2.721
				c-0.505-0.784-0.922-1.385-1.249-1.801c-0.327-0.417-0.62-0.708-0.878-0.874c-0.259-0.167-0.522-0.283-0.79-0.349
				c-0.196-0.041-0.517-0.063-0.963-0.063h-2.007v5.807H32.404z M34.134,156.046h3.719c0.791,0,1.409-0.082,1.855-0.245
				c0.446-0.164,0.785-0.425,1.017-0.785c0.232-0.359,0.348-0.75,0.348-1.173c0-0.618-0.224-1.127-0.673-1.525
				c-0.449-0.397-1.158-0.597-2.127-0.597h-4.139V156.046z"/>
			<path fill="#92A4B6" d="M51.847,160.301l1.659,0.205c-0.262,0.969-0.747,1.721-1.454,2.256s-1.611,0.803-2.711,0.803
				c-1.386,0-2.484-0.427-3.296-1.279c-0.812-0.854-1.217-2.05-1.217-3.59c0-1.594,0.41-2.831,1.231-3.711
				c0.82-0.88,1.885-1.319,3.193-1.319c1.267,0,2.301,0.431,3.104,1.293c0.802,0.862,1.204,2.075,1.204,3.639
				c0,0.096-0.003,0.238-0.009,0.428h-7.064c0.06,1.041,0.354,1.838,0.883,2.391c0.529,0.553,1.189,0.83,1.98,0.83
				c0.588,0,1.091-0.155,1.507-0.464C51.273,161.472,51.604,160.979,51.847,160.301z M46.576,157.705h5.289
				c-0.071-0.797-0.273-1.395-0.606-1.793c-0.512-0.618-1.174-0.928-1.989-0.928c-0.737,0-1.357,0.247-1.859,0.74
				C46.908,156.219,46.63,156.879,46.576,157.705z"/>
			<path fill="#92A4B6" d="M55.905,163.351v-8.224h-1.418v-1.248h1.418v-1.008c0-0.637,0.057-1.109,0.169-1.418
				c0.155-0.417,0.427-0.754,0.816-1.013c0.389-0.259,0.935-0.388,1.637-0.388c0.452,0,0.951,0.053,1.498,0.16l-0.241,1.4
				c-0.333-0.06-0.648-0.089-0.945-0.089c-0.488,0-0.833,0.104-1.035,0.312s-0.303,0.598-0.303,1.169v0.874h1.846v1.248h-1.846
				v8.224H55.905z"/>
			<path fill="#92A4B6" d="M60.579,163.351v-9.472h1.445v1.436c0.369-0.672,0.709-1.114,1.021-1.329
				c0.312-0.214,0.656-0.32,1.03-0.32c0.541,0,1.091,0.172,1.65,0.517l-0.553,1.489c-0.392-0.231-0.785-0.348-1.177-0.348
				c-0.351,0-0.666,0.105-0.945,0.316c-0.279,0.212-0.479,0.505-0.598,0.879c-0.178,0.571-0.268,1.195-0.268,1.873v4.959H60.579z"/>
			<path fill="#92A4B6" d="M73.163,160.301l1.659,0.205c-0.262,0.969-0.747,1.721-1.454,2.256s-1.611,0.803-2.711,0.803
				c-1.386,0-2.484-0.427-3.296-1.279c-0.812-0.854-1.217-2.05-1.217-3.59c0-1.594,0.41-2.831,1.231-3.711
				c0.82-0.88,1.885-1.319,3.193-1.319c1.267,0,2.301,0.431,3.104,1.293c0.802,0.862,1.204,2.075,1.204,3.639
				c0,0.096-0.003,0.238-0.009,0.428h-7.064c0.06,1.041,0.354,1.838,0.883,2.391c0.529,0.553,1.189,0.83,1.98,0.83
				c0.588,0,1.091-0.155,1.507-0.464C72.589,161.472,72.919,160.979,73.163,160.301z M67.892,157.705h5.289
				c-0.071-0.797-0.273-1.395-0.606-1.793c-0.512-0.618-1.174-0.928-1.989-0.928c-0.737,0-1.357,0.247-1.859,0.74
				C68.224,156.219,67.946,156.879,67.892,157.705z"/>
			<path fill="#92A4B6" d="M76.196,160.523l1.587-0.25c0.089,0.637,0.337,1.124,0.745,1.463s0.977,0.509,1.708,0.509
				c0.737,0,1.285-0.15,1.641-0.451c0.357-0.3,0.535-0.652,0.535-1.057c0-0.362-0.158-0.648-0.473-0.856
				c-0.22-0.143-0.767-0.324-1.641-0.544c-1.177-0.297-1.993-0.555-2.448-0.771c-0.455-0.217-0.8-0.518-1.035-0.9
				c-0.235-0.384-0.352-0.808-0.352-1.271c0-0.422,0.097-0.813,0.29-1.173c0.193-0.359,0.457-0.658,0.79-0.896
				c0.25-0.184,0.59-0.34,1.021-0.468s0.894-0.191,1.387-0.191c0.743,0,1.396,0.106,1.958,0.32c0.562,0.215,0.977,0.504,1.244,0.87
				c0.268,0.365,0.452,0.854,0.553,1.467l-1.57,0.214c-0.071-0.487-0.278-0.868-0.62-1.142c-0.342-0.273-0.825-0.41-1.449-0.41
				c-0.737,0-1.264,0.122-1.579,0.366c-0.315,0.243-0.473,0.529-0.473,0.855c0,0.209,0.065,0.396,0.196,0.563
				c0.131,0.172,0.336,0.315,0.615,0.428c0.161,0.06,0.633,0.196,1.418,0.41c1.135,0.304,1.928,0.552,2.376,0.745
				c0.449,0.193,0.801,0.475,1.057,0.843c0.255,0.369,0.383,0.826,0.383,1.373c0,0.535-0.156,1.039-0.468,1.513
				c-0.312,0.473-0.762,0.838-1.351,1.097c-0.588,0.259-1.254,0.388-1.998,0.388c-1.231,0-2.169-0.256-2.814-0.767
				C76.786,162.286,76.374,161.528,76.196,160.523z"/>
			<path fill="#92A4B6" d="M85.971,163.351v-13.075h1.605v4.691c0.749-0.868,1.694-1.302,2.836-1.302
				c0.702,0,1.312,0.138,1.829,0.414s0.887,0.659,1.11,1.146s0.334,1.195,0.334,2.122v6.003h-1.605v-6.003
				c0-0.803-0.174-1.387-0.521-1.752c-0.348-0.366-0.84-0.549-1.476-0.549c-0.476,0-0.923,0.124-1.342,0.37
				c-0.419,0.247-0.718,0.581-0.896,1.004c-0.179,0.422-0.268,1.005-0.268,1.748v5.182H85.971z"/>
			<path fill="#92A4B6" d="M100.821,159.149l1.632-0.143c0.077,0.654,0.257,1.19,0.54,1.61c0.282,0.419,0.721,0.758,1.315,1.017
				s1.264,0.388,2.007,0.388c0.66,0,1.242-0.098,1.748-0.294c0.505-0.196,0.881-0.466,1.128-0.808s0.37-0.715,0.37-1.119
				c0-0.41-0.119-0.769-0.356-1.074c-0.238-0.307-0.631-0.563-1.178-0.771c-0.351-0.137-1.127-0.35-2.327-0.639
				c-1.201-0.288-2.043-0.56-2.524-0.815c-0.624-0.327-1.09-0.733-1.396-1.218c-0.307-0.484-0.46-1.027-0.46-1.628
				c0-0.659,0.188-1.276,0.563-1.851c0.374-0.573,0.921-1.009,1.641-1.307c0.72-0.297,1.52-0.445,2.399-0.445
				c0.969,0,1.824,0.155,2.564,0.468s1.31,0.771,1.708,1.378c0.397,0.606,0.612,1.293,0.642,2.061l-1.659,0.125
				c-0.089-0.826-0.391-1.451-0.905-1.873c-0.514-0.422-1.273-0.634-2.278-0.634c-1.047,0-1.81,0.192-2.288,0.575
				c-0.479,0.384-0.718,0.847-0.718,1.388c0,0.47,0.17,0.855,0.509,1.159c0.333,0.303,1.202,0.614,2.608,0.932
				c1.406,0.318,2.371,0.597,2.895,0.834c0.761,0.352,1.322,0.796,1.686,1.334c0.362,0.538,0.544,1.158,0.544,1.859
				c0,0.695-0.199,1.352-0.598,1.967s-0.971,1.094-1.717,1.436s-1.586,0.513-2.52,0.513c-1.184,0-2.175-0.172-2.975-0.517
				s-1.427-0.864-1.882-1.557S100.845,160.023,100.821,159.149z"/>
			<path fill="#92A4B6" d="M119.596,163.351v-1.392c-0.737,1.07-1.739,1.605-3.006,1.605c-0.56,0-1.081-0.106-1.565-0.321
				c-0.484-0.214-0.845-0.482-1.079-0.807c-0.235-0.324-0.4-0.721-0.495-1.19c-0.065-0.315-0.099-0.815-0.099-1.499v-5.868h1.605
				v5.253c0,0.839,0.033,1.403,0.099,1.694c0.101,0.423,0.314,0.754,0.642,0.995c0.327,0.24,0.731,0.361,1.214,0.361
				c0.481,0,0.933-0.124,1.355-0.37c0.422-0.247,0.721-0.583,0.896-1.008c0.175-0.426,0.263-1.042,0.263-1.852v-5.074h1.605v9.472
				H119.596z"/>
			<path fill="#92A4B6" d="M129.728,159.881l1.579,0.205c-0.173,1.089-0.614,1.94-1.325,2.556c-0.71,0.615-1.583,0.923-2.617,0.923
				c-1.297,0-2.339-0.424-3.126-1.271c-0.788-0.848-1.182-2.062-1.182-3.644c0-1.022,0.169-1.918,0.508-2.685
				c0.339-0.768,0.854-1.343,1.548-1.726c0.692-0.384,1.446-0.575,2.261-0.575c1.028,0,1.87,0.26,2.524,0.78
				c0.653,0.521,1.073,1.259,1.257,2.216l-1.561,0.241c-0.148-0.637-0.412-1.115-0.789-1.437c-0.378-0.32-0.834-0.481-1.369-0.481
				c-0.809,0-1.466,0.29-1.971,0.87c-0.506,0.579-0.759,1.497-0.759,2.751c0,1.272,0.244,2.197,0.731,2.774
				c0.487,0.576,1.124,0.865,1.909,0.865c0.63,0,1.156-0.193,1.578-0.58S129.614,160.684,129.728,159.881z"/>
			<path fill="#92A4B6" d="M138.86,159.881l1.579,0.205c-0.173,1.089-0.614,1.94-1.325,2.556c-0.71,0.615-1.583,0.923-2.617,0.923
				c-1.297,0-2.339-0.424-3.126-1.271c-0.788-0.848-1.182-2.062-1.182-3.644c0-1.022,0.169-1.918,0.508-2.685
				c0.339-0.768,0.854-1.343,1.548-1.726c0.692-0.384,1.446-0.575,2.261-0.575c1.028,0,1.87,0.26,2.524,0.78
				c0.653,0.521,1.073,1.259,1.257,2.216l-1.561,0.241c-0.148-0.637-0.412-1.115-0.789-1.437c-0.378-0.32-0.834-0.481-1.369-0.481
				c-0.809,0-1.466,0.29-1.971,0.87c-0.506,0.579-0.759,1.497-0.759,2.751c0,1.272,0.244,2.197,0.731,2.774
				c0.487,0.576,1.124,0.865,1.909,0.865c0.63,0,1.156-0.193,1.578-0.58S138.747,160.684,138.86,159.881z"/>
			<path fill="#92A4B6" d="M148.297,160.301l1.658,0.205c-0.262,0.969-0.746,1.721-1.453,2.256
				c-0.708,0.535-1.611,0.803-2.712,0.803c-1.385,0-2.483-0.427-3.295-1.279c-0.812-0.854-1.218-2.05-1.218-3.59
				c0-1.594,0.41-2.831,1.23-3.711c0.821-0.88,1.885-1.319,3.193-1.319c1.267,0,2.301,0.431,3.104,1.293s1.204,2.075,1.204,3.639
				c0,0.096-0.003,0.238-0.009,0.428h-7.063c0.06,1.041,0.354,1.838,0.883,2.391s1.189,0.83,1.979,0.83
				c0.589,0,1.092-0.155,1.508-0.464C147.723,161.472,148.053,160.979,148.297,160.301z M143.025,157.705h5.289
				c-0.071-0.797-0.273-1.395-0.606-1.793c-0.512-0.618-1.175-0.928-1.989-0.928c-0.737,0-1.357,0.247-1.859,0.74
				C143.356,156.219,143.079,156.879,143.025,157.705z"/>
			<path fill="#92A4B6" d="M151.329,160.523l1.588-0.25c0.089,0.637,0.338,1.124,0.745,1.463s0.977,0.509,1.708,0.509
				c0.737,0,1.284-0.15,1.641-0.451c0.356-0.3,0.535-0.652,0.535-1.057c0-0.362-0.157-0.648-0.473-0.856
				c-0.22-0.143-0.767-0.324-1.641-0.544c-1.178-0.297-1.994-0.555-2.448-0.771c-0.455-0.217-0.8-0.518-1.035-0.9
				c-0.234-0.384-0.353-0.808-0.353-1.271c0-0.422,0.097-0.813,0.29-1.173c0.193-0.359,0.456-0.658,0.789-0.896
				c0.25-0.184,0.591-0.34,1.021-0.468c0.432-0.128,0.894-0.191,1.387-0.191c0.743,0,1.396,0.106,1.958,0.32
				c0.562,0.215,0.977,0.504,1.244,0.87c0.268,0.365,0.452,0.854,0.553,1.467l-1.569,0.214c-0.071-0.487-0.278-0.868-0.62-1.142
				s-0.825-0.41-1.449-0.41c-0.737,0-1.264,0.122-1.578,0.366c-0.315,0.243-0.473,0.529-0.473,0.855
				c0,0.209,0.064,0.396,0.195,0.563c0.131,0.172,0.336,0.315,0.616,0.428c0.16,0.06,0.633,0.196,1.418,0.41
				c1.136,0.304,1.928,0.552,2.377,0.745c0.448,0.193,0.801,0.475,1.057,0.843c0.256,0.369,0.384,0.826,0.384,1.373
				c0,0.535-0.156,1.039-0.469,1.513c-0.312,0.473-0.763,0.838-1.351,1.097c-0.589,0.259-1.255,0.388-1.998,0.388
				c-1.231,0-2.169-0.256-2.814-0.767C151.92,162.286,151.508,161.528,151.329,160.523z"/>
			<path fill="#92A4B6" d="M160.462,160.523l1.588-0.25c0.089,0.637,0.338,1.124,0.745,1.463s0.977,0.509,1.708,0.509
				c0.737,0,1.284-0.15,1.641-0.451c0.356-0.3,0.535-0.652,0.535-1.057c0-0.362-0.157-0.648-0.473-0.856
				c-0.22-0.143-0.767-0.324-1.641-0.544c-1.178-0.297-1.994-0.555-2.448-0.771c-0.455-0.217-0.8-0.518-1.035-0.9
				c-0.234-0.384-0.353-0.808-0.353-1.271c0-0.422,0.097-0.813,0.29-1.173c0.193-0.359,0.456-0.658,0.789-0.896
				c0.25-0.184,0.591-0.34,1.021-0.468c0.432-0.128,0.894-0.191,1.387-0.191c0.743,0,1.396,0.106,1.958,0.32
				c0.562,0.215,0.977,0.504,1.244,0.87c0.268,0.365,0.452,0.854,0.553,1.467l-1.569,0.214c-0.071-0.487-0.278-0.868-0.62-1.142
				s-0.825-0.41-1.449-0.41c-0.737,0-1.264,0.122-1.578,0.366c-0.315,0.243-0.473,0.529-0.473,0.855
				c0,0.209,0.064,0.396,0.195,0.563c0.131,0.172,0.336,0.315,0.616,0.428c0.16,0.06,0.633,0.196,1.418,0.41
				c1.136,0.304,1.928,0.552,2.377,0.745c0.448,0.193,0.801,0.475,1.057,0.843c0.256,0.369,0.384,0.826,0.384,1.373
				c0,0.535-0.156,1.039-0.469,1.513c-0.312,0.473-0.763,0.838-1.351,1.097c-0.589,0.259-1.255,0.388-1.998,0.388
				c-1.231,0-2.169-0.256-2.814-0.767C161.053,162.286,160.641,161.528,160.462,160.523z"/>
		</g>
	</g>
</g>
</svg>
